TwilioSansMono-ExtraBoldItalic.ufo
<glyph name="dollar" format="2">
	<unicode hex="0024"/>
	<advance width="600"/>
	<outline>
		<contour>
			<point x="118" y="-93" type="line"/>
			<point x="228" y="-93" type="line"/>
			<point x="253" y="-10" type="line"/>
			<point x="262" y="-11"/>
			<point x="270" y="-11"/>
			<point x="279" y="-11" type="curve" smooth="yes"/>
			<point x="448" y="-11"/>
			<point x="555" y="81"/>
			<point x="555" y="234" type="curve" smooth="yes"/>
			<point x="555" y="342"/>
			<point x="494" y="379"/>
			<point x="377" y="410" type="curve"/>
			<point x="422" y="556" type="line"/>
			<point x="479" y="545"/>
			<point x="537" y="524"/>
			<point x="576" y="496" type="curve"/>
			<point x="595" y="633" type="line"/>
			<point x="567" y="650"/>
			<point x="524" y="668"/>
			<point x="474" y="679" type="curve"/>
			<point x="503" y="774" type="line"/>
			<point x="393" y="774" type="line"/>
			<point x="368" y="694" type="line"/>
			<point x="360" y="695"/>
			<point x="352" y="695"/>
			<point x="344" y="695" type="curve" smooth="yes"/>
			<point x="169" y="695"/>
			<point x="71" y="603"/>
			<point x="71" y="457" type="curve" smooth="yes"/>
			<point x="71" y="342"/>
			<point x="143" y="303"/>
			<point x="246" y="278" type="curve"/>
			<point x="201" y="134" type="line"/>
			<point x="149" y="146"/>
			<point x="93" y="170"/>
			<point x="45" y="206" type="curve"/>
			<point x="25" y="63" type="line"/>
			<point x="56" y="41"/>
			<point x="99" y="21"/>
			<point x="148" y="7" type="curve"/>
		</contour>
		<contour>
			<point x="234" y="491" type="curve" smooth="yes"/>
			<point x="234" y="539"/>
			<point x="270" y="563"/>
			<point x="338" y="564" type="curve"/>
			<point x="296" y="431" type="line"/>
			<point x="250" y="445"/>
			<point x="234" y="458"/>
		</contour>
		<contour>
			<point x="392" y="197" type="curve" smooth="yes"/>
			<point x="392" y="146"/>
			<point x="351" y="123"/>
			<point x="285" y="123" type="curve"/>
			<point x="329" y="259" type="line"/>
			<point x="371" y="248"/>
			<point x="392" y="234"/>
		</contour>
	</outline>
</glyph>
<glyph name="ampersand" format="2">
	<unicode hex="0026"/>
	<advance width="600"/>
	<outline>
		<contour>
			<point x="204" y="-14" type="curve" smooth="yes"/>
			<point x="267" y="-14"/>
			<point x="323" y="4"/>
			<point x="374" y="36" type="curve"/>
			<point x="396" y="0" type="line"/>
			<point x="575" y="0" type="line"/>
			<point x="484" y="143" type="line"/>
			<point x="535" y="213"/>
			<point x="573" y="304"/>
			<point x="598" y="409" type="curve"/>
			<point x="458" y="409" type="line"/>
			<point x="444" y="354"/>
			<point x="427" y="304"/>
			<point x="408" y="263" type="curve"/>
			<point x="323" y="396" type="line" smooth="yes"/>
			<point x="302" y="429"/>
			<point x="289" y="452"/>
			<point x="289" y="484" type="curve" smooth="yes"/>
			<point x="289" y="536"/>
			<point x="321" y="566"/>
			<point x="380" y="566" type="curve" smooth="yes"/>
			<point x="428" y="566"/>
			<point x="481" y="547"/>
			<point x="525" y="519" type="curve"/>
			<point x="544" y="656" type="line"/>
			<point x="502" y="678"/>
			<point x="440" y="698"/>
			<point x="370" y="698" type="curve" smooth="yes"/>
			<point x="210" y="698"/>
			<point x="133" y="596"/>
			<point x="133" y="482" type="curve" smooth="yes"/>
			<point x="133" y="453"/>
			<point x="139" y="428"/>
			<point x="147" y="405" type="curve"/>
			<point x="56" y="356"/>
			<point x="-2" y="278"/>
			<point x="-2" y="177" type="curve" smooth="yes"/>
			<point x="-2" y="64"/>
			<point x="70" y="-14"/>
		</contour>
		<contour>
			<point x="145" y="204" type="curve" smooth="yes"/>
			<point x="145" y="250"/>
			<point x="171" y="283"/>
			<point x="207" y="301" type="curve"/>
			<point x="311" y="136" type="line"/>
			<point x="288" y="121"/>
			<point x="264" y="113"/>
			<point x="238" y="113" type="curve" smooth="yes"/>
			<point x="180" y="113"/>
			<point x="146" y="149"/>
		</contour>
	</outline>
</glyph>
<glyph name="quotesingle" format="2">
	<unicode hex="0027"/>
	<advance width="600"/>
	<outline>
		<contour>
			<point x="273" y="468" type="line"/>
			<point x="384" y="468" type="line"/>
			<point x="455" y="750" type="line"/>
			<point x="283" y="750" type="line"/>
		</contour>
	</outline>
</glyph>
<glyph name="parenleft" format="2">
	<unicode hex="0028"/>
	<advance width="600"/>
	<outline>
		<contour>
			<point x="412" y="-168" type="curve"/>
			<point x="476" y="-32" type="line"/>
			<point x="308" y="36"/>
			<point x="275" y="164"/>
			<point x="300" y="338" type="curve" smooth="yes"/>
			<point x="324" y="511"/>
			<point x="398" y="616"/>
			<point x="577" y="661" type="curve"/>
			<point x="547" y="798" type="line"/>
			<point x="294" y="738"/>
			<point x="180" y="582"/>
			<point x="148" y="348" type="curve" smooth="yes"/>
			<point x="115" y="99"/>
			<point x="192" y="-77"/>
		</contour>
	</outline>
</glyph>
<glyph name="parenright" format="2">
	<unicode hex="0029"/>
	<advance width="600"/>
	<outline>
		<contour>
			<point x="38" y="-32" type="curve"/>
			<point x="68" y="-169" type="line"/>
			<point x="328" y="-108"/>
			<point x="436" y="54"/>
			<point x="467" y="280" type="curve" smooth="yes"/>
			<point x="500" y="526"/>
			<point x="422" y="705"/>
			<point x="203" y="798" type="curve"/>
			<point x="139" y="662" type="line"/>
			<point x="309" y="592"/>
			<point x="339" y="459"/>
			<point x="315" y="290" type="curve" smooth="yes"/>
			<point x="291" y="118"/>
			<point x="218" y="13"/>
		</contour>
	</outline>
</glyph>
<glyph name="plus" format="2">
	<unicode hex="002B"/>
	<advance width="600"/>
	<outline>
		<contour>
			<point x="265" y="531" type="line"/>
			<point x="241" y="363" type="line"/>
			<point x="77" y="363" type="line"/>
			<point x="57" y="224" type="line"/>
			<point x="222" y="224" type="line"/>
			<point x="198" y="56" type="line"/>
			<point x="342" y="56" type="line"/>
			<point x="366" y="224" type="line"/>
			<point x="531" y="224" type="line"/>
			<point x="551" y="363" type="line"/>
			<point x="385" y="363" type="line"/>
			<point x="409" y="531" type="line"/>
		</contour>
	</outline>
</glyph>
<glyph name="comma" format="2">
	<unicode hex="002C"/>
	<advance width="600"/>
	<outline>
		<contour>
			<point x="211" y="185" type="line"/>
			<point x="115" y="-175" type="line"/>
			<point x="234" y="-175" type="line"/>
			<point x="424" y="185" type="line"/>
		</contour>
	</outline>
</glyph>
<glyph name="slash" format="2">
	<unicode hex="002F"/>
	<advance width="600"/>
	<outline>
		<contour>
			<point x="456" y="792" type="line"/>
			<point x="-10" y="-163" type="line"/>
			<point x="158" y="-163" type="line"/>
			<point x="625" y="792" type="line"/>
		</contour>
	</outline>
</glyph>
<glyph name="zero" format="2">
	<unicode hex="0030"/>
	<advance width="600"/>
	<outline>
		<contour>
			<point x="282" y="-14" type="curve" smooth="yes"/>
			<point x="448" y="-14"/>
			<point x="539" y="109"/>
			<point x="567" y="304" type="curve" smooth="yes"/>
			<point x="569" y="318" type="line" smooth="yes"/>
			<point x="604" y="562"/>
			<point x="528" y="698"/>
			<point x="340" y="698" type="curve" smooth="yes"/>
			<point x="176" y="698"/>
			<point x="84" y="575"/>
			<point x="56" y="379" type="curve" smooth="yes"/>
			<point x="54" y="365" type="line" smooth="yes"/>
			<point x="19" y="122"/>
			<point x="95" y="-14"/>
		</contour>
		<contour>
			<point x="291" y="123" type="curve" smooth="yes"/>
			<point x="207" y="123"/>
			<point x="183" y="193"/>
			<point x="205" y="348" type="curve" smooth="yes"/>
			<point x="206" y="355" type="line" smooth="yes"/>
			<point x="225" y="493"/>
			<point x="262" y="561"/>
			<point x="333" y="561" type="curve" smooth="yes"/>
			<point x="418" y="561"/>
			<point x="440" y="491"/>
			<point x="418" y="338" type="curve" smooth="yes"/>
			<point x="417" y="331" type="line" smooth="yes"/>
			<point x="398" y="193"/>
			<point x="364" y="123"/>
		</contour>
		<contour>
			<point x="304" y="252" type="curve" smooth="yes"/>
			<point x="348" y="252"/>
			<point x="370" y="277"/>
			<point x="378" y="336" type="curve" smooth="yes"/>
			<point x="388" y="407"/>
			<point x="364" y="433"/>
			<point x="319" y="433" type="curve" smooth="yes"/>
			<point x="275" y="433"/>
			<point x="253" y="407"/>
			<point x="245" y="350" type="curve" smooth="yes"/>
			<point x="235" y="278"/>
			<point x="259" y="252"/>
		</contour>
	</outline>
</glyph>
<glyph name="two" format="2">
	<unicode hex="0032"/>
	<advance width="600"/>
	<outline>
		<contour>
			<point x="22" y="0" type="line"/>
			<point x="502" y="0" type="line"/>
			<point x="523" y="149" type="line"/>
			<point x="301" y="149" type="line"/>
			<point x="317" y="158" type="line" smooth="yes"/>
			<point x="455" y="238"/>
			<point x="561" y="334"/>
			<point x="561" y="494" type="curve" smooth="yes"/>
			<point x="561" y="620"/>
			<point x="483" y="697"/>
			<point x="335" y="697" type="curve" smooth="yes"/>
			<point x="242" y="697"/>
			<point x="167" y="667"/>
			<point x="110" y="629" type="curve"/>
			<point x="89" y="474" type="line"/>
			<point x="149" y="517"/>
			<point x="218" y="554"/>
			<point x="288" y="554" type="curve" smooth="yes"/>
			<point x="353" y="554"/>
			<point x="389" y="519"/>
			<point x="389" y="461" type="curve" smooth="yes"/>
			<point x="389" y="356"/>
			<point x="281" y="288"/>
			<point x="161" y="208" type="curve" smooth="yes"/>
			<point x="39" y="127" type="line"/>
		</contour>
	</outline>
</glyph>
<glyph name="six" format="2">
	<unicode hex="0036"/>
	<advance width="600"/>
	<outline>
		<contour>
			<point x="288" y="-14" type="curve" smooth="yes"/>
			<point x="454" y="-14"/>
			<point x="561" y="96"/>
			<point x="561" y="283" type="curve" smooth="yes"/>
			<point x="561" y="388"/>
			<point x="506" y="454"/>
			<point x="399" y="454" type="curve" smooth="yes"/>
			<point x="330" y="454"/>
			<point x="274" y="421"/>
			<point x="226" y="350" type="curve"/>
			<point x="251" y="496"/>
			<point x="291" y="562"/>
			<point x="397" y="562" type="curve" smooth="yes"/>
			<point x="469" y="562"/>
			<point x="534" y="538"/>
			<point x="579" y="510" type="curve"/>
			<point x="598" y="645" type="line"/>
			<point x="556" y="672"/>
			<point x="477" y="698"/>
			<point x="377" y="698" type="curve" smooth="yes"/>
			<point x="154" y="698"/>
			<point x="76" y="548"/>
			<point x="49" y="358" type="curve" smooth="yes"/>
			<point x="47" y="344" type="line" smooth="yes"/>
			<point x="15" y="123"/>
			<point x="67" y="-14"/>
		</contour>
		<contour>
			<point x="294" y="118" type="curve" smooth="yes"/>
			<point x="241" y="118"/>
			<point x="210" y="149"/>
			<point x="210" y="209" type="curve" smooth="yes"/>
			<point x="210" y="291"/>
			<point x="247" y="338"/>
			<point x="308" y="338" type="curve" smooth="yes"/>
			<point x="361" y="338"/>
			<point x="390" y="311"/>
			<point x="390" y="251" type="curve" smooth="yes"/>
			<point x="390" y="168"/>
			<point x="355" y="118"/>
		</contour>
	</outline>
</glyph>
<glyph name="seven" format="2">
	<unicode hex="0037"/>
	<advance width="600"/>
	<outline>
		<contour>
			<point x="90" y="0" type="line"/>
			<point x="279" y="0" type="line"/>
			<point x="593" y="520" type="line"/>
			<point x="616" y="684" type="line"/>
			<point x="105" y="684" type="line"/>
			<point x="69" y="435" type="line"/>
			<point x="219" y="435" type="line"/>
			<point x="237" y="557" type="line"/>
			<point x="434" y="557" type="line"/>
		</contour>
	</outline>
</glyph>
<glyph name="less" format="2">
	<unicode hex="003C"/>
	<advance width="600"/>
	<outline>
		<contour>
			<point x="502" y="9" type="line"/>
			<point x="523" y="163" type="line"/>
			<point x="202" y="290" type="line"/>
			<point x="559" y="416" type="line"/>
			<point x="582" y="578" type="line"/>
			<point x="80" y="384" type="line"/>
			<point x="54" y="201" type="line"/>
		</contour>
	</outline>
</glyph>
<glyph name="greater" format="2">
	<unicode hex="003E"/>
	<advance width="600"/>
	<outline>
		<contour>
			<point x="27" y="9" type="line"/>
			<point x="529" y="201" type="line"/>
			<point x="555" y="385" type="line"/>
			<point x="107" y="578" type="line"/>
			<point x="86" y="424" type="line"/>
			<point x="406" y="296" type="line"/>
			<point x="50" y="172" type="line"/>
		</contour>
	</outline>
</glyph>
<glyph name="question" format="2">
	<unicode hex="003F"/>
	<advance width="600"/>
	<outline>
		<contour>
			<point x="198" y="241" type="curve"/>
			<point x="346" y="241" type="line"/>
			<point x="348" y="261" type="line" smooth="yes"/>
			<point x="358" y="343"/>
			<point x="557" y="344"/>
			<point x="557" y="527" type="curve" smooth="yes"/>
			<point x="557" y="633"/>
			<point x="477" y="698"/>
			<point x="338" y="698" type="curve" smooth="yes"/>
			<point x="253" y="698"/>
			<point x="193" y="677"/>
			<point x="146" y="651" type="curve"/>
			<point x="126" y="505" type="line"/>
			<point x="176" y="536"/>
			<point x="235" y="555"/>
			<point x="295" y="555" type="curve" smooth="yes"/>
			<point x="356" y="555"/>
			<point x="388" y="534"/>
			<point x="388" y="497" type="curve" smooth="yes"/>
			<point x="388" y="417"/>
			<point x="199" y="406"/>
			<point x="194" y="274" type="curve" smooth="yes"/>
			<point x="193" y="261"/>
			<point x="195" y="252"/>
		</contour>
		<contour>
			<point x="242" y="-11" type="curve" smooth="yes"/>
			<point x="309" y="-11"/>
			<point x="343" y="14"/>
			<point x="352" y="71" type="curve" smooth="yes"/>
			<point x="363" y="144"/>
			<point x="326" y="173"/>
			<point x="257" y="173" type="curve" smooth="yes"/>
			<point x="190" y="173"/>
			<point x="156" y="148"/>
			<point x="148" y="90" type="curve" smooth="yes"/>
			<point x="136" y="18"/>
			<point x="173" y="-11"/>
		</contour>
	</outline>
</glyph>
<glyph name="E" format="2">
	<unicode hex="0045"/>
	<advance width="600"/>
	<outline>
		<contour>
			<point x="127" y="684" type="line"/>
			<point x="31" y="0" type="line"/>
			<point x="514" y="0" type="line"/>
			<point x="534" y="138" type="line"/>
			<point x="219" y="138" type="line"/>
			<point x="238" y="274" type="line"/>
			<point x="506" y="274" type="line"/>
			<point x="526" y="410" type="line"/>
			<point x="258" y="410" type="line"/>
			<point x="277" y="547" type="line"/>
			<point x="588" y="547" type="line"/>
			<point x="607" y="684" type="line"/>
		</contour>
	</outline>
	<anchor name="ogonek" x="514" y="0"/>
	<anchor name="bottom" x="315" y="0"/>
	<anchor name="top" x="366" y="684"/>
</glyph>
<glyph name="F" format="2">
	<unicode hex="0046"/>
	<advance width="600"/>
	<outline>
		<contour>
			<point x="37" y="0" type="line"/>
			<point x="207" y="0" type="line"/>
			<point x="243" y="259" type="line"/>
			<point x="511" y="259" type="line"/>
			<point x="530" y="395" type="line"/>
			<point x="262" y="395" type="line"/>
			<point x="283" y="547" type="line"/>
			<point x="596" y="547" type="line"/>
			<point x="615" y="684" type="line"/>
			<point x="133" y="684" type="line"/>
		</contour>
	</outline>
	<anchor name="ogonek" x="535" y="0"/>
	<anchor name="bottom" x="294" y="0"/>
	<anchor name="top" x="379" y="684"/>
</glyph>
<glyph name="H" format="2">
	<unicode hex="0048"/>
	<advance width="600"/>
	<outline>
		<contour>
			<point x="14" y="0" type="line"/>
			<point x="183" y="0" type="line"/>
			<point x="222" y="278" type="line"/>
			<point x="382" y="278" type="line"/>
			<point x="343" y="0" type="line"/>
			<point x="512" y="0" type="line"/>
			<point x="608" y="684" type="line"/>
			<point x="439" y="684" type="line"/>
			<point x="402" y="418" type="line"/>
			<point x="242" y="418" type="line"/>
			<point x="279" y="684" type="line"/>
			<point x="110" y="684" type="line"/>
		</contour>
	</outline>
	<anchor name="center" x="338" y="539"/>
	<anchor name="bottom" x="303" y="0"/>
	<anchor name="top" x="359" y="684"/>
</glyph>
<glyph name="I" format="2">
	<unicode hex="0049"/>
	<advance width="600"/>
	<outline>
		<contour>
			<point x="28" y="0" type="line"/>
			<point x="497" y="0" type="line"/>
			<point x="516" y="132" type="line"/>
			<point x="366" y="132" type="line"/>
			<point x="425" y="552" type="line"/>
			<point x="575" y="552" type="line"/>
			<point x="594" y="684" type="line"/>
			<point x="124" y="684" type="line"/>
			<point x="105" y="552" type="line"/>
			<point x="256" y="552" type="line"/>
			<point x="196" y="132" type="line"/>
			<point x="47" y="132" type="line"/>
		</contour>
	</outline>
	<anchor name="ogonek" x="497" y="0"/>
	<anchor name="bottom" x="12088" y="0"/>
	<anchor name="top" x="359" y="684"/>
</glyph>
<glyph name="K" format="2">
	<unicode hex="004B"/>
	<advance width="600"/>
	<outline>
		<contour>
			<point x="13" y="0" type="line"/>
			<point x="182" y="0" type="line"/>
			<point x="208" y="180" type="line"/>
			<point x="286" y="282" type="line"/>
			<point x="371" y="0" type="line"/>
			<point x="557" y="0" type="line"/>
			<point x="435" y="387" type="line"/>
			<point x="640" y="684" type="line"/>
			<point x="444" y="684" type="line"/>
			<point x="235" y="368" type="line"/>
			<point x="278" y="684" type="line"/>
			<point x="108" y="684" type="line"/>
		</contour>
	</outline>
	<anchor name="top" x="372" y="684"/>
	<anchor name="bottom" x="276" y="0"/>
</glyph>
<glyph name="L" format="2">
	<unicode hex="004C"/>
	<advance width="600"/>
	<outline>
		<contour>
			<point x="42" y="0" type="line"/>
			<point x="522" y="0" type="line"/>
			<point x="543" y="155" type="line"/>
			<point x="234" y="155" type="line"/>
			<point x="307" y="684" type="line"/>
			<point x="138" y="684" type="line"/>
		</contour>
	</outline>
	<anchor name="center" x="180" y="345"/>
	<anchor name="caron" x="402" y="684"/>
	<anchor name="top" x="223" y="684"/>
	<anchor name="bottom" x="282" y="0"/>
</glyph>
<glyph name="N" format="2">
	<unicode hex="004E"/>
	<advance width="600"/>
	<outline>
		<contour>
			<point x="13" y="0" type="line"/>
			<point x="159" y="0" type="line"/>
			<point x="191" y="224" type="line" smooth="yes"/>
			<point x="202" y="309"/>
			<point x="202" y="394"/>
			<point x="202" y="493" type="curve"/>
			<point x="212" y="493" type="line"/>
			<point x="321" y="0" type="line"/>
			<point x="513" y="0" type="line"/>
			<point x="609" y="684" type="line"/>
			<point x="463" y="684" type="line"/>
			<point x="431" y="460" type="line" smooth="yes"/>
			<point x="417" y="358"/>
			<point x="417" y="290"/>
			<point x="419" y="191" type="curve"/>
			<point x="409" y="191" type="line"/>
			<point x="301" y="684" type="line"/>
			<point x="109" y="684" type="line"/>
		</contour>
	</outline>
	<anchor name="top" x="385" y="684"/>
	<anchor name="bottom" x="239" y="0"/>
</glyph>
<glyph name="Q" format="2">
	<unicode hex="0051"/>
	<advance width="600"/>
	<outline>
		<contour>
			<point x="305" y="-80" type="curve" smooth="yes"/>
			<point x="426" y="-126" type="line"/>
			<point x="510" y="-7" type="line"/>
			<point x="367" y="43" type="line"/>
			<point x="472" y="67"/>
			<point x="545" y="145"/>
			<point x="571" y="328" type="curve" smooth="yes"/>
			<point x="573" y="342" type="line" smooth="yes"/>
			<point x="603" y="557"/>
			<point x="537" y="698"/>
			<point x="345" y="698" type="curve" smooth="yes"/>
			<point x="176" y="698"/>
			<point x="83" y="568"/>
			<point x="55" y="374" type="curve" smooth="yes"/>
			<point x="53" y="360" type="line" smooth="yes"/>
			<point x="18" y="119"/>
			<point x="94" y="3"/>
		</contour>
		<contour>
			<point x="287" y="123" type="curve" smooth="yes"/>
			<point x="222" y="123"/>
			<point x="197" y="181"/>
			<point x="221" y="348" type="curve" smooth="yes"/>
			<point x="222" y="355" type="line" smooth="yes"/>
			<point x="244" y="511"/>
			<point x="277" y="564"/>
			<point x="335" y="564" type="curve" smooth="yes"/>
			<point x="399" y="564"/>
			<point x="425" y="505"/>
			<point x="401" y="338" type="curve" smooth="yes"/>
			<point x="400" y="331" type="line" smooth="yes"/>
			<point x="378" y="175"/>
			<point x="345" y="123"/>
		</contour>
	</outline>
	<anchor name="top" x="336" y="684"/>
	<anchor name="bottom" x="247" y="2"/>
</glyph>
<glyph name="S" format="2">
	<unicode hex="0053"/>
	<advance width="600"/>
	<outline>
		<contour>
			<point x="284" y="-13" type="curve" smooth="yes"/>
			<point x="454" y="-13"/>
			<point x="553" y="83"/>
			<point x="553" y="232" type="curve" smooth="yes"/>
			<point x="553" y="355"/>
			<point x="482" y="389"/>
			<point x="345" y="422" type="curve" smooth="yes"/>
			<point x="269" y="440"/>
			<point x="242" y="453"/>
			<point x="242" y="493" type="curve" smooth="yes"/>
			<point x="242" y="538"/>
			<point x="274" y="563"/>
			<point x="340" y="563" type="curve" smooth="yes"/>
			<point x="413" y="563"/>
			<point x="514" y="535"/>
			<point x="571" y="493" type="curve"/>
			<point x="592" y="635" type="line"/>
			<point x="545" y="665"/>
			<point x="448" y="698"/>
			<point x="341" y="698" type="curve" smooth="yes"/>
			<point x="166" y="698"/>
			<point x="73" y="602"/>
			<point x="73" y="461" type="curve" smooth="yes"/>
			<point x="73" y="324"/>
			<point x="163" y="292"/>
			<point x="285" y="264" type="curve" smooth="yes"/>
			<point x="349" y="250"/>
			<point x="384" y="243"/>
			<point x="384" y="197" type="curve" smooth="yes"/>
			<point x="384" y="150"/>
			<point x="348" y="124"/>
			<point x="285" y="124" type="curve" smooth="yes"/>
			<point x="206" y="124"/>
			<point x="114" y="157"/>
			<point x="51" y="208" type="curve"/>
			<point x="30" y="63" type="line"/>
			<point x="91" y="18"/>
			<point x="184" y="-13"/>
		</contour>
	</outline>
	<anchor name="top" x="364" y="684"/>
	<anchor name="bottom" x="278" y="0"/>
</glyph>
<glyph name="W" format="2">
	<unicode hex="0057"/>
	<advance width="600"/>
	<outline>
		<contour>
			<point x="31" y="0" type="line"/>
			<point x="218" y="0" type="line"/>
			<point x="307" y="355" type="line"/>
			<point x="316" y="355" type="line"/>
			<point x="306" y="0" type="line"/>
			<point x="494" y="0" type="line"/>
			<point x="641" y="684" type="line"/>
			<point x="497" y="685" type="line"/>
			<point x="404" y="165" type="line"/>
			<point x="395" y="165" type="line"/>
			<point x="405" y="547" type="line"/>
			<point x="271" y="547" type="line"/>
			<point x="172" y="165" type="line"/>
			<point x="163" y="165" type="line"/>
			<point x="217" y="684" type="line"/>
			<point x="77" y="684" type="line"/>
		</contour>
	</outline>
	<anchor name="top" x="358" y="684"/>
</glyph>
<glyph name="X" format="2">
	<unicode hex="0058"/>
	<advance width="600"/>
	<outline>
		<contour>
			<point x="-29" y="0" type="line"/>
			<point x="163" y="0" type="line"/>
			<point x="297" y="230" type="line"/>
			<point x="371" y="0" type="line"/>
			<point x="555" y="0" type="line"/>
			<point x="423" y="358" type="line"/>
			<point x="638" y="684" type="line"/>
			<point x="447" y="684" type="line"/>
			<point x="328" y="488" type="line"/>
			<point x="262" y="684" type="line"/>
			<point x="80" y="684" type="line"/>
			<point x="203" y="361" type="line"/>
		</contour>
	</outline>
	<anchor name="top" x="378" y="684"/>
	<anchor name="bottom" x="287" y="0"/>
</glyph>
<glyph name="Z" format="2">
	<unicode hex="005A"/>
	<advance width="600"/>
	<outline>
		<contour>
			<point x="6" y="0" type="line"/>
			<point x="519" y="0" type="line"/>
			<point x="538" y="138" type="line"/>
			<point x="241" y="138" type="line"/>
			<point x="593" y="535" type="line"/>
			<point x="615" y="684" type="line"/>
			<point x="116" y="684" type="line"/>
			<point x="96" y="547" type="line"/>
			<point x="401" y="547" type="line"/>
			<point x="25" y="134" type="line"/>
		</contour>
	</outline>
	<anchor name="top" x="365" y="684"/>
	<anchor name="bottom" x="262" y="0"/>
</glyph>
<glyph name="b" format="2">
	<unicode hex="0062"/>
	<advance width="600"/>
	<outline>
		<contour>
			<point x="407" y="537" type="curve" smooth="yes"/>
			<point x="344" y="537"/>
			<point x="292" y="502"/>
			<point x="248" y="430" type="curve"/>
			<point x="293" y="750" type="line"/>
			<point x="126" y="750" type="line"/>
			<point x="21" y="0" type="line"/>
			<point x="235" y="0" type="line" smooth="yes"/>
			<point x="422" y="0"/>
			<point x="533" y="95"/>
			<point x="557" y="259" type="curve" smooth="yes"/>
			<point x="559" y="273" type="line" smooth="yes"/>
			<point x="582" y="434"/>
			<point x="524" y="537"/>
		</contour>
		<contour>
			<point x="390" y="271" type="curve" smooth="yes"/>
			<point x="389" y="264" type="line"/>
			<point x="375" y="168"/>
			<point x="333" y="127"/>
			<point x="248" y="127" type="curve" smooth="yes"/>
			<point x="206" y="127" type="line"/>
			<point x="231" y="308" type="line" smooth="yes"/>
			<point x="239" y="373"/>
			<point x="272" y="407"/>
			<point x="322" y="407" type="curve" smooth="yes"/>
			<point x="378" y="407"/>
			<point x="402" y="357"/>
		</contour>
	</outline>
</glyph>
<glyph name="d" format="2">
	<unicode hex="0064"/>
	<advance width="600"/>
	<outline>
		<contour>
			<point x="193" y="-14" type="curve" smooth="yes"/>
			<point x="259" y="-14"/>
			<point x="316" y="25"/>
			<point x="361" y="105" type="curve"/>
			<point x="346" y="0" type="line"/>
			<point x="506" y="0" type="line"/>
			<point x="611" y="750" type="line"/>
			<point x="444" y="750" type="line"/>
			<point x="412" y="523" type="line"/>
			<point x="364" y="523" type="line" smooth="yes"/>
			<point x="179" y="523"/>
			<point x="67" y="423"/>
			<point x="43" y="259" type="curve" smooth="yes"/>
			<point x="41" y="245" type="line" smooth="yes"/>
			<point x="18" y="85"/>
			<point x="75" y="-14"/>
		</contour>
		<contour>
			<point x="210" y="252" type="curve" smooth="yes"/>
			<point x="211" y="259" type="line"/>
			<point x="225" y="355"/>
			<point x="270" y="395"/>
			<point x="352" y="395" type="curve" smooth="yes"/>
			<point x="394" y="395" type="line"/>
			<point x="369" y="214" type="line" smooth="yes"/>
			<point x="361" y="150"/>
			<point x="328" y="116"/>
			<point x="279" y="116" type="curve" smooth="yes"/>
			<point x="222" y="116"/>
			<point x="198" y="166"/>
		</contour>
	</outline>
	<anchor name="caron" x="678" y="756"/>
	<anchor name="ogonek" x="550" y="2"/>
	<anchor name="top" x="411" y="550"/>
	<anchor name="center" x="465" y="632"/>
</glyph>
<glyph name="e" format="2">
	<unicode hex="0065"/>
	<advance width="600"/>
	<outline>
		<contour>
			<point x="314" y="-14" type="curve" smooth="yes"/>
			<point x="396" y="-14"/>
			<point x="458" y="3"/>
			<point x="495" y="21" type="curve"/>
			<point x="512" y="146" type="line"/>
			<point x="475" y="132"/>
			<point x="418" y="118"/>
			<point x="362" y="118" type="curve" smooth="yes"/>
			<point x="261" y="118"/>
			<point x="216" y="153"/>
			<point x="210" y="219" type="curve"/>
			<point x="548" y="219" type="line"/>
			<point x="554" y="265" type="line" smooth="yes"/>
			<point x="576" y="432"/>
			<point x="493" y="537"/>
			<point x="328" y="537" type="curve" smooth="yes"/>
			<point x="185" y="537"/>
			<point x="74" y="447"/>
			<point x="52" y="297" type="curve" smooth="yes"/>
			<point x="50" y="283" type="line" smooth="yes"/>
			<point x="26" y="109"/>
			<point x="111" y="-14"/>
		</contour>
		<contour>
			<point x="320" y="422" type="curve" smooth="yes"/>
			<point x="375" y="422"/>
			<point x="406" y="387"/>
			<point x="399" y="313" type="curve"/>
			<point x="214" y="313" type="line"/>
			<point x="227" y="381"/>
			<point x="261" y="422"/>
		</contour>
	</outline>
	<anchor name="ogonek" x="436" y="0"/>
	<anchor name="top" x="339" y="529"/>
</glyph>
<glyph name="f" format="2">
	<unicode hex="0066"/>
	<advance width="600"/>
	<outline>
		<contour>
			<point x="102" y="-204" type="curve" smooth="yes"/>
			<point x="227" y="-204"/>
			<point x="312" y="-150"/>
			<point x="332" y="-11" type="curve" smooth="yes"/>
			<point x="389" y="394" type="line"/>
			<point x="574" y="394" type="line"/>
			<point x="592" y="523" type="line"/>
			<point x="407" y="523" type="line"/>
			<point x="414" y="572" type="line" smooth="yes"/>
			<point x="420" y="617"/>
			<point x="454" y="637"/>
			<point x="507" y="637" type="curve" smooth="yes"/>
			<point x="541" y="637"/>
			<point x="579" y="630"/>
			<point x="602" y="621" type="curve"/>
			<point x="619" y="736" type="line"/>
			<point x="591" y="747"/>
			<point x="534" y="760"/>
			<point x="478" y="760" type="curve" smooth="yes"/>
			<point x="365" y="760"/>
			<point x="265" y="719"/>
			<point x="248" y="589" type="curve" smooth="yes"/>
			<point x="240" y="523" type="line"/>
			<point x="95" y="523" type="line"/>
			<point x="76" y="394" type="line"/>
			<point x="222" y="394" type="line"/>
			<point x="167" y="6" type="line" smooth="yes"/>
			<point x="159" y="-49"/>
			<point x="135" y="-76"/>
			<point x="75" y="-76" type="curve" smooth="yes"/>
			<point x="37" y="-76"/>
			<point x="3" y="-67"/>
			<point x="-24" y="-55" type="curve"/>
			<point x="-41" y="-174" type="line"/>
			<point x="-6" y="-192"/>
			<point x="48" y="-204"/>
		</contour>
	</outline>
</glyph>
<glyph name="i" format="2">
	<unicode hex="0069"/>
	<advance width="600"/>
	<outline>
		<contour>
			<point x="374" y="596" type="curve" smooth="yes"/>
			<point x="442" y="596"/>
			<point x="472" y="620"/>
			<point x="478" y="673" type="curve" smooth="yes"/>
			<point x="485" y="730"/>
			<point x="458" y="756"/>
			<point x="385" y="756" type="curve" smooth="yes"/>
			<point x="317" y="756"/>
			<point x="287" y="732"/>
			<point x="281" y="679" type="curve" smooth="yes"/>
			<point x="274" y="622"/>
			<point x="301" y="596"/>
		</contour>
		<contour>
			<point x="31" y="0" type="line"/>
			<point x="524" y="0" type="line"/>
			<point x="542" y="129" type="line"/>
			<point x="385" y="129" type="line"/>
			<point x="441" y="523" type="line"/>
			<point x="107" y="523" type="line"/>
			<point x="88" y="394" type="line"/>
			<point x="256" y="394" type="line"/>
			<point x="218" y="129" type="line"/>
			<point x="50" y="129" type="line"/>
		</contour>
	</outline>
	<anchor name="ogonek" x="524" y="0"/>
</glyph>
<glyph name="l" format="2">
	<unicode hex="006C"/>
	<advance width="600"/>
	<outline>
		<contour>
			<point x="23" y="0" type="line"/>
			<point x="515" y="0" type="line"/>
			<point x="533" y="129" type="line"/>
			<point x="377" y="129" type="line"/>
			<point x="465" y="750" type="line"/>
			<point x="131" y="750" type="line"/>
			<point x="112" y="621" type="line"/>
			<point x="280" y="621" type="line"/>
			<point x="209" y="129" type="line"/>
			<point x="42" y="129" type="line"/>
		</contour>
	</outline>
	<anchor name="center" x="326" y="370"/>
	<anchor name="caron" x="541" y="750"/>
	<anchor name="top" x="380" y="735"/>
	<anchor name="bottom" x="275" y="0"/>
</glyph>
<glyph name="q" format="2">
	<unicode hex="0071"/>
	<advance width="600"/>
	<outline>
		<contour>
			<point x="312" y="-194" type="line"/>
			<point x="479" y="-194" type="line"/>
			<point x="580" y="524" type="line"/>
			<point x="364" y="523" type="line" smooth="yes"/>
			<point x="179" y="522"/>
			<point x="67" y="423"/>
			<point x="43" y="259" type="curve" smooth="yes"/>
			<point x="41" y="245" type="line" smooth="yes"/>
			<point x="18" y="85"/>
			<point x="76" y="-14"/>
			<point x="193" y="-14" type="curve" smooth="yes"/>
			<point x="259" y="-14"/>
			<point x="309" y="21"/>
			<point x="352" y="95" type="curve"/>
		</contour>
		<contour>
			<point x="279" y="116" type="curve" smooth="yes"/>
			<point x="222" y="116"/>
			<point x="198" y="166"/>
			<point x="210" y="252" type="curve" smooth="yes"/>
			<point x="211" y="259" type="line" smooth="yes"/>
			<point x="225" y="355"/>
			<point x="270" y="395"/>
			<point x="352" y="395" type="curve" smooth="yes"/>
			<point x="394" y="395" type="line"/>
			<point x="369" y="214" type="line" smooth="yes"/>
			<point x="360" y="150"/>
			<point x="328" y="116"/>
		</contour>
	</outline>
</glyph>
<glyph name="t" format="2">
	<unicode hex="0074"/>
	<advance width="600"/>
	<outline>
		<contour>
			<point x="351" y="-12" type="curve" smooth="yes"/>
			<point x="411" y="-12"/>
			<point x="458" y="-2"/>
			<point x="485" y="12" type="curve"/>
			<point x="501" y="132" type="line"/>
			<point x="478" y="124"/>
			<point x="447" y="119"/>
			<point x="417" y="119" type="curve" smooth="yes"/>
			<point x="352" y="119"/>
			<point x="323" y="138"/>
			<point x="333" y="211" type="curve" smooth="yes"/>
			<point x="359" y="394" type="line"/>
			<point x="545" y="394" type="line"/>
			<point x="563" y="523" type="line"/>
			<point x="379" y="523" type="line"/>
			<point x="403" y="692" type="line"/>
			<point x="251" y="692" type="line"/>
			<point x="230" y="589" type="line" smooth="yes"/>
			<point x="217" y="527"/>
			<point x="188" y="517"/>
			<point x="143" y="517" type="curve" smooth="yes"/>
			<point x="77" y="517" type="line"/>
			<point x="60" y="394" type="line"/>
			<point x="192" y="394" type="line"/>
			<point x="164" y="192" type="line" smooth="yes"/>
			<point x="144" y="46"/>
			<point x="209" y="-12"/>
		</contour>
	</outline>
	<anchor name="caron" x="512" y="780"/>
	<anchor name="bottom" x="315" y="0"/>
	<anchor name="center" x="276" y="276"/>
</glyph>
<glyph name="u" format="2">
	<unicode hex="0075"/>
	<advance width="600"/>
	<outline>
		<contour>
			<point x="577" y="523" type="line"/>
			<point x="410" y="523" type="line"/>
			<point x="365" y="209" type="line" smooth="yes"/>
			<point x="362" y="184"/>
			<point x="353" y="163"/>
			<point x="341" y="148" type="curve" smooth="yes"/>
			<point x="326" y="130"/>
			<point x="305" y="120"/>
			<point x="279" y="120" type="curve" smooth="yes"/>
			<point x="226" y="120"/>
			<point x="208" y="151"/>
			<point x="217" y="212" type="curve" smooth="yes"/>
			<point x="261" y="523" type="line"/>
			<point x="94" y="523" type="line"/>
			<point x="46" y="186" type="line" smooth="yes"/>
			<point x="29" y="62"/>
			<point x="68" y="-14"/>
			<point x="180" y="-14" type="curve" smooth="yes"/>
			<point x="251" y="-14"/>
			<point x="315" y="30"/>
			<point x="359" y="104" type="curve"/>
			<point x="344" y="0" type="line"/>
			<point x="503" y="0" type="line"/>
		</contour>
	</outline>
	<anchor name="ogonek" x="503" y="0"/>
	<anchor name="bottom" x="275" y="0"/>
	<anchor name="top" x="336" y="523"/>
</glyph>
<glyph name="v" format="2">
	<unicode hex="0076"/>
	<advance width="600"/>
	<outline>
		<contour>
			<point x="250" y="-14" type="curve" smooth="yes"/>
			<point x="441" y="-14"/>
			<point x="539" y="114"/>
			<point x="562" y="314" type="curve" smooth="yes"/>
			<point x="572" y="399"/>
			<point x="566" y="470"/>
			<point x="552" y="521" type="curve"/>
			<point x="394" y="523" type="line"/>
			<point x="405" y="472"/>
			<point x="411" y="414"/>
			<point x="403" y="340" type="curve" smooth="yes"/>
			<point x="388" y="198"/>
			<point x="349" y="114"/>
			<point x="280" y="114" type="curve" smooth="yes"/>
			<point x="243" y="114"/>
			<point x="226" y="133"/>
			<point x="232" y="179" type="curve" smooth="yes"/>
			<point x="278" y="523" type="line"/>
			<point x="49" y="523" type="line"/>
			<point x="31" y="394" type="line"/>
			<point x="102" y="394" type="line"/>
			<point x="72" y="172" type="line" smooth="yes"/>
			<point x="55" y="53"/>
			<point x="115" y="-14"/>
		</contour>
	</outline>
</glyph>
<glyph name="w" format="2">
	<unicode hex="0077"/>
	<advance width="600"/>
	<outline>
		<contour>
			<point x="96" y="-14" type="curve" smooth="yes"/>
			<point x="153" y="-14"/>
			<point x="199" y="36"/>
			<point x="225" y="95" type="curve"/>
			<point x="239" y="19"/>
			<point x="280" y="-13"/>
			<point x="360" y="-13" type="curve" smooth="yes"/>
			<point x="485" y="-13"/>
			<point x="557" y="90"/>
			<point x="581" y="278" type="curve" smooth="yes"/>
			<point x="592" y="357"/>
			<point x="597" y="443"/>
			<point x="591" y="523" type="curve"/>
			<point x="462" y="523" type="line"/>
			<point x="465" y="447"/>
			<point x="460" y="360"/>
			<point x="450" y="287" type="curve" smooth="yes"/>
			<point x="433" y="163"/>
			<point x="418" y="116"/>
			<point x="378" y="116" type="curve" smooth="yes"/>
			<point x="351" y="116"/>
			<point x="344" y="139"/>
			<point x="348" y="169" type="curve" smooth="yes"/>
			<point x="399" y="523" type="line"/>
			<point x="284" y="523" type="line"/>
			<point x="234" y="175" type="line" smooth="yes"/>
			<point x="229" y="144"/>
			<point x="215" y="116"/>
			<point x="184" y="116" type="curve" smooth="yes"/>
			<point x="157" y="116"/>
			<point x="146" y="137"/>
			<point x="152" y="176" type="curve" smooth="yes"/>
			<point x="202" y="523" type="line"/>
			<point x="70" y="523" type="line"/>
			<point x="12" y="115" type="line" smooth="yes"/>
			<point x="2" y="39"/>
			<point x="23" y="-14"/>
		</contour>
	</outline>
	<anchor name="top" x="342" y="523"/>
</glyph>
<glyph name="bar" format="2">
	<unicode hex="007C"/>
	<advance width="600"/>
	<outline>
		<contour>
			<point x="297" y="792" type="line"/>
			<point x="163" y="-163" type="line"/>
			<point x="318" y="-163" type="line"/>
			<point x="452" y="792" type="line"/>
		</contour>
	</outline>
</glyph>
<glyph name="asciitilde" format="2">
	<unicode hex="007E"/>
	<advance width="600"/>
	<outline>
		<contour>
			<point x="28" y="175" type="curve"/>
			<point x="152" y="175" type="line"/>
			<point x="159" y="238"/>
			<point x="175" y="281"/>
			<point x="215" y="281" type="curve" smooth="yes"/>
			<point x="273" y="281"/>
			<point x="304" y="171"/>
			<point x="401" y="171" type="curve" smooth="yes"/>
			<point x="496" y="171"/>
			<point x="557" y="238"/>
			<point x="582" y="421" type="curve"/>
			<point x="458" y="420" type="line"/>
			<point x="450" y="356"/>
			<point x="434" y="322"/>
			<point x="399" y="322" type="curve" smooth="yes"/>
			<point x="343" y="322"/>
			<point x="299" y="428"/>
			<point x="203" y="428" type="curve" smooth="yes"/>
			<point x="103" y="428"/>
			<point x="52" y="345"/>
		</contour>
	</outline>
</glyph>
<glyph name="exclamdown" format="2">
	<unicode hex="00A1"/>
	<advance width="600"/>
	<outline>
		<contour>
			<point x="332" y="535" type="curve" smooth="yes"/>
			<point x="265" y="535"/>
			<point x="232" y="510"/>
			<point x="223" y="451" type="curve" smooth="yes"/>
			<point x="212" y="379"/>
			<point x="249" y="350"/>
			<point x="319" y="350" type="curve" smooth="yes"/>
			<point x="385" y="350"/>
			<point x="419" y="375"/>
			<point x="427" y="433" type="curve" smooth="yes"/>
			<point x="438" y="506"/>
			<point x="401" y="535"/>
		</contour>
		<contour>
			<point x="363" y="282" type="line"/>
			<point x="243" y="282" type="line"/>
			<point x="167" y="-42" type="line"/>
			<point x="149" y="-161" type="line"/>
			<point x="332" y="-161" type="line"/>
			<point x="349" y="-42" type="line"/>
		</contour>
	</outline>
</glyph>
<glyph name="yen" format="2">
	<unicode hex="00A5"/>
	<advance width="600"/>
	<outline>
		<contour>
			<point x="40" y="143" type="line"/>
			<point x="194" y="143" type="line"/>
			<point x="173" y="0" type="line"/>
			<point x="345" y="0" type="line"/>
			<point x="365" y="143" type="line"/>
			<point x="519" y="143" type="line"/>
			<point x="531" y="237" type="line"/>
			<point x="379" y="237" type="line"/>
			<point x="411" y="290" type="line"/>
			<point x="539" y="290" type="line"/>
			<point x="551" y="383" type="line"/>
			<point x="468" y="383" type="line"/>
			<point x="651" y="684" type="line"/>
			<point x="468" y="684" type="line"/>
			<point x="322" y="422" type="line"/>
			<point x="250" y="684" type="line"/>
			<point x="67" y="684" type="line"/>
			<point x="161" y="383" type="line"/>
			<point x="73" y="383" type="line"/>
			<point x="60" y="290" type="line"/>
			<point x="189" y="290" type="line"/>
			<point x="206" y="237" type="line"/>
			<point x="53" y="237" type="line"/>
		</contour>
	</outline>
</glyph>
<glyph name="registered" format="2">
	<unicode hex="00AE"/>
	<advance width="600"/>
	<outline>
		<contour>
			<point x="302" y="102" type="curve" smooth="yes"/>
			<point x="440" y="102"/>
			<point x="554" y="184"/>
			<point x="576" y="338" type="curve" smooth="yes"/>
			<point x="578" y="352" type="line" smooth="yes"/>
			<point x="605" y="541"/>
			<point x="496" y="657"/>
			<point x="331" y="657" type="curve" smooth="yes"/>
			<point x="193" y="657"/>
			<point x="79" y="576"/>
			<point x="57" y="423" type="curve" smooth="yes"/>
			<point x="55" y="409" type="line" smooth="yes"/>
			<point x="28" y="219"/>
			<point x="139" y="102"/>
		</contour>
		<contour>
			<point x="307" y="170" type="curve" smooth="yes"/>
			<point x="176" y="170"/>
			<point x="105" y="259"/>
			<point x="126" y="408" type="curve" smooth="yes"/>
			<point x="127" y="415" type="line" smooth="yes"/>
			<point x="143" y="528"/>
			<point x="215" y="589"/>
			<point x="326" y="589" type="curve" smooth="yes"/>
			<point x="458" y="589"/>
			<point x="528" y="501"/>
			<point x="507" y="353" type="curve" smooth="yes"/>
			<point x="506" y="346" type="line" smooth="yes"/>
			<point x="490" y="232"/>
			<point x="418" y="170"/>
		</contour>
		<contour>
			<point x="196" y="251" type="line"/>
			<point x="269" y="251" type="line"/>
			<point x="281" y="338" type="line"/>
			<point x="300" y="338" type="line" smooth="yes"/>
			<point x="315" y="338"/>
			<point x="326" y="334"/>
			<point x="331" y="314" type="curve" smooth="yes"/>
			<point x="345" y="251" type="line"/>
			<point x="422" y="251" type="line"/>
			<point x="402" y="331" type="line" smooth="yes"/>
			<point x="397" y="353"/>
			<point x="384" y="362"/>
			<point x="366" y="365" type="curve"/>
			<point x="411" y="373"/>
			<point x="438" y="396"/>
			<point x="438" y="440" type="curve" smooth="yes"/>
			<point x="438" y="486"/>
			<point x="404" y="513"/>
			<point x="342" y="513" type="curve" smooth="yes"/>
			<point x="232" y="513" type="line"/>
		</contour>
		<contour>
			<point x="326" y="459" type="line" smooth="yes"/>
			<point x="351" y="459"/>
			<point x="364" y="449"/>
			<point x="364" y="430" type="curve" smooth="yes"/>
			<point x="364" y="406"/>
			<point x="348" y="392"/>
			<point x="321" y="392" type="curve" smooth="yes"/>
			<point x="287" y="392" type="line"/>
			<point x="297" y="459" type="line"/>
		</contour>
	</outline>
</glyph>
<glyph name="macron" format="2">
	<unicode hex="00AF"/>
	<advance width="600"/>
	<outline>
		<contour>
			<point x="188" y="618" type="line"/>
			<point x="511" y="618" type="line"/>
			<point x="525" y="715" type="line"/>
			<point x="202" y="715" type="line"/>
		</contour>
	</outline>
	<anchor name="_top" x="337" y="523"/>
</glyph>
<glyph name="acute" format="2">
	<unicode hex="00B4"/>
	<advance width="600"/>
	<outline>
		<contour>
			<point x="503" y="750" type="line"/>
			<point x="321" y="750" type="line"/>
			<point x="252" y="599" type="line"/>
			<point x="379" y="599" type="line"/>
		</contour>
	</outline>
	<anchor name="_top" x="308" y="523"/>
</glyph>
<glyph name="mu" format="2">
	<unicode hex="00B5"/>
	<advance width="600"/>
	<outline>
		<contour>
			<point x="-5" y="-189" type="line"/>
			<point x="160" y="-189" type="line"/>
			<point x="184" y="-14" type="line"/>
			<point x="252" y="-14"/>
			<point x="315" y="29"/>
			<point x="359" y="104" type="curve"/>
			<point x="344" y="0" type="line"/>
			<point x="503" y="0" type="line"/>
			<point x="577" y="523" type="line"/>
			<point x="410" y="523" type="line"/>
			<point x="365" y="209" type="line" smooth="yes"/>
			<point x="362" y="184"/>
			<point x="353" y="163"/>
			<point x="341" y="148" type="curve" smooth="yes"/>
			<point x="326" y="130"/>
			<point x="305" y="120"/>
			<point x="279" y="120" type="curve" smooth="yes"/>
			<point x="226" y="120"/>
			<point x="208" y="151"/>
			<point x="217" y="212" type="curve" smooth="yes"/>
			<point x="261" y="523" type="line"/>
			<point x="94" y="523" type="line"/>
			<point x="46" y="186" type="line" smooth="yes"/>
			<point x="45" y="179"/>
			<point x="44" y="171"/>
			<point x="44" y="164" type="curve"/>
		</contour>
	</outline>
	<anchor name="ogonek" x="535" y="0"/>
	<anchor name="bottom" x="296" y="0"/>
	<anchor name="top" x="361" y="534"/>
</glyph>
<glyph name="paragraph" format="2">
	<unicode hex="00B6"/>
	<advance width="600"/>
	<outline>
		<contour>
			<point x="205" y="0" type="line"/>
			<point x="324" y="0" type="line"/>
			<point x="405" y="568" type="line"/>
			<point x="474" y="568" type="line"/>
			<point x="393" y="0" type="line"/>
			<point x="512" y="0" type="line"/>
			<point x="609" y="684" type="line"/>
			<point x="302" y="684" type="line" smooth="yes"/>
			<point x="141" y="684"/>
			<point x="49" y="579"/>
			<point x="49" y="436" type="curve" smooth="yes"/>
			<point x="49" y="314"/>
			<point x="118" y="243"/>
			<point x="238" y="231" type="curve"/>
		</contour>
	</outline>
</glyph>
<glyph name="cedilla" format="2">
	<unicode hex="00B8"/>
	<advance width="600"/>
	<outline>
		<contour>
			<point x="215" y="-234" type="curve" smooth="yes"/>
			<point x="304" y="-234"/>
			<point x="352" y="-190"/>
			<point x="353" y="-122" type="curve" smooth="yes"/>
			<point x="353" y="-75"/>
			<point x="326" y="-50"/>
			<point x="276" y="-45" type="curve"/>
			<point x="304" y="0" type="line"/>
			<point x="222" y="0" type="line"/>
			<point x="167" y="-95" type="line"/>
			<point x="183" y="-93"/>
			<point x="192" y="-92"/>
			<point x="197" y="-92" type="curve" smooth="yes"/>
			<point x="234" y="-92"/>
			<point x="250" y="-102"/>
			<point x="250" y="-123" type="curve" smooth="yes"/>
			<point x="250" y="-146"/>
			<point x="233" y="-158"/>
			<point x="198" y="-158" type="curve" smooth="yes"/>
			<point x="169" y="-158"/>
			<point x="146" y="-150"/>
			<point x="127" y="-141" type="curve"/>
			<point x="118" y="-213" type="line"/>
			<point x="139" y="-224"/>
			<point x="176" y="-234"/>
		</contour>
	</outline>
	<anchor name="_bottom" x="261" y="0"/>
</glyph>
<glyph name="guillemetright" format="2">
	<unicode hex="00BB"/>
	<advance width="600"/>
	<outline>
		<contour>
			<point x="239" y="77" type="line"/>
			<point x="408" y="77" type="line"/>
			<point x="581" y="287" type="line"/>
			<point x="468" y="497" type="line"/>
			<point x="299" y="497" type="line"/>
			<point x="415" y="288" type="line"/>
		</contour>
		<contour>
			<point x="-2" y="77" type="line"/>
			<point x="168" y="77" type="line"/>
			<point x="339" y="287" type="line"/>
			<point x="227" y="497" type="line"/>
			<point x="58" y="497" type="line"/>
			<point x="175" y="289" type="line"/>
		</contour>
	</outline>
</glyph>
<glyph name="AE" format="2">
	<unicode hex="00C6"/>
	<advance width="600"/>
	<outline>
		<contour>
			<point x="-33" y="0" type="line"/>
			<point x="115" y="0" type="line"/>
			<point x="161" y="146" type="line"/>
			<point x="275" y="146" type="line"/>
			<point x="255" y="0" type="line"/>
			<point x="544" y="0" type="line"/>
			<point x="563" y="134" type="line"/>
			<point x="413" y="134" type="line"/>
			<point x="433" y="276" type="line"/>
			<point x="551" y="276" type="line"/>
			<point x="570" y="408" type="line"/>
			<point x="451" y="408" type="line"/>
			<point x="472" y="551" type="line"/>
			<point x="620" y="551" type="line"/>
			<point x="638" y="684" type="line"/>
			<point x="192" y="684" type="line"/>
		</contour>
		<contour>
			<point x="202" y="275" type="line"/>
			<point x="290" y="551" type="line"/>
			<point x="332" y="551" type="line"/>
			<point x="294" y="275" type="line"/>
		</contour>
	</outline>
	<anchor name="top" x="419" y="684"/>
</glyph>
<glyph name="Ccedilla" format="2">
	<unicode hex="00C7"/>
	<advance width="600"/>
	<outline>
		<contour>
			<point x="293" y="-234" type="curve" smooth="yes"/>
			<point x="382" y="-234"/>
			<point x="430" y="-190"/>
			<point x="431" y="-122" type="curve" smooth="yes"/>
			<point x="431" y="-75"/>
			<point x="404" y="-50"/>
			<point x="354" y="-45" type="curve"/>
			<point x="375" y="-12" type="line"/>
			<point x="433" y="-12"/>
			<point x="480" y="-2"/>
			<point x="515" y="11" type="curve"/>
			<point x="535" y="151" type="line"/>
			<point x="493" y="136"/>
			<point x="454" y="129"/>
			<point x="409" y="129" type="curve" smooth="yes"/>
			<point x="263" y="129"/>
			<point x="212" y="229"/>
			<point x="232" y="369" type="curve" smooth="yes"/>
			<point x="233" y="376" type="line" smooth="yes"/>
			<point x="252" y="501"/>
			<point x="322" y="555"/>
			<point x="436" y="555" type="curve" smooth="yes"/>
			<point x="489" y="555"/>
			<point x="541" y="544"/>
			<point x="586" y="519" type="curve"/>
			<point x="606" y="656" type="line"/>
			<point x="568" y="676"/>
			<point x="505" y="695"/>
			<point x="424" y="695" type="curve" smooth="yes"/>
			<point x="211" y="695"/>
			<point x="86" y="572"/>
			<point x="61" y="395" type="curve" smooth="yes"/>
			<point x="59" y="381" type="line" smooth="yes"/>
			<point x="32" y="191"/>
			<point x="100" y="28"/>
			<point x="297" y="-6" type="curve"/>
			<point x="245" y="-95" type="line"/>
			<point x="261" y="-93"/>
			<point x="270" y="-92"/>
			<point x="275" y="-92" type="curve" smooth="yes"/>
			<point x="312" y="-92"/>
			<point x="328" y="-102"/>
			<point x="328" y="-123" type="curve" smooth="yes"/>
			<point x="328" y="-146"/>
			<point x="311" y="-158"/>
			<point x="276" y="-158" type="curve" smooth="yes"/>
			<point x="247" y="-158"/>
			<point x="224" y="-150"/>
			<point x="205" y="-141" type="curve"/>
			<point x="196" y="-213" type="line"/>
			<point x="217" y="-224"/>
			<point x="254" y="-234"/>
		</contour>
	</outline>
</glyph>
<glyph name="Eth" format="2">
	<unicode hex="00D0"/>
	<advance width="600"/>
	<outline>
		<contour>
			<point x="13" y="0" type="line"/>
			<point x="279" y="0" type="line" smooth="yes"/>
			<point x="469" y="0"/>
			<point x="554" y="108"/>
			<point x="581" y="303" type="curve" smooth="yes"/>
			<point x="583" y="320" type="line" smooth="yes"/>
			<point x="612" y="536"/>
			<point x="543" y="684"/>
			<point x="344" y="684" type="curve" smooth="yes"/>
			<point x="109" y="684" type="line"/>
			<point x="68" y="393" type="line"/>
			<point x="20" y="393" type="line"/>
			<point x="4" y="285" type="line"/>
			<point x="53" y="285" type="line"/>
		</contour>
		<contour>
			<point x="310" y="548" type="line" smooth="yes"/>
			<point x="397" y="548"/>
			<point x="430" y="494"/>
			<point x="412" y="343" type="curve" smooth="yes"/>
			<point x="411" y="333" type="line" smooth="yes"/>
			<point x="395" y="195"/>
			<point x="355" y="137"/>
			<point x="274" y="137" type="curve" smooth="yes"/>
			<point x="201" y="137" type="line"/>
			<point x="222" y="285" type="line"/>
			<point x="322" y="285" type="line"/>
			<point x="337" y="393" type="line"/>
			<point x="237" y="393" type="line"/>
			<point x="259" y="548" type="line"/>
		</contour>
	</outline>
</glyph>
<glyph name="ae" format="2">
	<unicode hex="00E6"/>
	<advance width="600"/>
	<outline>
		<contour>
			<point x="95" y="-14" type="curve" smooth="yes"/>
			<point x="148" y="-14"/>
			<point x="196" y="17"/>
			<point x="230" y="98" type="curve"/>
			<point x="254" y="18"/>
			<point x="316" y="-14"/>
			<point x="409" y="-14" type="curve" smooth="yes"/>
			<point x="452" y="-14"/>
			<point x="504" y="-1"/>
			<point x="533" y="16" type="curve"/>
			<point x="550" y="140" type="line"/>
			<point x="514" y="122"/>
			<point x="478" y="113"/>
			<point x="445" y="113" type="curve" smooth="yes"/>
			<point x="375" y="113"/>
			<point x="345" y="147"/>
			<point x="352" y="220" type="curve"/>
			<point x="583" y="220" type="line"/>
			<point x="592" y="282" type="line" smooth="yes"/>
			<point x="615" y="437"/>
			<point x="573" y="537"/>
			<point x="453" y="537" type="curve" smooth="yes"/>
			<point x="407" y="537"/>
			<point x="370" y="522"/>
			<point x="335" y="489" type="curve"/>
			<point x="311" y="521"/>
			<point x="271" y="537"/>
			<point x="218" y="537" type="curve" smooth="yes"/>
			<point x="145" y="537"/>
			<point x="92" y="512"/>
			<point x="56" y="493" type="curve"/>
			<point x="38" y="360" type="line"/>
			<point x="79" y="391"/>
			<point x="133" y="411"/>
			<point x="179" y="411" type="curve" smooth="yes"/>
			<point x="225" y="411"/>
			<point x="247" y="389"/>
			<point x="239" y="333" type="curve" smooth="yes"/>
			<point x="237" y="322" type="line"/>
			<point x="183" y="312" type="line" smooth="yes"/>
			<point x="63" y="291"/>
			<point x="-9" y="226"/>
			<point x="-9" y="106" type="curve" smooth="yes"/>
			<point x="-9" y="26"/>
			<point x="37" y="-14"/>
		</contour>
		<contour>
			<point x="433" y="423" type="curve" smooth="yes"/>
			<point x="470" y="423"/>
			<point x="480" y="381"/>
			<point x="472" y="310" type="curve"/>
			<point x="362" y="310" type="line"/>
			<point x="374" y="386"/>
			<point x="398" y="423"/>
		</contour>
		<contour>
			<point x="117" y="143" type="curve" smooth="yes"/>
			<point x="117" y="188"/>
			<point x="142" y="217"/>
			<point x="193" y="227" type="curve" smooth="yes"/>
			<point x="225" y="233" type="line"/>
			<point x="214" y="156" type="line" smooth="yes"/>
			<point x="208" y="118"/>
			<point x="189" y="92"/>
			<point x="158" y="92" type="curve" smooth="yes"/>
			<point x="132" y="92"/>
			<point x="117" y="109"/>
		</contour>
	</outline>
	<anchor name="top" x="333" y="523"/>
</glyph>
<glyph name="ccedilla" format="2">
	<unicode hex="00E7"/>
	<advance width="600"/>
	<outline>
		<contour>
			<point x="272" y="-234" type="curve" smooth="yes"/>
			<point x="361" y="-234"/>
			<point x="409" y="-190"/>
			<point x="410" y="-122" type="curve" smooth="yes"/>
			<point x="410" y="-75"/>
			<point x="383" y="-50"/>
			<point x="333" y="-45" type="curve"/>
			<point x="354" y="-12" type="line"/>
			<point x="365" y="-12" type="line" smooth="yes"/>
			<point x="413" y="-12"/>
			<point x="453" y="-5"/>
			<point x="484" y="8" type="curve"/>
			<point x="502" y="137" type="line"/>
			<point x="471" y="125"/>
			<point x="435" y="119"/>
			<point x="399" y="119" type="curve" smooth="yes"/>
			<point x="292" y="119"/>
			<point x="234" y="173"/>
			<point x="249" y="277" type="curve" smooth="yes"/>
			<point x="250" y="284" type="line" smooth="yes"/>
			<point x="261" y="366"/>
			<point x="312" y="403"/>
			<point x="400" y="403" type="curve" smooth="yes"/>
			<point x="461" y="403"/>
			<point x="503" y="391"/>
			<point x="536" y="372" type="curve"/>
			<point x="553" y="498" type="line"/>
			<point x="514" y="520"/>
			<point x="452" y="535"/>
			<point x="377" y="535" type="curve" smooth="yes"/>
			<point x="207" y="535"/>
			<point x="102" y="442"/>
			<point x="82" y="300" type="curve" smooth="yes"/>
			<point x="80" y="286" type="line" smooth="yes"/>
			<point x="57" y="128"/>
			<point x="136" y="25"/>
			<point x="277" y="-4" type="curve"/>
			<point x="224" y="-95" type="line"/>
			<point x="240" y="-93"/>
			<point x="249" y="-92"/>
			<point x="254" y="-92" type="curve" smooth="yes"/>
			<point x="291" y="-92"/>
			<point x="307" y="-102"/>
			<point x="307" y="-123" type="curve" smooth="yes"/>
			<point x="307" y="-146"/>
			<point x="290" y="-158"/>
			<point x="255" y="-158" type="curve" smooth="yes"/>
			<point x="226" y="-158"/>
			<point x="203" y="-150"/>
			<point x="184" y="-141" type="curve"/>
			<point x="175" y="-213" type="line"/>
			<point x="196" y="-224"/>
			<point x="233" y="-234"/>
		</contour>
	</outline>
</glyph>
<glyph name="eth" format="2">
	<unicode hex="00F0"/>
	<advance width="600"/>
	<outline>
		<contour>
			<point x="275" y="-14" type="curve" smooth="yes"/>
			<point x="432" y="-14"/>
			<point x="537" y="78"/>
			<point x="564" y="264" type="curve" smooth="yes"/>
			<point x="566" y="278" type="line" smooth="yes"/>
			<point x="584" y="401"/>
			<point x="561" y="525"/>
			<point x="505" y="626" type="curve"/>
			<point x="585" y="650" type="line"/>
			<point x="598" y="746" type="line"/>
			<point x="452" y="702" type="line"/>
			<point x="437" y="719"/>
			<point x="420" y="735"/>
			<point x="403" y="750" type="curve"/>
			<point x="188" y="750" type="line"/>
			<point x="229" y="716"/>
			<point x="262" y="684"/>
			<point x="289" y="652" type="curve"/>
			<point x="196" y="624" type="line"/>
			<point x="183" y="528" type="line"/>
			<point x="343" y="577" type="line"/>
			<point x="376" y="520"/>
			<point x="393" y="460"/>
			<point x="401" y="393" type="curve"/>
			<point x="372" y="449"/>
			<point x="323" y="497"/>
			<point x="245" y="497" type="curve" smooth="yes"/>
			<point x="142" y="497"/>
			<point x="60" y="424"/>
			<point x="40" y="285" type="curve" smooth="yes"/>
			<point x="38" y="271" type="line" smooth="yes"/>
			<point x="14" y="107"/>
			<point x="88" y="-14"/>
		</contour>
		<contour>
			<point x="286" y="115" type="curve" smooth="yes"/>
			<point x="220" y="115"/>
			<point x="193" y="167"/>
			<point x="205" y="252" type="curve" smooth="yes"/>
			<point x="206" y="259" type="line" smooth="yes"/>
			<point x="216" y="334"/>
			<point x="251" y="378"/>
			<point x="307" y="378" type="curve" smooth="yes"/>
			<point x="371" y="378"/>
			<point x="401" y="332"/>
			<point x="390" y="245" type="curve" smooth="yes"/>
			<point x="389" y="238" type="line" smooth="yes"/>
			<point x="379" y="160"/>
			<point x="344" y="115"/>
		</contour>
	</outline>
</glyph>
<glyph name="oslash" format="2">
	<unicode hex="00F8"/>
	<advance width="600"/>
	<outline>
		<contour>
			<point x="278" y="-14" type="curve" smooth="yes"/>
			<point x="437" y="-14"/>
			<point x="534" y="80"/>
			<point x="556" y="231" type="curve" smooth="yes"/>
			<point x="558" y="245" type="line" smooth="yes"/>
			<point x="569" y="322"/>
			<point x="557" y="388"/>
			<point x="526" y="438" type="curve"/>
			<point x="629" y="548" type="line"/>
			<point x="499" y="548" type="line"/>
			<point x="458" y="504" type="line"/>
			<point x="422" y="525"/>
			<point x="376" y="537"/>
			<point x="324" y="537" type="curve" smooth="yes"/>
			<point x="170" y="537"/>
			<point x="65" y="441"/>
			<point x="44" y="292" type="curve" smooth="yes"/>
			<point x="42" y="278" type="line" smooth="yes"/>
			<point x="31" y="200"/>
			<point x="42" y="135"/>
			<point x="72" y="86" type="curve"/>
			<point x="-28" y="-23" type="line"/>
			<point x="102" y="-23" type="line"/>
			<point x="141" y="19" type="line"/>
			<point x="178" y="-2"/>
			<point x="224" y="-14"/>
		</contour>
		<contour>
			<point x="212" y="267" type="curve" smooth="yes"/>
			<point x="213" y="274" type="line" smooth="yes"/>
			<point x="226" y="367"/>
			<point x="261" y="409"/>
			<point x="314" y="409" type="curve" smooth="yes"/>
			<point x="336" y="409"/>
			<point x="355" y="402"/>
			<point x="368" y="388" type="curve"/>
			<point x="208" y="214" type="line"/>
			<point x="208" y="229"/>
			<point x="209" y="247"/>
		</contour>
		<contour>
			<point x="286" y="115" type="curve" smooth="yes"/>
			<point x="264" y="115"/>
			<point x="246" y="122"/>
			<point x="232" y="136" type="curve"/>
			<point x="392" y="310" type="line"/>
			<point x="392" y="295"/>
			<point x="391" y="277"/>
			<point x="388" y="258" type="curve" smooth="yes"/>
			<point x="387" y="251" type="line" smooth="yes"/>
			<point x="374" y="157"/>
			<point x="338" y="115"/>
		</contour>
	</outline>
</glyph>
<glyph name="thorn" format="2">
	<unicode hex="00FE"/>
	<advance width="600"/>
	<outline>
		<contour>
			<point x="126" y="750" type="line"/>
			<point x="-8" y="-204" type="line"/>
			<point x="159" y="-204" type="line"/>
			<point x="188" y="0" type="line"/>
			<point x="235" y="0" type="line" smooth="yes"/>
			<point x="422" y="0"/>
			<point x="533" y="95"/>
			<point x="557" y="259" type="curve" smooth="yes"/>
			<point x="559" y="273" type="line" smooth="yes"/>
			<point x="582" y="434"/>
			<point x="524" y="537"/>
			<point x="407" y="537" type="curve" smooth="yes"/>
			<point x="344" y="537"/>
			<point x="292" y="503"/>
			<point x="248" y="430" type="curve"/>
			<point x="293" y="750" type="line"/>
		</contour>
		<contour>
			<point x="322" y="407" type="curve" smooth="yes"/>
			<point x="378" y="407"/>
			<point x="402" y="357"/>
			<point x="390" y="271" type="curve" smooth="yes"/>
			<point x="389" y="264" type="line" smooth="yes"/>
			<point x="375" y="168"/>
			<point x="333" y="127"/>
			<point x="248" y="127" type="curve" smooth="yes"/>
			<point x="205" y="127" type="line"/>
			<point x="231" y="308" type="line" smooth="yes"/>
			<point x="241" y="373"/>
			<point x="272" y="407"/>
		</contour>
	</outline>
</glyph>
<glyph name="dcaron" format="2">
	<unicode hex="010F"/>
	<advance width="600"/>
	<outline>
		<contour>
			<point x="177" y="-14" type="curve" smooth="yes"/>
			<point x="243" y="-14"/>
			<point x="297" y="23"/>
			<point x="341" y="101" type="curve"/>
			<point x="326" y="0" type="line"/>
			<point x="475" y="0" type="line"/>
			<point x="581" y="750" type="line"/>
			<point x="424" y="750" type="line"/>
			<point x="392" y="523" type="line"/>
			<point x="350" y="523" type="line" smooth="yes"/>
			<point x="169" y="523"/>
			<point x="66" y="423"/>
			<point x="42" y="259" type="curve" smooth="yes"/>
			<point x="40" y="245" type="line" smooth="yes"/>
			<point x="17" y="83"/>
			<point x="70" y="-14"/>
		</contour>
		<contour>
			<point x="598" y="555" type="line"/>
			<point x="676" y="555" type="line"/>
			<point x="768" y="750" type="line"/>
			<point x="631" y="750" type="line"/>
		</contour>
		<contour>
			<point x="263" y="108" type="curve" smooth="yes"/>
			<point x="210" y="108"/>
			<point x="186" y="160"/>
			<point x="198" y="252" type="curve" smooth="yes"/>
			<point x="199" y="259" type="line" smooth="yes"/>
			<point x="214" y="361"/>
			<point x="256" y="404"/>
			<point x="338" y="404" type="curve" smooth="yes"/>
			<point x="375" y="404" type="line"/>
			<point x="348" y="206" type="line" smooth="yes"/>
			<point x="340" y="142"/>
			<point x="307" y="108"/>
		</contour>
	</outline>
</glyph>
<glyph name="hbar" format="2">
	<unicode hex="0127"/>
	<advance width="600"/>
	<outline>
		<contour>
			<point x="51" y="585" type="line"/>
			<point x="107" y="585" type="line"/>
			<point x="25" y="0" type="line"/>
			<point x="192" y="0" type="line"/>
			<point x="237" y="318" type="line" smooth="yes"/>
			<point x="240" y="338"/>
			<point x="247" y="355"/>
			<point x="258" y="368" type="curve" smooth="yes"/>
			<point x="272" y="387"/>
			<point x="293" y="400"/>
			<point x="322" y="400" type="curve" smooth="yes"/>
			<point x="374" y="400"/>
			<point x="393" y="369"/>
			<point x="384" y="306" type="curve" smooth="yes"/>
			<point x="340" y="0" type="line"/>
			<point x="507" y="0" type="line"/>
			<point x="555" y="335" type="line" smooth="yes"/>
			<point x="573" y="461"/>
			<point x="527" y="537"/>
			<point x="425" y="537" type="curve" smooth="yes"/>
			<point x="356" y="537"/>
			<point x="300" y="496"/>
			<point x="252" y="426" type="curve"/>
			<point x="274" y="585" type="line"/>
			<point x="413" y="585" type="line"/>
			<point x="425" y="674" type="line"/>
			<point x="286" y="674" type="line"/>
			<point x="297" y="750" type="line"/>
			<point x="130" y="750" type="line"/>
			<point x="119" y="674" type="line"/>
			<point x="64" y="674" type="line"/>
		</contour>
	</outline>
</glyph>
<glyph name="ij" format="2">
	<unicode hex="0133"/>
	<advance width="600"/>
	<outline>
		<contour>
			<point x="212" y="596" type="curve" smooth="yes"/>
			<point x="280" y="596"/>
			<point x="311" y="620"/>
			<point x="317" y="673" type="curve" smooth="yes"/>
			<point x="323" y="730"/>
			<point x="296" y="756"/>
			<point x="224" y="756" type="curve" smooth="yes"/>
			<point x="156" y="756"/>
			<point x="125" y="732"/>
			<point x="119" y="679" type="curve" smooth="yes"/>
			<point x="113" y="622"/>
			<point x="140" y="596"/>
		</contour>
		<contour>
			<point x="493" y="596" type="curve" smooth="yes"/>
			<point x="561" y="596"/>
			<point x="591" y="620"/>
			<point x="597" y="673" type="curve" smooth="yes"/>
			<point x="603" y="730"/>
			<point x="577" y="756"/>
			<point x="504" y="756" type="curve" smooth="yes"/>
			<point x="436" y="756"/>
			<point x="406" y="732"/>
			<point x="399" y="679" type="curve" smooth="yes"/>
			<point x="393" y="622"/>
			<point x="420" y="596"/>
		</contour>
		<contour>
			<point x="251" y="-204" type="curve" smooth="yes"/>
			<point x="370" y="-204"/>
			<point x="465" y="-155"/>
			<point x="485" y="-15" type="curve" smooth="yes"/>
			<point x="560" y="523" type="line"/>
			<point x="393" y="523" type="line"/>
			<point x="322" y="19" type="line" smooth="yes"/>
			<point x="313" y="-44"/>
			<point x="279" y="-69"/>
			<point x="221" y="-69" type="curve" smooth="yes"/>
			<point x="174" y="-69"/>
			<point x="139" y="-60"/>
			<point x="112" y="-49" type="curve"/>
			<point x="94" y="-174" type="line"/>
			<point x="127" y="-191"/>
			<point x="187" y="-204"/>
		</contour>
		<contour>
			<point x="39" y="0" type="line"/>
			<point x="206" y="0" type="line"/>
			<point x="280" y="523" type="line"/>
			<point x="113" y="523" type="line"/>
		</contour>
	</outline>
</glyph>
<glyph name="Ldot" format="2">
	<unicode hex="013F"/>
	<advance width="600"/>
	<outline>
		<contour>
			<point x="42" y="0" type="line"/>
			<point x="522" y="0" type="line"/>
			<point x="543" y="155" type="line"/>
			<point x="234" y="155" type="line"/>
			<point x="307" y="684" type="line"/>
			<point x="138" y="684" type="line"/>
		</contour>
		<contour>
			<point x="478" y="311" type="curve" smooth="yes"/>
			<point x="550" y="311"/>
			<point x="575" y="350"/>
			<point x="586" y="420" type="curve" smooth="yes"/>
			<point x="598" y="500"/>
			<point x="567" y="542"/>
			<point x="496" y="542" type="curve" smooth="yes"/>
			<point x="424" y="542"/>
			<point x="397" y="503"/>
			<point x="388" y="433" type="curve" smooth="yes"/>
			<point x="376" y="352"/>
			<point x="407" y="311"/>
		</contour>
	</outline>
</glyph>
<glyph name="ldot" format="2">
	<unicode hex="0140"/>
	<advance width="600"/>
	<outline>
		<contour>
			<point x="23" y="0" type="line"/>
			<point x="515" y="0" type="line"/>
			<point x="533" y="129" type="line"/>
			<point x="377" y="129" type="line"/>
			<point x="465" y="750" type="line"/>
			<point x="131" y="750" type="line"/>
			<point x="112" y="621" type="line"/>
			<point x="280" y="621" type="line"/>
			<point x="209" y="129" type="line"/>
			<point x="42" y="129" type="line"/>
		</contour>
		<contour>
			<point x="609" y="266" type="curve" smooth="yes"/>
			<point x="678" y="266"/>
			<point x="704" y="305"/>
			<point x="714" y="371" type="curve" smooth="yes"/>
			<point x="727" y="448"/>
			<point x="697" y="488"/>
			<point x="631" y="488" type="curve" smooth="yes"/>
			<point x="564" y="488"/>
			<point x="538" y="451"/>
			<point x="527" y="384" type="curve" smooth="yes"/>
			<point x="516" y="307"/>
			<point x="543" y="266"/>
		</contour>
	</outline>
</glyph>
<glyph name="Lslash" format="2">
	<unicode hex="0141"/>
	<advance width="600"/>
	<outline>
		<contour>
			<point x="42" y="0" type="line"/>
			<point x="522" y="0" type="line"/>
			<point x="543" y="155" type="line"/>
			<point x="234" y="155" type="line"/>
			<point x="257" y="319" type="line"/>
			<point x="433" y="383" type="line"/>
			<point x="450" y="500" type="line"/>
			<point x="273" y="436" type="line"/>
			<point x="307" y="684" type="line"/>
			<point x="138" y="684" type="line"/>
			<point x="94" y="372" type="line"/>
			<point x="17" y="344" type="line"/>
			<point x="0" y="227" type="line"/>
			<point x="78" y="255" type="line"/>
		</contour>
	</outline>
</glyph>
<glyph name="eng" format="2">
	<unicode hex="014B"/>
	<advance width="600"/>
	<outline>
		<contour>
			<point x="294" y="-214" type="curve" smooth="yes"/>
			<point x="397" y="-214"/>
			<point x="483" y="-172"/>
			<point x="502" y="-33" type="curve" smooth="yes"/>
			<point x="555" y="335" type="line" smooth="yes"/>
			<point x="573" y="461"/>
			<point x="528" y="537"/>
			<point x="425" y="537" type="curve" smooth="yes"/>
			<point x="350" y="537"/>
			<point x="291" y="492"/>
			<point x="242" y="415" type="curve"/>
			<point x="257" y="523" type="line"/>
			<point x="98" y="523" type="line"/>
			<point x="25" y="0" type="line"/>
			<point x="192" y="0" type="line"/>
			<point x="236" y="311" type="line" smooth="yes"/>
			<point x="239" y="333"/>
			<point x="246" y="353"/>
			<point x="259" y="369" type="curve" smooth="yes"/>
			<point x="272" y="386"/>
			<point x="292" y="400"/>
			<point x="322" y="400" type="curve" smooth="yes"/>
			<point x="374" y="400"/>
			<point x="393" y="369"/>
			<point x="384" y="306" type="curve" smooth="yes"/>
			<point x="338" y="-16" type="line" smooth="yes"/>
			<point x="331" y="-70"/>
			<point x="292" y="-83"/>
			<point x="256" y="-83" type="curve" smooth="yes"/>
			<point x="244" y="-83"/>
			<point x="225" y="-80"/>
			<point x="212" y="-77" type="curve"/>
			<point x="195" y="-199" type="line"/>
			<point x="214" y="-206"/>
			<point x="253" y="-214"/>
		</contour>
	</outline>
</glyph>
<glyph name="oe" format="2">
	<unicode hex="0153"/>
	<advance width="600"/>
	<outline>
		<contour>
			<point x="104" y="-14" type="curve" smooth="yes"/>
			<point x="155" y="-14"/>
			<point x="201" y="16"/>
			<point x="233" y="105" type="curve"/>
			<point x="256" y="17"/>
			<point x="320" y="-14"/>
			<point x="411" y="-14" type="curve" smooth="yes"/>
			<point x="455" y="-14"/>
			<point x="505" y="-2"/>
			<point x="536" y="16" type="curve"/>
			<point x="553" y="139" type="line"/>
			<point x="515" y="120"/>
			<point x="479" y="113"/>
			<point x="446" y="113" type="curve" smooth="yes"/>
			<point x="373" y="113"/>
			<point x="348" y="144"/>
			<point x="354" y="222" type="curve"/>
			<point x="586" y="222" type="line"/>
			<point x="595" y="282" type="line" smooth="yes"/>
			<point x="617" y="437"/>
			<point x="576" y="537"/>
			<point x="454" y="537" type="curve" smooth="yes"/>
			<point x="408" y="537"/>
			<point x="370" y="521"/>
			<point x="335" y="484" type="curve"/>
			<point x="313" y="517"/>
			<point x="275" y="537"/>
			<point x="221" y="537" type="curve" smooth="yes"/>
			<point x="102" y="537"/>
			<point x="35" y="443"/>
			<point x="11" y="275" type="curve" smooth="yes"/>
			<point x="9" y="261" type="line" smooth="yes"/>
			<point x="-17" y="81"/>
			<point x="13" y="-14"/>
		</contour>
		<contour>
			<point x="435" y="423" type="curve" smooth="yes"/>
			<point x="470" y="423"/>
			<point x="482" y="381"/>
			<point x="474" y="308" type="curve"/>
			<point x="364" y="308" type="line"/>
			<point x="374" y="380"/>
			<point x="396" y="423"/>
		</contour>
		<contour>
			<point x="174" y="113" type="curve" smooth="yes"/>
			<point x="135" y="113"/>
			<point x="123" y="154"/>
			<point x="140" y="268" type="curve" smooth="yes"/>
			<point x="141" y="275" type="line" smooth="yes"/>
			<point x="156" y="385"/>
			<point x="178" y="419"/>
			<point x="211" y="419" type="curve" smooth="yes"/>
			<point x="251" y="419"/>
			<point x="261" y="381"/>
			<point x="244" y="262" type="curve" smooth="yes"/>
			<point x="243" y="255" type="line" smooth="yes"/>
			<point x="228" y="149"/>
			<point x="207" y="113"/>
		</contour>
	</outline>
</glyph>
<glyph name="tcaron" format="2">
	<unicode hex="0165"/>
	<advance width="600"/>
	<outline>
		<contour>
			<point x="485" y="616" type="line"/>
			<point x="570" y="616" type="line"/>
			<point x="669" y="780" type="line"/>
			<point x="512" y="780" type="line"/>
		</contour>
		<contour>
			<point x="351" y="-12" type="curve" smooth="yes"/>
			<point x="411" y="-12"/>
			<point x="458" y="-2"/>
			<point x="485" y="12" type="curve"/>
			<point x="501" y="132" type="line"/>
			<point x="478" y="124"/>
			<point x="447" y="119"/>
			<point x="417" y="119" type="curve" smooth="yes"/>
			<point x="352" y="119"/>
			<point x="323" y="138"/>
			<point x="333" y="211" type="curve" smooth="yes"/>
			<point x="359" y="394" type="line"/>
			<point x="545" y="394" type="line"/>
			<point x="563" y="523" type="line"/>
			<point x="379" y="523" type="line"/>
			<point x="403" y="692" type="line"/>
			<point x="251" y="692" type="line"/>
			<point x="230" y="589" type="line" smooth="yes"/>
			<point x="217" y="527"/>
			<point x="188" y="517"/>
			<point x="143" y="517" type="curve" smooth="yes"/>
			<point x="77" y="517" type="line"/>
			<point x="60" y="394" type="line"/>
			<point x="192" y="394" type="line"/>
			<point x="164" y="192" type="line" smooth="yes"/>
			<point x="144" y="46"/>
			<point x="209" y="-12"/>
		</contour>
	</outline>
</glyph>
<glyph name="Tbar" format="2">
	<unicode hex="0166"/>
	<advance width="600"/>
	<outline>
		<contour>
			<point x="178" y="0" type="line"/>
			<point x="348" y="0" type="line"/>
			<point x="387" y="276" type="line"/>
			<point x="501" y="276" type="line"/>
			<point x="516" y="384" type="line"/>
			<point x="402" y="384" type="line"/>
			<point x="424" y="539" type="line"/>
			<point x="614" y="539" type="line"/>
			<point x="634" y="684" type="line"/>
			<point x="85" y="684" type="line"/>
			<point x="65" y="539" type="line"/>
			<point x="254" y="539" type="line"/>
			<point x="232" y="384" type="line"/>
			<point x="118" y="384" type="line"/>
			<point x="103" y="276" type="line"/>
			<point x="217" y="276" type="line"/>
		</contour>
	</outline>
</glyph>
<glyph name="dotlessj" format="2">
	<unicode hex="0237"/>
	<advance width="600"/>
	<outline>
		<contour>
			<point x="180" y="-204" type="curve" smooth="yes"/>
			<point x="329" y="-204"/>
			<point x="429" y="-147"/>
			<point x="450" y="3" type="curve" smooth="yes"/>
			<point x="523" y="523" type="line"/>
			<point x="110" y="523" type="line"/>
			<point x="91" y="394" type="line"/>
			<point x="338" y="394" type="line"/>
			<point x="288" y="38" type="line" smooth="yes"/>
			<point x="276" y="-44"/>
			<point x="232" y="-69"/>
			<point x="149" y="-69" type="curve" smooth="yes"/>
			<point x="101" y="-69"/>
			<point x="59" y="-58"/>
			<point x="28" y="-45" type="curve"/>
			<point x="10" y="-171" type="line"/>
			<point x="48" y="-190"/>
			<point x="109" y="-204"/>
		</contour>
	</outline>
	<anchor name="top" x="440" y="523"/>
</glyph>
<glyph name="circumflex" format="2">
	<unicode hex="02C6"/>
	<advance width="600"/>
	<outline>
		<contour>
			<point x="148" y="599" type="line"/>
			<point x="294" y="599" type="line"/>
			<point x="362" y="685" type="line"/>
			<point x="405" y="599" type="line"/>
			<point x="547" y="599" type="line"/>
			<point x="458" y="750" type="line"/>
			<point x="278" y="750" type="line"/>
		</contour>
	</outline>
	<anchor name="_top" x="340" y="523"/>
</glyph>
<glyph name="breve" format="2">
	<unicode hex="02D8"/>
	<advance width="600"/>
	<outline>
		<contour>
			<point x="349" y="588" type="curve" smooth="yes"/>
			<point x="470" y="588"/>
			<point x="525" y="634"/>
			<point x="541" y="750" type="curve"/>
			<point x="421" y="750" type="line"/>
			<point x="415" y="701"/>
			<point x="406" y="677"/>
			<point x="362" y="677" type="curve" smooth="yes"/>
			<point x="318" y="677"/>
			<point x="311" y="701"/>
			<point x="317" y="750" type="curve"/>
			<point x="197" y="750" type="line"/>
			<point x="181" y="635"/>
			<point x="233" y="588"/>
		</contour>
	</outline>
	<anchor name="_top" x="337" y="523"/>
</glyph>
<glyph name="dotaccent" format="2">
	<unicode hex="02D9"/>
	<advance width="600"/>
	<outline>
		<contour>
			<point x="350" y="593" type="curve" smooth="yes"/>
			<point x="420" y="593"/>
			<point x="450" y="617"/>
			<point x="457" y="671" type="curve" smooth="yes"/>
			<point x="463" y="728"/>
			<point x="436" y="753"/>
			<point x="366" y="753" type="curve" smooth="yes"/>
			<point x="296" y="753"/>
			<point x="265" y="730"/>
			<point x="259" y="676" type="curve" smooth="yes"/>
			<point x="253" y="620"/>
			<point x="280" y="593"/>
		</contour>
	</outline>
	<anchor name="_top" x="337" y="523"/>
</glyph>
<glyph name="ring" format="2">
	<unicode hex="02DA"/>
	<advance width="600"/>
	<outline>
		<contour>
			<point x="356" y="587" type="curve" smooth="yes"/>
			<point x="451" y="587"/>
			<point x="505" y="640"/>
			<point x="505" y="725" type="curve" smooth="yes"/>
			<point x="505" y="799"/>
			<point x="464" y="844"/>
			<point x="371" y="844" type="curve" smooth="yes"/>
			<point x="277" y="844"/>
			<point x="223" y="790"/>
			<point x="223" y="706" type="curve" smooth="yes"/>
			<point x="223" y="632"/>
			<point x="263" y="587"/>
		</contour>
		<contour>
			<point x="360" y="657" type="curve" smooth="yes"/>
			<point x="321" y="657"/>
			<point x="307" y="677"/>
			<point x="307" y="710" type="curve" smooth="yes"/>
			<point x="307" y="750"/>
			<point x="326" y="774"/>
			<point x="368" y="774" type="curve" smooth="yes"/>
			<point x="408" y="774"/>
			<point x="421" y="754"/>
			<point x="421" y="721" type="curve" smooth="yes"/>
			<point x="421" y="681"/>
			<point x="402" y="657"/>
		</contour>
	</outline>
	<anchor name="_top" x="336" y="523"/>
</glyph>
<glyph name="ogonek" format="2">
	<unicode hex="02DB"/>
	<advance width="600"/>
	<outline>
		<contour>
			<point x="268" y="-203" type="curve" smooth="yes"/>
			<point x="296" y="-203"/>
			<point x="323" y="-198"/>
			<point x="337" y="-194" type="curve"/>
			<point x="352" y="-93" type="line"/>
			<point x="349" y="-94"/>
			<point x="337" y="-95"/>
			<point x="325" y="-95" type="curve" smooth="yes"/>
			<point x="296" y="-95"/>
			<point x="279" y="-86"/>
			<point x="279" y="-64" type="curve" smooth="yes"/>
			<point x="279" y="-38"/>
			<point x="301" y="-17"/>
			<point x="356" y="0" type="curve"/>
			<point x="253" y="0" type="line"/>
			<point x="182" y="-26"/>
			<point x="141" y="-62"/>
			<point x="141" y="-119" type="curve" smooth="yes"/>
			<point x="141" y="-174"/>
			<point x="185" y="-203"/>
		</contour>
	</outline>
	<anchor name="_ogonek" x="356" y="0"/>
</glyph>
<glyph name="hungarumlaut" format="2">
	<unicode hex="02DD"/>
	<advance width="600"/>
	<outline>
		<contour>
			<point x="357" y="599" type="line"/>
			<point x="470" y="599" type="line"/>
			<point x="576" y="750" type="line"/>
			<point x="423" y="750" type="line"/>
		</contour>
		<contour>
			<point x="154" y="599" type="line"/>
			<point x="267" y="599" type="line"/>
			<point x="373" y="750" type="line"/>
			<point x="220" y="750" type="line"/>
		</contour>
	</outline>
	<anchor name="_top" x="301" y="523"/>
</glyph>
<glyph name="pi" format="2">
	<unicode hex="03C0"/>
	<advance width="600"/>
	<outline>
		<contour>
			<point x="39" y="0" type="line"/>
			<point x="195" y="0" type="line"/>
			<point x="250" y="395" type="line"/>
			<point x="366" y="395" type="line"/>
			<point x="332" y="150" type="line" smooth="yes"/>
			<point x="317" y="40"/>
			<point x="352" y="-12"/>
			<point x="459" y="-12" type="curve" smooth="yes"/>
			<point x="496" y="-12"/>
			<point x="528" y="-6"/>
			<point x="543" y="-1" type="curve"/>
			<point x="559" y="111" type="line"/>
			<point x="557" y="110"/>
			<point x="545" y="108"/>
			<point x="534" y="108" type="curve" smooth="yes"/>
			<point x="501" y="108"/>
			<point x="484" y="123"/>
			<point x="488" y="153" type="curve" smooth="yes"/>
			<point x="522" y="395" type="line"/>
			<point x="599" y="395" type="line"/>
			<point x="618" y="523" type="line"/>
			<point x="46" y="523" type="line"/>
			<point x="28" y="395" type="line"/>
			<point x="95" y="395" type="line"/>
		</contour>
	</outline>
</glyph>
<glyph name="endash" format="2">
	<unicode hex="2013"/>
	<advance width="600"/>
	<outline>
		<contour>
			<point x="554" y="367" type="line"/>
			<point x="75" y="367" type="line"/>
			<point x="54" y="216" type="line"/>
			<point x="533" y="216" type="line"/>
		</contour>
	</outline>
</glyph>
<glyph name="emdash" format="2">
	<unicode hex="2014"/>
	<advance width="600"/>
	<outline>
		<contour>
			<point x="615" y="367" type="line"/>
			<point x="15" y="367" type="line"/>
			<point x="-6" y="216" type="line"/>
			<point x="593" y="216" type="line"/>
		</contour>
	</outline>
</glyph>
<glyph name="quotesinglbase" format="2">
	<unicode hex="201A"/>
	<advance width="600"/>
	<outline>
		<contour>
			<point x="224" y="171" type="line"/>
			<point x="139" y="-141" type="line"/>
			<point x="248" y="-141" type="line"/>
			<point x="409" y="171" type="line"/>
		</contour>
	</outline>
</glyph>
<glyph name="quotedblleft" format="2">
	<unicode hex="201C"/>
	<advance width="600"/>
	<outline>
		<contour>
			<point x="495" y="438" type="line"/>
			<point x="579" y="750" type="line"/>
			<point x="473" y="750" type="line"/>
			<point x="316" y="438" type="line"/>
		</contour>
		<contour>
			<point x="263" y="438" type="line"/>
			<point x="346" y="749" type="line"/>
			<point x="240" y="749" type="line"/>
			<point x="83" y="438" type="line"/>
		</contour>
	</outline>
</glyph>
<glyph name="quotedblright" format="2">
	<unicode hex="201D"/>
	<advance width="600"/>
	<outline>
		<contour>
			<point x="198" y="750" type="line"/>
			<point x="115" y="438" type="line"/>
			<point x="221" y="438" type="line"/>
			<point x="378" y="750" type="line"/>
		</contour>
		<contour>
			<point x="430" y="750" type="line"/>
			<point x="346" y="438" type="line"/>
			<point x="453" y="438" type="line"/>
			<point x="611" y="750" type="line"/>
		</contour>
	</outline>
</glyph>
<glyph name="dagger" format="2">
	<unicode hex="2020"/>
	<advance width="600"/>
	<outline>
		<contour>
			<point x="93" y="570" type="line"/>
			<point x="72" y="421" type="line"/>
			<point x="241" y="421" type="line"/>
			<point x="161" y="-143" type="line"/>
			<point x="324" y="-143" type="line"/>
			<point x="404" y="421" type="line"/>
			<point x="572" y="421" type="line"/>
			<point x="593" y="570" type="line"/>
			<point x="425" y="570" type="line"/>
			<point x="452" y="765" type="line"/>
			<point x="289" y="765" type="line"/>
			<point x="262" y="570" type="line"/>
		</contour>
	</outline>
</glyph>
<glyph name="daggerdbl" format="2">
	<unicode hex="2021"/>
	<advance width="600"/>
	<outline>
		<contour>
			<point x="45" y="226" type="line"/>
			<point x="25" y="83" type="line"/>
			<point x="194" y="83" type="line"/>
			<point x="162" y="-143" type="line"/>
			<point x="325" y="-143" type="line"/>
			<point x="357" y="83" type="line"/>
			<point x="524" y="83" type="line"/>
			<point x="545" y="226" type="line"/>
			<point x="377" y="226" type="line"/>
			<point x="408" y="449" type="line"/>
			<point x="576" y="449" type="line"/>
			<point x="596" y="592" type="line"/>
			<point x="428" y="592" type="line"/>
			<point x="452" y="765" type="line"/>
			<point x="289" y="765" type="line"/>
			<point x="265" y="592" type="line"/>
			<point x="97" y="592" type="line"/>
			<point x="76" y="449" type="line"/>
			<point x="245" y="449" type="line"/>
			<point x="214" y="226" type="line"/>
		</contour>
	</outline>
</glyph>
<glyph name="ellipsis" format="2">
	<unicode hex="2026"/>
	<advance width="600"/>
	<outline>
		<contour>
			<point x="65" y="-12" type="curve" smooth="yes"/>
			<point x="119" y="-12"/>
			<point x="139" y="24"/>
			<point x="148" y="81" type="curve" smooth="yes"/>
			<point x="157" y="147"/>
			<point x="139" y="185"/>
			<point x="85" y="185" type="curve" smooth="yes"/>
			<point x="31" y="185"/>
			<point x="10" y="150"/>
			<point x="2" y="92" type="curve" smooth="yes"/>
			<point x="-8" y="25"/>
			<point x="11" y="-12"/>
		</contour>
		<contour>
			<point x="266" y="-12" type="curve" smooth="yes"/>
			<point x="320" y="-12"/>
			<point x="339" y="24"/>
			<point x="348" y="81" type="curve" smooth="yes"/>
			<point x="358" y="147"/>
			<point x="339" y="185"/>
			<point x="286" y="185" type="curve" smooth="yes"/>
			<point x="231" y="185"/>
			<point x="210" y="150"/>
			<point x="202" y="92" type="curve" smooth="yes"/>
			<point x="193" y="25"/>
			<point x="212" y="-12"/>
		</contour>
		<contour>
			<point x="466" y="-12" type="curve" smooth="yes"/>
			<point x="520" y="-12"/>
			<point x="540" y="24"/>
			<point x="549" y="81" type="curve" smooth="yes"/>
			<point x="558" y="147"/>
			<point x="540" y="185"/>
			<point x="486" y="185" type="curve" smooth="yes"/>
			<point x="432" y="185"/>
			<point x="411" y="150"/>
			<point x="403" y="92" type="curve" smooth="yes"/>
			<point x="393" y="25"/>
			<point x="412" y="-12"/>
		</contour>
	</outline>
</glyph>
<glyph name="guilsinglleft" format="2">
	<unicode hex="2039"/>
	<advance width="600"/>
	<outline>
		<contour>
			<point x="267" y="77" type="line"/>
			<point x="466" y="77" type="line"/>
			<point x="299" y="285" type="line"/>
			<point x="526" y="497" type="line"/>
			<point x="319" y="497" type="line"/>
			<point x="99" y="287" type="line"/>
		</contour>
	</outline>
</glyph>
<glyph name="guilsinglright" format="2">
	<unicode hex="203A"/>
	<advance width="600"/>
	<outline>
		<contour>
			<point x="81" y="77" type="line"/>
			<point x="290" y="77" type="line"/>
			<point x="509" y="287" type="line"/>
			<point x="338" y="497" type="line"/>
			<point x="141" y="497" type="line"/>
			<point x="309" y="290" type="line"/>
		</contour>
	</outline>
</glyph>
<glyph name="Euro" format="2">
	<unicode hex="20AC"/>
	<advance width="600"/>
	<outline>
		<contour>
			<point x="14" y="226" type="line"/>
			<point x="101" y="226" type="line"/>
			<point x="124" y="84"/>
			<point x="220" y="-12"/>
			<point x="398" y="-12" type="curve" smooth="yes"/>
			<point x="450" y="-12"/>
			<point x="494" y="-2"/>
			<point x="526" y="11" type="curve"/>
			<point x="544" y="154" type="line"/>
			<point x="505" y="139"/>
			<point x="468" y="132"/>
			<point x="426" y="132" type="curve" smooth="yes"/>
			<point x="350" y="132"/>
			<point x="303" y="167"/>
			<point x="283" y="226" type="curve"/>
			<point x="472" y="226" type="line"/>
			<point x="484" y="318" type="line"/>
			<point x="271" y="318" type="line"/>
			<point x="271" y="334"/>
			<point x="273" y="351"/>
			<point x="275" y="369" type="curve" smooth="yes"/>
			<point x="275" y="370" type="line"/>
			<point x="492" y="370" type="line"/>
			<point x="505" y="462" type="line"/>
			<point x="300" y="462" type="line"/>
			<point x="329" y="528"/>
			<point x="381" y="556"/>
			<point x="454" y="556" type="curve" smooth="yes"/>
			<point x="504" y="556"/>
			<point x="553" y="545"/>
			<point x="596" y="519" type="curve"/>
			<point x="615" y="656" type="line"/>
			<point x="579" y="676"/>
			<point x="520" y="695"/>
			<point x="443" y="695" type="curve" smooth="yes"/>
			<point x="271" y="695"/>
			<point x="162" y="606"/>
			<point x="118" y="462" type="curve"/>
			<point x="47" y="462" type="line"/>
			<point x="35" y="370" type="line"/>
			<point x="100" y="370" type="line"/>
			<point x="98" y="352"/>
			<point x="96" y="335"/>
			<point x="96" y="318" type="curve"/>
			<point x="27" y="318" type="line"/>
		</contour>
	</outline>
</glyph>
<glyph name="servicemark" format="2">
	<unicode hex="2120"/>
	<advance width="600"/>
	<outline>
		<contour>
			<point x="151" y="337" type="curve" smooth="yes"/>
			<point x="235" y="337"/>
			<point x="284" y="389"/>
			<point x="284" y="459" type="curve" smooth="yes"/>
			<point x="284" y="521"/>
			<point x="249" y="534"/>
			<point x="194" y="552" type="curve" smooth="yes"/>
			<point x="158" y="564"/>
			<point x="144" y="570"/>
			<point x="144" y="589" type="curve" smooth="yes"/>
			<point x="144" y="612"/>
			<point x="160" y="622"/>
			<point x="187" y="622" type="curve" smooth="yes"/>
			<point x="231" y="622"/>
			<point x="272" y="606"/>
			<point x="297" y="587" type="curve"/>
			<point x="307" y="661" type="line"/>
			<point x="291" y="673"/>
			<point x="247" y="689"/>
			<point x="193" y="689" type="curve" smooth="yes"/>
			<point x="102" y="689"/>
			<point x="60" y="637"/>
			<point x="60" y="569" type="curve" smooth="yes"/>
			<point x="60" y="502"/>
			<point x="103" y="489"/>
			<point x="156" y="474" type="curve" smooth="yes"/>
			<point x="184" y="466"/>
			<point x="199" y="459"/>
			<point x="199" y="440" type="curve" smooth="yes"/>
			<point x="199" y="417"/>
			<point x="182" y="405"/>
			<point x="152" y="405" type="curve" smooth="yes"/>
			<point x="119" y="405"/>
			<point x="75" y="420"/>
			<point x="46" y="442" type="curve"/>
			<point x="35" y="370" type="line"/>
			<point x="56" y="355"/>
			<point x="96" y="337"/>
		</contour>
		<contour>
			<point x="301" y="342" type="line"/>
			<point x="373" y="342" type="line"/>
			<point x="386" y="439" type="line" smooth="yes"/>
			<point x="394" y="499"/>
			<point x="398" y="547"/>
			<point x="399" y="601" type="curve"/>
			<point x="404" y="601" type="line"/>
			<point x="422" y="428" type="line"/>
			<point x="486" y="428" type="line"/>
			<point x="554" y="601" type="line"/>
			<point x="558" y="601" type="line"/>
			<point x="544" y="544"/>
			<point x="535" y="498"/>
			<point x="527" y="440" type="curve" smooth="yes"/>
			<point x="513" y="342" type="line"/>
			<point x="585" y="342" type="line"/>
			<point x="633" y="684" type="line"/>
			<point x="526" y="684" type="line"/>
			<point x="466" y="511" type="line"/>
			<point x="464" y="511" type="line"/>
			<point x="452" y="684" type="line"/>
			<point x="349" y="684" type="line"/>
		</contour>
	</outline>
</glyph>
<glyph name="arrowdown" format="2">
	<unicode hex="2193"/>
	<advance width="600"/>
	<outline>
		<contour>
			<point x="540" y="369" type="line"/>
			<point x="358" y="207" type="line"/>
			<point x="425" y="684" type="line"/>
			<point x="293" y="684" type="line"/>
			<point x="226" y="208" type="line"/>
			<point x="90" y="369" type="line"/>
			<point x="67" y="205" type="line"/>
			<point x="260" y="-19" type="line"/>
			<point x="517" y="207" type="line"/>
		</contour>
	</outline>
</glyph>
<glyph name="uni2199" format="2">
	<unicode hex="2199"/>
	<advance width="600"/>
	<outline>
		<contour>
			<point x="6" y="63" type="line"/>
			<point x="331" y="63" type="line"/>
			<point x="462" y="178" type="line"/>
			<point x="234" y="175" type="line"/>
			<point x="616" y="512" type="line"/>
			<point x="531" y="611" type="line"/>
			<point x="151" y="275" type="line"/>
			<point x="184" y="501" type="line"/>
			<point x="52" y="386" type="line"/>
		</contour>
	</outline>
</glyph>
<glyph name="partialdiff" format="2">
	<unicode hex="2202"/>
	<advance width="600"/>
	<outline>
		<contour>
			<point x="277" y="-13" type="curve" smooth="yes"/>
			<point x="442" y="-13"/>
			<point x="535" y="97"/>
			<point x="560" y="264" type="curve" smooth="yes"/>
			<point x="562" y="277" type="line" smooth="yes"/>
			<point x="588" y="448"/>
			<point x="517" y="597"/>
			<point x="406" y="684" type="curve"/>
			<point x="167" y="684" type="line"/>
			<point x="305" y="594"/>
			<point x="366" y="512"/>
			<point x="391" y="416" type="curve"/>
			<point x="359" y="466"/>
			<point x="309" y="508"/>
			<point x="237" y="508" type="curve" smooth="yes"/>
			<point x="144" y="508"/>
			<point x="64" y="430"/>
			<point x="44" y="291" type="curve" smooth="yes"/>
			<point x="42" y="277" type="line" smooth="yes"/>
			<point x="18" y="107"/>
			<point x="94" y="-13"/>
		</contour>
		<contour>
			<point x="285" y="115" type="curve" smooth="yes"/>
			<point x="227" y="115"/>
			<point x="197" y="162"/>
			<point x="212" y="261" type="curve" smooth="yes"/>
			<point x="213" y="268" type="line" smooth="yes"/>
			<point x="226" y="359"/>
			<point x="261" y="397"/>
			<point x="312" y="397" type="curve" smooth="yes"/>
			<point x="366" y="397"/>
			<point x="402" y="358"/>
			<point x="387" y="256" type="curve" smooth="yes"/>
			<point x="386" y="249" type="line" smooth="yes"/>
			<point x="374" y="161"/>
			<point x="340" y="115"/>
		</contour>
	</outline>
</glyph>
<glyph name="increment" format="2">
	<unicode hex="2206"/>
	<advance width="600"/>
	<outline>
		<contour>
			<point x="-31" y="0" type="line"/>
			<point x="557" y="0" type="line"/>
			<point x="479" y="685" type="line"/>
			<point x="237" y="685" type="line"/>
		</contour>
		<contour>
			<point x="195" y="138" type="line"/>
			<point x="342" y="559" type="line"/>
			<point x="372" y="138" type="line"/>
		</contour>
	</outline>
</glyph>
<glyph name="product" format="2">
	<unicode hex="220F"/>
	<advance width="600"/>
	<outline>
		<contour>
			<point x="20" y="0" type="line"/>
			<point x="182" y="0" type="line"/>
			<point x="258" y="545" type="line"/>
			<point x="420" y="545" type="line"/>
			<point x="344" y="0" type="line"/>
			<point x="505" y="0" type="line"/>
			<point x="602" y="684" type="line"/>
			<point x="117" y="684" type="line"/>
		</contour>
	</outline>
</glyph>
<glyph name="summation" format="2">
	<unicode hex="2211"/>
	<advance width="600"/>
	<outline>
		<contour>
			<point x="13" y="0" type="line"/>
			<point x="515" y="0" type="line"/>
			<point x="535" y="138" type="line"/>
			<point x="246" y="138" type="line"/>
			<point x="451" y="287" type="line"/>
			<point x="467" y="400" type="line"/>
			<point x="302" y="548" type="line"/>
			<point x="591" y="548" type="line"/>
			<point x="609" y="684" type="line"/>
			<point x="111" y="684" type="line"/>
			<point x="92" y="545" type="line"/>
			<point x="310" y="347" type="line"/>
			<point x="35" y="149" type="line"/>
		</contour>
	</outline>
</glyph>
<glyph name="radical" format="2">
	<unicode hex="221A"/>
	<advance width="600"/>
	<outline>
		<contour>
			<point x="121" y="0" type="line"/>
			<point x="337" y="0" type="line"/>
			<point x="651" y="684" type="line"/>
			<point x="468" y="684" type="line"/>
			<point x="252" y="177" type="line"/>
			<point x="223" y="450" type="line"/>
			<point x="44" y="450" type="line"/>
			<point x="25" y="306" type="line"/>
			<point x="78" y="306" type="line"/>
		</contour>
	</outline>
</glyph>
<glyph name="infinity" format="2">
	<unicode hex="221E"/>
	<advance width="600"/>
	<outline>
		<contour>
			<point x="205" y="592" type="curve" smooth="yes"/>
			<point x="106" y="592"/>
			<point x="53" y="514"/>
			<point x="29" y="349" type="curve" smooth="yes"/>
			<point x="2" y="163"/>
			<point x="44" y="75"/>
			<point x="150" y="75" type="curve" smooth="yes"/>
			<point x="225" y="75"/>
			<point x="269" y="131"/>
			<point x="292" y="208" type="curve"/>
			<point x="299" y="133"/>
			<point x="335" y="74"/>
			<point x="415" y="74" type="curve" smooth="yes"/>
			<point x="517" y="74"/>
			<point x="567" y="163"/>
			<point x="590" y="324" type="curve" smooth="yes"/>
			<point x="615" y="507"/>
			<point x="569" y="591"/>
			<point x="470" y="591" type="curve" smooth="yes"/>
			<point x="388" y="591"/>
			<point x="349" y="530"/>
			<point x="326" y="459" type="curve"/>
			<point x="320" y="531"/>
			<point x="286" y="592"/>
		</contour>
		<contour>
			<point x="183" y="201" type="curve" smooth="yes"/>
			<point x="144" y="201"/>
			<point x="132" y="239"/>
			<point x="146" y="345" type="curve" smooth="yes"/>
			<point x="159" y="434"/>
			<point x="178" y="466"/>
			<point x="211" y="466" type="curve" smooth="yes"/>
			<point x="249" y="466"/>
			<point x="262" y="430"/>
			<point x="247" y="326" type="curve" smooth="yes"/>
			<point x="234" y="235"/>
			<point x="218" y="201"/>
		</contour>
		<contour>
			<point x="406" y="201" type="curve" smooth="yes"/>
			<point x="373" y="201"/>
			<point x="354" y="230"/>
			<point x="369" y="342" type="curve" smooth="yes"/>
			<point x="382" y="433"/>
			<point x="400" y="466"/>
			<point x="435" y="466" type="curve" smooth="yes"/>
			<point x="476" y="466"/>
			<point x="484" y="418"/>
			<point x="471" y="326" type="curve" smooth="yes"/>
			<point x="459" y="236"/>
			<point x="442" y="201"/>
		</contour>
	</outline>
</glyph>
<glyph name="integral" format="2">
	<unicode hex="222B"/>
	<advance width="600"/>
	<outline>
		<contour>
			<point x="102" y="-204" type="curve" smooth="yes"/>
			<point x="226" y="-204"/>
			<point x="316" y="-147"/>
			<point x="334" y="-13" type="curve" smooth="yes"/>
			<point x="403" y="483" type="line" smooth="yes"/>
			<point x="411" y="544"/>
			<point x="444" y="570"/>
			<point x="500" y="570" type="curve" smooth="yes"/>
			<point x="531" y="570"/>
			<point x="555" y="564"/>
			<point x="569" y="560" type="curve"/>
			<point x="585" y="678" type="line"/>
			<point x="564" y="688"/>
			<point x="525" y="697"/>
			<point x="466" y="697" type="curve" smooth="yes"/>
			<point x="359" y="697"/>
			<point x="261" y="655"/>
			<point x="240" y="504" type="curve" smooth="yes"/>
			<point x="170" y="1" type="line" smooth="yes"/>
			<point x="162" y="-58"/>
			<point x="131" y="-82"/>
			<point x="67" y="-82" type="curve" smooth="yes"/>
			<point x="46" y="-82"/>
			<point x="22" y="-78"/>
			<point x="2" y="-73" type="curve"/>
			<point x="-14" y="-186" type="line"/>
			<point x="10" y="-196"/>
			<point x="51" y="-204"/>
		</contour>
	</outline>
</glyph>
<glyph name="approxequal" format="2">
	<unicode hex="2248"/>
	<advance width="600"/>
	<outline>
		<contour>
			<point x="184" y="368" type="curve" smooth="yes"/>
			<point x="254" y="368"/>
			<point x="339" y="312"/>
			<point x="438" y="312" type="curve" smooth="yes"/>
			<point x="482" y="312"/>
			<point x="530" y="328"/>
			<point x="550" y="353" type="curve"/>
			<point x="571" y="499" type="line"/>
			<point x="533" y="459"/>
			<point x="493" y="451"/>
			<point x="450" y="451" type="curve" smooth="yes"/>
			<point x="382" y="453"/>
			<point x="286" y="507"/>
			<point x="203" y="507" type="curve" smooth="yes"/>
			<point x="161" y="507"/>
			<point x="112" y="492"/>
			<point x="91" y="467" type="curve"/>
			<point x="71" y="320" type="line"/>
			<point x="100" y="353"/>
			<point x="145" y="368"/>
		</contour>
		<contour>
			<point x="152" y="136" type="curve" smooth="yes"/>
			<point x="222" y="136"/>
			<point x="307" y="80"/>
			<point x="406" y="80" type="curve" smooth="yes"/>
			<point x="451" y="80"/>
			<point x="497" y="96"/>
			<point x="518" y="121" type="curve"/>
			<point x="538" y="267" type="line"/>
			<point x="503" y="230"/>
			<point x="464" y="217"/>
			<point x="418" y="219" type="curve" smooth="yes"/>
			<point x="359" y="221"/>
			<point x="252" y="275"/>
			<point x="168" y="275" type="curve" smooth="yes"/>
			<point x="126" y="275"/>
			<point x="79" y="259"/>
			<point x="59" y="235" type="curve"/>
			<point x="38" y="88" type="line"/>
			<point x="68" y="121"/>
			<point x="115" y="136"/>
		</contour>
	</outline>
</glyph>
<glyph name="notequal" format="2">
	<unicode hex="2260"/>
	<advance width="600"/>
	<outline>
		<contour>
			<point x="82" y="38" type="line"/>
			<point x="196" y="38" type="line"/>
			<point x="242" y="109" type="line"/>
			<point x="516" y="109" type="line"/>
			<point x="535" y="247" type="line"/>
			<point x="332" y="247" type="line"/>
			<point x="390" y="336" type="line"/>
			<point x="548" y="336" type="line"/>
			<point x="567" y="474" type="line"/>
			<point x="480" y="474" type="line"/>
			<point x="526" y="544" type="line"/>
			<point x="412" y="544" type="line"/>
			<point x="366" y="474" type="line"/>
			<point x="93" y="474" type="line"/>
			<point x="73" y="336" type="line"/>
			<point x="276" y="336" type="line"/>
			<point x="218" y="247" type="line"/>
			<point x="61" y="247" type="line"/>
			<point x="41" y="109" type="line"/>
			<point x="128" y="109" type="line"/>
		</contour>
	</outline>
</glyph>
<glyph name="lozenge" format="2">
	<unicode hex="25CA"/>
	<advance width="600"/>
	<outline>
		<contour>
			<point x="155" y="0" type="line"/>
			<point x="373" y="0" type="line"/>
			<point x="600" y="335" type="line"/>
			<point x="470" y="684" type="line"/>
			<point x="252" y="684" type="line"/>
			<point x="22" y="347" type="line"/>
		</contour>
		<contour>
			<point x="198" y="341" type="line"/>
			<point x="347" y="568" type="line"/>
			<point x="424" y="343" type="line"/>
			<point x="278" y="117" type="line"/>
		</contour>
	</outline>
</glyph>
<glyph name="spade" format="2">
	<unicode hex="2660"/>
	<advance width="600"/>
	<outline>
		<contour>
			<point x="323" y="0" type="curve"/>
			<point x="577" y="0" type="line"/>
			<point x="552" y="50"/>
			<point x="479" y="166"/>
			<point x="479" y="284" type="curve"/>
			<point x="505" y="216"/>
			<point x="561" y="152"/>
			<point x="657" y="152" type="curve" smooth="yes"/>
			<point x="742" y="152"/>
			<point x="811" y="221"/>
			<point x="811" y="306" type="curve" smooth="yes"/>
			<point x="811" y="418"/>
			<point x="751" y="494"/>
			<point x="588" y="622" type="curve" smooth="yes"/>
			<point x="450" y="731" type="line"/>
			<point x="313" y="622" type="line" smooth="yes"/>
			<point x="151" y="493"/>
			<point x="82" y="418"/>
			<point x="82" y="306" type="curve" smooth="yes"/>
			<point x="82" y="221"/>
			<point x="159" y="151"/>
			<point x="250" y="151" type="curve" smooth="yes"/>
			<point x="339" y="151"/>
			<point x="392" y="216"/>
			<point x="416" y="284" type="curve"/>
			<point x="416" y="166"/>
			<point x="351" y="50"/>
		</contour>
	</outline>
</glyph>
<glyph name="anglebracketleft" format="2">
	<unicode hex="3008"/>
	<advance width="600"/>
	<outline>
		<contour>
			<point x="320" y="-163" type="line"/>
			<point x="492" y="-163" type="line"/>
			<point x="291" y="307" type="line"/>
			<point x="634" y="792" type="line"/>
			<point x="454" y="792" type="line"/>
			<point x="119" y="316" type="line"/>
		</contour>
	</outline>
</glyph>
<glyph name="commaaccent" format="2">
	<unicode hex="F6C3"/>
	<advance width="600"/>
	<outline>
		<contour>
			<point x="143" y="-287" type="curve"/>
			<point x="249" y="-287" type="line"/>
			<point x="294" y="-248"/>
			<point x="319" y="-206"/>
			<point x="328" y="-154" type="curve" smooth="yes"/>
			<point x="340" y="-88"/>
			<point x="320" y="-51"/>
			<point x="243" y="-51" type="curve" smooth="yes"/>
			<point x="185" y="-51"/>
			<point x="160" y="-74"/>
			<point x="153" y="-122" type="curve" smooth="yes"/>
			<point x="147" y="-165"/>
			<point x="161" y="-191"/>
			<point x="204" y="-197" type="curve"/>
			<point x="190" y="-230"/>
			<point x="168" y="-260"/>
		</contour>
	</outline>
	<anchor name="_bottom" x="261" y="0"/>
</glyph>
<glyph name="Anocross" format="2">
	<advance width="600"/>
	<outline>
		<contour>
			<point x="-31" y="0" type="line"/>
			<point x="145" y="0" type="line"/>
			<point x="343" y="560" type="line"/>
			<point x="385" y="0" type="line"/>
			<point x="557" y="0" type="line"/>
			<point x="481" y="685" type="line"/>
			<point x="238" y="685" type="line"/>
		</contour>
	</outline>
	<anchor name="ogonek" x="557" y="0"/>
	<anchor name="bottom" x="311" y="0"/>
	<anchor name="top" x="359" y="684"/>
</glyph>
<glyph name="Lslashcomb" format="2">
	<advance width="600"/>
	<outline>
		<contour>
			<point x="13" y="407" type="line"/>
			<point x="-4" y="290" type="line"/>
			<point x="429" y="446" type="line"/>
			<point x="446" y="563" type="line"/>
		</contour>
	</outline>
	<anchor name="_center" x="176" y="408"/>
</glyph>
<glyph name=".notdef" format="2">
	<advance width="600"/>
	<outline>
		<contour>
			<point x="75" y="-100" type="line"/>
			<point x="525" y="-100" type="line"/>
			<point x="525" y="784" type="line"/>
			<point x="75" y="784" type="line"/>
		</contour>
		<contour>
			<point x="203" y="15.2" type="line"/>
			<point x="203" y="668.8" type="line"/>
			<point x="397" y="668.8" type="line"/>
			<point x="397" y="15.2" type="line"/>
		</contour>
	</outline>
</glyph>
<glyph name="asciicircum_equal.cLig" format="2">
	<advance width="600"/>
	<outline>
		<contour>
			<point x="-458" y="329" type="line"/>
			<point x="-314" y="329" type="line"/>
			<point x="-177" y="559" type="line"/>
			<point x="-105" y="329" type="line"/>
			<point x="36" y="329" type="line"/>
			<point x="34" y="336" type="line"/>
			<point x="443" y="336" type="line"/>
			<point x="462" y="474" type="line"/>
			<point x="-12" y="474" type="line"/>
			<point x="-13" y="468" type="line"/>
			<point x="-88" y="683" type="line"/>
			<point x="-237" y="683" type="line"/>
		</contour>
		<contour>
			<point x="-64" y="109" type="line"/>
			<point x="411" y="109" type="line"/>
			<point x="430" y="247" type="line"/>
			<point x="-44" y="247" type="line"/>
		</contour>
	</outline>
</glyph>
<glyph name="asciitilde_asciitilde.cLig" format="2">
	<advance width="600"/>
	<outline>
		<contour>
			<point x="-101" y="179" type="curve"/>
			<point x="13" y="179"/>
			<point x="33" y="300"/>
			<point x="105" y="300" type="curve"/>
			<point x="176" y="300"/>
			<point x="177" y="179"/>
			<point x="312" y="179" type="curve"/>
			<point x="411" y="179"/>
			<point x="488" y="264"/>
			<point x="535" y="443" type="curve"/>
			<point x="406" y="443" type="line"/>
			<point x="381" y="370"/>
			<point x="355" y="331"/>
			<point x="309" y="330" type="curve"/>
			<point x="234" y="331"/>
			<point x="251" y="449"/>
			<point x="112" y="449" type="curve"/>
			<point x="-17" y="449"/>
			<point x="-27" y="331"/>
			<point x="-94" y="331" type="curve"/>
			<point x="-160" y="331"/>
			<point x="-160" y="449"/>
			<point x="-287" y="449" type="curve"/>
			<point x="-396" y="449"/>
			<point x="-471" y="368"/>
			<point x="-518" y="187" type="curve"/>
			<point x="-389" y="187" type="line"/>
			<point x="-366" y="261"/>
			<point x="-342" y="300"/>
			<point x="-292" y="300" type="curve"/>
			<point x="-224" y="300"/>
			<point x="-224" y="179"/>
		</contour>
	</outline>
</glyph>
<glyph name="asciitilde_asciitilde_greater.cLig" format="2">
	<advance width="600"/>
	<outline>
		<contour>
			<point x="133" y="629" type="line"/>
			<point x="308" y="388" type="line"/>
			<point x="23" y="389" type="line"/>
			<point x="-8" y="432"/>
			<point x="-52" y="451"/>
			<point x="-98" y="451" type="curve" smooth="yes"/>
			<point x="-208" y="451"/>
			<point x="-237" y="329"/>
			<point x="-306" y="329" type="curve" smooth="yes"/>
			<point x="-381" y="329"/>
			<point x="-384" y="448"/>
			<point x="-498" y="448" type="curve" smooth="yes"/>
			<point x="-603" y="448"/>
			<point x="-636" y="329"/>
			<point x="-703" y="329" type="curve"/>
			<point x="-777" y="329"/>
			<point x="-785" y="448"/>
			<point x="-906" y="448" type="curve" smooth="yes"/>
			<point x="-1002" y="448"/>
			<point x="-1097" y="369"/>
			<point x="-1135" y="189" type="curve"/>
			<point x="-1005" y="189" type="line"/>
			<point x="-986" y="250"/>
			<point x="-955" y="294"/>
			<point x="-906" y="294" type="curve" smooth="yes"/>
			<point x="-836" y="294"/>
			<point x="-831" y="178"/>
			<point x="-712" y="178" type="curve"/>
			<point x="-601" y="178"/>
			<point x="-577" y="293"/>
			<point x="-506" y="293" type="curve" smooth="yes"/>
			<point x="-431" y="293"/>
			<point x="-440" y="178"/>
			<point x="-316" y="178" type="curve" smooth="yes"/>
			<point x="-210" y="178"/>
			<point x="-185" y="299"/>
			<point x="-116" y="299" type="curve" smooth="yes"/>
			<point x="-82" y="299"/>
			<point x="-67" y="279"/>
			<point x="-52" y="239" type="curve"/>
			<point x="279" y="239" type="line"/>
			<point x="40" y="0" type="line"/>
			<point x="231" y="0" type="line"/>
			<point x="540" y="314" type="line"/>
			<point x="314" y="629" type="line"/>
		</contour>
	</outline>
</glyph>
<glyph name="asciitilde_at.cLig" format="2">
	<advance width="600"/>
	<outline>
		<contour>
			<point x="357" y="-19" type="curve"/>
			<point x="473" y="-19"/>
			<point x="542" y="79"/>
			<point x="568" y="258" type="curve" smooth="yes"/>
			<point x="570" y="272" type="line" smooth="yes"/>
			<point x="611" y="560"/>
			<point x="479" y="698"/>
			<point x="243" y="698" type="curve"/>
			<point x="0" y="698"/>
			<point x="-111" y="575"/>
			<point x="-177" y="378" type="curve" smooth="yes"/>
			<point x="-189" y="344"/>
			<point x="-201" y="322"/>
			<point x="-231" y="322" type="curve" smooth="yes"/>
			<point x="-285" y="322"/>
			<point x="-308" y="422"/>
			<point x="-408" y="422" type="curve" smooth="yes"/>
			<point x="-510" y="422"/>
			<point x="-565" y="344"/>
			<point x="-588" y="174" type="curve"/>
			<point x="-463" y="174" type="line"/>
			<point x="-454" y="238"/>
			<point x="-441" y="273"/>
			<point x="-400" y="273" type="curve" smooth="yes"/>
			<point x="-342" y="273"/>
			<point x="-319" y="169"/>
			<point x="-214" y="169" type="curve" smooth="yes"/>
			<point x="-132" y="169"/>
			<point x="-86" y="231"/>
			<point x="-59" y="322" type="curve" smooth="yes"/>
			<point x="-9" y="494"/>
			<point x="72" y="577"/>
			<point x="235" y="577" type="curve"/>
			<point x="412" y="577"/>
			<point x="471" y="480"/>
			<point x="443" y="287" type="curve" smooth="yes"/>
			<point x="442" y="280" type="line" smooth="yes"/>
			<point x="420" y="124"/>
			<point x="396" y="95"/>
			<point x="369" y="95" type="curve"/>
			<point x="345" y="95"/>
			<point x="336" y="106"/>
			<point x="344" y="165" type="curve" smooth="yes"/>
			<point x="388" y="480" type="line"/>
			<point x="265" y="480" type="line"/>
			<point x="253" y="398" type="line"/>
			<point x="241" y="454"/>
			<point x="216" y="491"/>
			<point x="153" y="491" type="curve" smooth="yes"/>
			<point x="70" y="491"/>
			<point x="16" y="421"/>
			<point x="-6" y="270" type="curve" smooth="yes"/>
			<point x="-23" y="146"/>
			<point x="9" y="61"/>
			<point x="97" y="61" type="curve" smooth="yes"/>
			<point x="162" y="61"/>
			<point x="201" y="110"/>
			<point x="225" y="165" type="curve"/>
			<point x="221" y="135" type="line" smooth="yes"/>
			<point x="208" y="33"/>
			<point x="265" y="-19"/>
		</contour>
		<contour>
			<point x="166" y="168" type="curve" smooth="yes"/>
			<point x="128" y="168"/>
			<point x="111" y="197"/>
			<point x="123" y="277" type="curve" smooth="yes"/>
			<point x="134" y="357"/>
			<point x="155" y="384"/>
			<point x="191" y="384" type="curve" smooth="yes"/>
			<point x="230" y="384"/>
			<point x="247" y="348"/>
			<point x="236" y="273" type="curve" smooth="yes"/>
			<point x="225" y="189"/>
			<point x="203" y="168"/>
		</contour>
	</outline>
</glyph>
<glyph name="asciitilde_greater.cLig" format="2">
	<advance width="600"/>
	<outline>
		<contour>
			<point x="121" y="629" type="line"/>
			<point x="296" y="389" type="line"/>
			<point x="-79" y="389" type="line"/>
			<point x="-89" y="350"/>
			<point x="-107" y="322"/>
			<point x="-143" y="322" type="curve" smooth="yes"/>
			<point x="-204" y="322"/>
			<point x="-228" y="439"/>
			<point x="-334" y="439" type="curve" smooth="yes"/>
			<point x="-430" y="439"/>
			<point x="-496" y="372"/>
			<point x="-518" y="188" type="curve"/>
			<point x="-392" y="188" type="line"/>
			<point x="-386" y="254"/>
			<point x="-368" y="287"/>
			<point x="-333" y="287" type="curve" smooth="yes"/>
			<point x="-278" y="287"/>
			<point x="-245" y="174"/>
			<point x="-136" y="174" type="curve" smooth="yes"/>
			<point x="-89" y="174"/>
			<point x="-47" y="192"/>
			<point x="-17" y="240" type="curve"/>
			<point x="-15" y="240" type="line"/>
			<point x="-15" y="239" type="line"/>
			<point x="267" y="239" type="line"/>
			<point x="28" y="0" type="line"/>
			<point x="219" y="0" type="line"/>
			<point x="529" y="314" type="line"/>
			<point x="302" y="629" type="line"/>
		</contour>
	</outline>
</glyph>
<glyph name="asciitilde_hyphen.cLig" format="2">
	<advance width="600"/>
	<outline>
		<contour>
			<point x="450" y="381" type="line"/>
			<point x="-1" y="381" type="line"/>
			<point x="-11" y="342"/>
			<point x="-29" y="314"/>
			<point x="-65" y="314" type="curve" smooth="yes"/>
			<point x="-126" y="314"/>
			<point x="-150" y="431"/>
			<point x="-256" y="431" type="curve" smooth="yes"/>
			<point x="-352" y="431"/>
			<point x="-418" y="364"/>
			<point x="-440" y="180" type="curve"/>
			<point x="-314" y="180" type="line"/>
			<point x="-308" y="246"/>
			<point x="-290" y="279"/>
			<point x="-255" y="279" type="curve" smooth="yes"/>
			<point x="-200" y="279"/>
			<point x="-167" y="166"/>
			<point x="-58" y="166" type="curve" smooth="yes"/>
			<point x="-11" y="166"/>
			<point x="31" y="184"/>
			<point x="61" y="232" type="curve"/>
			<point x="429" y="232" type="line"/>
		</contour>
	</outline>
</glyph>
<glyph name="aster_comp" format="2">
	<advance width="600"/>
	<outline>
		<contour>
			<point x="243" y="526" type="curve" smooth="yes"/>
			<point x="196" y="311" type="line"/>
			<point x="337" y="311" type="line"/>
			<point x="290" y="526" type="line" smooth="yes"/>
			<point x="286" y="541"/>
			<point x="280" y="548"/>
			<point x="273" y="550" type="curve"/>
			<point x="280" y="552"/>
			<point x="286" y="559"/>
			<point x="290" y="574" type="curve" smooth="yes"/>
			<point x="337" y="789" type="line"/>
			<point x="196" y="789" type="line"/>
			<point x="243" y="574" type="line" smooth="yes"/>
			<point x="247" y="559"/>
			<point x="253" y="552"/>
			<point x="261" y="550" type="curve"/>
			<point x="253" y="548"/>
			<point x="247" y="541"/>
		</contour>
	</outline>
</glyph>
<glyph name="asterisk_slash.cLig" format="2">
	<advance width="600"/>
	<outline>
		<contour>
			<point x="-92" y="129" type="line"/>
			<point x="6" y="265" type="line"/>
			<point x="-168" y="321" type="line"/>
			<point x="23" y="377" type="line"/>
			<point x="-37" y="514" type="line"/>
			<point x="-195" y="385" type="line"/>
			<point x="-127" y="570" type="line"/>
			<point x="-284" y="570" type="line"/>
			<point x="-267" y="383" type="line"/>
			<point x="-390" y="514" type="line"/>
			<point x="-488" y="378" type="line"/>
			<point x="-313" y="321" type="line"/>
			<point x="-504" y="266" type="line"/>
			<point x="-444" y="129" type="line"/>
			<point x="-284" y="260" type="line"/>
			<point x="-354" y="72" type="line"/>
			<point x="-197" y="72" type="line"/>
			<point x="-213" y="258" type="line"/>
		</contour>
		<contour>
			<point x="400" y="792" type="line"/>
			<point x="-66" y="-163" type="line"/>
			<point x="102" y="-163" type="line"/>
			<point x="569" y="792" type="line"/>
		</contour>
	</outline>
</glyph>
<glyph name="backslash_slash.cLig" format="2">
	<advance width="600"/>
	<outline>
		<contour>
			<point x="-170" y="-163" type="line"/>
			<point x="60" y="-163" type="line"/>
			<point x="527" y="792" type="line"/>
			<point x="358" y="792" type="line"/>
			<point x="-42" y="-27" type="line"/>
			<point x="-219" y="792" type="line"/>
			<point x="-377" y="792" type="line"/>
		</contour>
	</outline>
</glyph>
<glyph name="bar_bar_bar_greater.cLig" format="2">
	<advance width="600"/>
	<outline>
		<contour>
			<point x="-386" y="-79" type="line"/>
			<point x="-230" y="-79" type="line"/>
			<point x="326" y="222" type="line"/>
			<point x="352" y="407" type="line"/>
			<point x="-120" y="708" type="line"/>
			<point x="-276" y="708" type="line"/>
		</contour>
		<contour>
			<point x="-950" y="-80" type="line"/>
			<point x="-793" y="-80" type="line"/>
			<point x="-683" y="707" type="line"/>
			<point x="-840" y="707" type="line"/>
		</contour>
		<contour>
			<point x="-1513" y="-80" type="line"/>
			<point x="-1357" y="-80" type="line"/>
			<point x="-1247" y="707" type="line"/>
			<point x="-1403" y="707" type="line"/>
		</contour>
		<contour>
			<point x="-147" y="542" type="line"/>
			<point x="207" y="323" type="line"/>
			<point x="-207" y="104" type="line"/>
		</contour>
	</outline>
</glyph>
<glyph name="bar_bar_equal.fina" format="2">
	<advance width="600"/>
	<outline>
		<contour>
			<point x="-618" y="131" type="line"/>
			<point x="-167" y="131" type="line"/>
			<point x="-193" y="-55" type="line"/>
			<point x="-37" y="-55" type="line"/>
			<point x="67" y="684" type="line"/>
			<point x="-89" y="684" type="line"/>
			<point x="-115" y="498" type="line"/>
			<point x="-566" y="498" type="line"/>
			<point x="-586" y="359" type="line"/>
			<point x="-135" y="359" type="line"/>
			<point x="-147" y="270" type="line"/>
			<point x="-598" y="270" type="line"/>
		</contour>
		<contour>
			<point x="291" y="684" type="line"/>
			<point x="187" y="-55" type="line"/>
			<point x="343" y="-55" type="line"/>
			<point x="447" y="684" type="line"/>
		</contour>
	</outline>
</glyph>
<glyph name="bar_bar_equal.med" format="2">
	<advance width="600"/>
	<outline>
		<contour>
			<point x="67" y="-55" type="line"/>
			<point x="223" y="-55" type="line"/>
			<point x="249" y="131" type="line"/>
			<point x="581" y="131" type="line"/>
			<point x="601" y="270" type="line"/>
			<point x="269" y="270" type="line"/>
			<point x="281" y="359" type="line"/>
			<point x="613" y="359" type="line"/>
			<point x="633" y="498" type="line"/>
			<point x="301" y="498" type="line"/>
			<point x="327" y="684" type="line"/>
			<point x="171" y="684" type="line"/>
		</contour>
		<contour>
			<point x="-619" y="131" type="line"/>
			<point x="-287" y="131" type="line"/>
			<point x="-313" y="-55" type="line"/>
			<point x="-157" y="-55" type="line"/>
			<point x="-53" y="684" type="line"/>
			<point x="-209" y="684" type="line"/>
			<point x="-235" y="498" type="line"/>
			<point x="-567" y="498" type="line"/>
			<point x="-587" y="359" type="line"/>
			<point x="-255" y="359" type="line"/>
			<point x="-267" y="270" type="line"/>
			<point x="-599" y="270" type="line"/>
		</contour>
	</outline>
</glyph>
<glyph name="bar_bar_equal.rem" format="2">
	<advance width="600"/>
	<outline>
		<contour>
			<point x="-930" y="684" type="line"/>
			<point x="-1034" y="-55" type="line"/>
			<point x="-878" y="-55" type="line"/>
			<point x="-774" y="684" type="line"/>
		</contour>
		<contour>
			<point x="-549" y="684" type="line"/>
			<point x="-653" y="-55" type="line"/>
			<point x="-497" y="-55" type="line"/>
			<point x="-471" y="131" type="line"/>
			<point x="425" y="131" type="line"/>
			<point x="445" y="270" type="line"/>
			<point x="-451" y="270" type="line"/>
			<point x="-439" y="359" type="line"/>
			<point x="458" y="359" type="line"/>
			<point x="478" y="498" type="line"/>
			<point x="-419" y="498" type="line"/>
			<point x="-393" y="684" type="line"/>
		</contour>
	</outline>
</glyph>
<glyph name="bar_bar_hyphen.med" format="2">
	<advance width="600"/>
	<outline>
		<contour>
			<point x="67" y="-55" type="line"/>
			<point x="223" y="-55" type="line"/>
			<point x="265" y="239" type="line"/>
			<point x="597" y="239" type="line"/>
			<point x="618" y="389" type="line"/>
			<point x="286" y="389" type="line"/>
			<point x="327" y="684" type="line"/>
			<point x="171" y="684" type="line"/>
		</contour>
		<contour>
			<point x="-603" y="239" type="line"/>
			<point x="-271" y="239" type="line"/>
			<point x="-313" y="-55" type="line"/>
			<point x="-157" y="-55" type="line"/>
			<point x="-53" y="684" type="line"/>
			<point x="-209" y="684" type="line"/>
			<point x="-250" y="389" type="line"/>
			<point x="-582" y="389" type="line"/>
		</contour>
	</outline>
</glyph>
<glyph name="bar_braceright.cLig" format="2">
	<advance width="600"/>
	<outline>
		<contour>
			<point x="293" y="792" type="curve" smooth="yes"/>
			<point x="-5" y="792" type="line"/>
			<point x="-20" y="672" type="line"/>
			<point x="207" y="672" type="line" smooth="yes"/>
			<point x="250" y="672"/>
			<point x="272" y="658"/>
			<point x="272" y="627" type="curve" smooth="yes"/>
			<point x="272" y="558"/>
			<point x="152" y="523"/>
			<point x="152" y="421" type="curve" smooth="yes"/>
			<point x="153" y="375"/>
			<point x="191" y="333"/>
			<point x="258" y="316" type="curve"/>
			<point x="192" y="308"/>
			<point x="118" y="271"/>
			<point x="118" y="192" type="curve" smooth="yes"/>
			<point x="118" y="120"/>
			<point x="190" y="65"/>
			<point x="190" y="11" type="curve" smooth="yes"/>
			<point x="189" y="-28"/>
			<point x="163" y="-43"/>
			<point x="114" y="-43" type="curve" smooth="yes"/>
			<point x="-121" y="-43" type="line"/>
			<point x="-139" y="-163" type="line"/>
			<point x="185" y="-163" type="line" smooth="yes"/>
			<point x="284" y="-163"/>
			<point x="355" y="-101"/>
			<point x="355" y="-16" type="curve" smooth="yes"/>
			<point x="355" y="69"/>
			<point x="285" y="132"/>
			<point x="285" y="185" type="curve" smooth="yes"/>
			<point x="285" y="218"/>
			<point x="310" y="247"/>
			<point x="342" y="247" type="curve" smooth="yes"/>
			<point x="450" y="247" type="line"/>
			<point x="468" y="386" type="line"/>
			<point x="379" y="386" type="line" smooth="yes"/>
			<point x="340" y="386"/>
			<point x="327" y="411"/>
			<point x="326" y="434" type="curve" smooth="yes"/>
			<point x="326" y="507"/>
			<point x="450" y="542"/>
			<point x="450" y="662" type="curve" smooth="yes"/>
			<point x="450" y="737"/>
			<point x="395" y="792"/>
		</contour>
		<contour>
			<point x="-290" y="-163" type="line"/>
			<point x="-156" y="792" type="line"/>
			<point x="-311" y="792" type="line"/>
			<point x="-445" y="-163" type="line"/>
		</contour>
	</outline>
</glyph>
<glyph name="bar_equal.fina" format="2">
	<advance width="600"/>
	<outline>
		<contour>
			<point x="-18" y="131" type="line"/>
			<point x="313" y="131" type="line"/>
			<point x="287" y="-55" type="line"/>
			<point x="443" y="-55" type="line"/>
			<point x="547" y="684" type="line"/>
			<point x="391" y="684" type="line"/>
			<point x="365" y="498" type="line"/>
			<point x="34" y="498" type="line"/>
			<point x="14" y="359" type="line"/>
			<point x="345" y="359" type="line"/>
			<point x="333" y="270" type="line"/>
			<point x="2" y="270" type="line"/>
		</contour>
	</outline>
</glyph>
<glyph name="bar_equal.med" format="2">
	<advance width="600"/>
	<outline>
		<contour>
			<point x="-19" y="131" type="line"/>
			<point x="199" y="131" type="line"/>
			<point x="173" y="-55" type="line"/>
			<point x="329" y="-55" type="line"/>
			<point x="355" y="131" type="line"/>
			<point x="581" y="131" type="line"/>
			<point x="601" y="270" type="line"/>
			<point x="375" y="270" type="line"/>
			<point x="387" y="359" type="line"/>
			<point x="613" y="359" type="line"/>
			<point x="633" y="498" type="line"/>
			<point x="407" y="498" type="line"/>
			<point x="433" y="684" type="line"/>
			<point x="277" y="684" type="line"/>
			<point x="251" y="498" type="line"/>
			<point x="33" y="498" type="line"/>
			<point x="13" y="359" type="line"/>
			<point x="231" y="359" type="line"/>
			<point x="219" y="270" type="line"/>
			<point x="1" y="270" type="line"/>
		</contour>
	</outline>
</glyph>
<glyph name="bar_hyphen.med" format="2">
	<advance width="600"/>
	<outline>
		<contour>
			<point x="178" y="-55" type="line"/>
			<point x="334" y="-55" type="line"/>
			<point x="375" y="239" type="line"/>
			<point x="597" y="239" type="line"/>
			<point x="618" y="389" type="line"/>
			<point x="396" y="389" type="line"/>
			<point x="438" y="684" type="line"/>
			<point x="282" y="684" type="line"/>
			<point x="240" y="389" type="line"/>
			<point x="18" y="389" type="line"/>
			<point x="-3" y="239" type="line"/>
			<point x="219" y="239" type="line"/>
		</contour>
	</outline>
</glyph>
<glyph name="bar_hyphen_greater.rem" format="2">
	<advance width="600"/>
	<outline>
		<contour>
			<point x="-1081" y="0" type="line"/>
			<point x="-925" y="0" type="line"/>
			<point x="-892" y="239" type="line"/>
			<point x="218" y="239" type="line"/>
			<point x="-22" y="0" type="line"/>
			<point x="170" y="0" type="line"/>
			<point x="479" y="314" type="line"/>
			<point x="252" y="629" type="line"/>
			<point x="71" y="629" type="line"/>
			<point x="247" y="389" type="line"/>
			<point x="-871" y="389" type="line"/>
			<point x="-837" y="629" type="line"/>
			<point x="-993" y="629" type="line"/>
			<point x="-1027" y="389" type="line"/>
			<point x="-1048" y="239" type="line"/>
		</contour>
	</outline>
</glyph>
<glyph name="bar_underscore.med" format="2">
	<advance width="600"/>
	<outline>
		<contour>
			<point x="-46" y="-65" type="line"/>
			<point x="-63" y="-188" type="line"/>
			<point x="537" y="-188" type="line"/>
			<point x="554" y="-65" type="line"/>
			<point x="332" y="-65" type="line"/>
			<point x="452" y="792" type="line"/>
			<point x="297" y="792" type="line"/>
			<point x="177" y="-65" type="line"/>
		</contour>
	</outline>
</glyph>
<glyph name="braceleft_bar.cLig" format="2">
	<advance width="600"/>
	<outline>
		<contour>
			<point x="-278" y="-163" type="curve" smooth="yes"/>
			<point x="19" y="-163" type="line"/>
			<point x="35" y="-43" type="line"/>
			<point x="-192" y="-43" type="line" smooth="yes"/>
			<point x="-235" y="-43"/>
			<point x="-257" y="-29"/>
			<point x="-257" y="2" type="curve" smooth="yes"/>
			<point x="-257" y="71"/>
			<point x="-138" y="106"/>
			<point x="-138" y="208" type="curve" smooth="yes"/>
			<point x="-138" y="254"/>
			<point x="-177" y="296"/>
			<point x="-245" y="312" type="curve"/>
			<point x="-178" y="321"/>
			<point x="-103" y="358"/>
			<point x="-103" y="437" type="curve" smooth="yes"/>
			<point x="-103" y="508"/>
			<point x="-175" y="564"/>
			<point x="-175" y="618" type="curve" smooth="yes"/>
			<point x="-175" y="657"/>
			<point x="-148" y="672"/>
			<point x="-100" y="672" type="curve" smooth="yes"/>
			<point x="136" y="672" type="line"/>
			<point x="154" y="792" type="line"/>
			<point x="-170" y="792" type="line" smooth="yes"/>
			<point x="-269" y="792"/>
			<point x="-340" y="731"/>
			<point x="-340" y="645" type="curve" smooth="yes"/>
			<point x="-340" y="560"/>
			<point x="-270" y="497"/>
			<point x="-270" y="444" type="curve" smooth="yes"/>
			<point x="-270" y="411"/>
			<point x="-295" y="382"/>
			<point x="-327" y="382" type="curve" smooth="yes"/>
			<point x="-435" y="382" type="line"/>
			<point x="-453" y="243" type="line"/>
			<point x="-365" y="243" type="line" smooth="yes"/>
			<point x="-325" y="243"/>
			<point x="-311" y="218"/>
			<point x="-311" y="195" type="curve" smooth="yes"/>
			<point x="-311" y="122"/>
			<point x="-435" y="86"/>
			<point x="-435" y="-33" type="curve" smooth="yes"/>
			<point x="-435" y="-107"/>
			<point x="-380" y="-163"/>
		</contour>
		<contour>
			<point x="305" y="792" type="line"/>
			<point x="171" y="-163" type="line"/>
			<point x="326" y="-163" type="line"/>
			<point x="460" y="792" type="line"/>
		</contour>
	</outline>
</glyph>
<glyph name="braceleft_braceleft_numbersign.cLig" format="2">
	<advance width="600"/>
	<outline>
		<contour>
			<point x="-693" y="-163" type="line"/>
			<point x="-677" y="-43" type="line"/>
			<point x="-799" y="-43" type="line" smooth="yes"/>
			<point x="-842" y="-43"/>
			<point x="-864" y="-29"/>
			<point x="-864" y="2" type="curve" smooth="yes"/>
			<point x="-864" y="71"/>
			<point x="-745" y="106"/>
			<point x="-745" y="208" type="curve" smooth="yes"/>
			<point x="-745" y="254"/>
			<point x="-784" y="296"/>
			<point x="-852" y="312" type="curve"/>
			<point x="-786" y="321"/>
			<point x="-710" y="358"/>
			<point x="-710" y="437" type="curve" smooth="yes"/>
			<point x="-710" y="508"/>
			<point x="-782" y="564"/>
			<point x="-782" y="618" type="curve" smooth="yes"/>
			<point x="-782" y="657"/>
			<point x="-756" y="672"/>
			<point x="-707" y="672" type="curve" smooth="yes"/>
			<point x="-372" y="672" type="line"/>
			<point x="-434" y="660"/>
			<point x="-468" y="634"/>
			<point x="-468" y="585" type="curve" smooth="yes"/>
			<point x="-468" y="527"/>
			<point x="-396" y="483"/>
			<point x="-396" y="434" type="curve" smooth="yes"/>
			<point x="-396" y="402"/>
			<point x="-420" y="382"/>
			<point x="-469" y="382" type="curve" smooth="yes"/>
			<point x="-584" y="382" type="line"/>
			<point x="-603" y="243" type="line"/>
			<point x="-506" y="243" type="line" smooth="yes"/>
			<point x="-453" y="243"/>
			<point x="-437" y="226"/>
			<point x="-437" y="201" type="curve"/>
			<point x="-437" y="124"/>
			<point x="-562" y="86"/>
			<point x="-562" y="-33" type="curve" smooth="yes"/>
			<point x="-562" y="-107"/>
			<point x="-507" y="-163"/>
			<point x="-405" y="-163" type="curve" smooth="yes"/>
			<point x="-192" y="-163" type="line"/>
			<point x="-175" y="-43" type="line"/>
			<point x="-319" y="-43" type="line" smooth="yes"/>
			<point x="-362" y="-43"/>
			<point x="-384" y="-29"/>
			<point x="-384" y="2" type="curve" smooth="yes"/>
			<point x="-384" y="68"/>
			<point x="-263" y="111"/>
			<point x="-263" y="212" type="curve"/>
			<point x="-263" y="258"/>
			<point x="-302" y="297"/>
			<point x="-370" y="312" type="curve"/>
			<point x="-304" y="320"/>
			<point x="-228" y="349"/>
			<point x="-228" y="432" type="curve" smooth="yes"/>
			<point x="-228" y="502"/>
			<point x="-301" y="552"/>
			<point x="-301" y="612" type="curve" smooth="yes"/>
			<point x="-301" y="648"/>
			<point x="-274" y="672"/>
			<point x="-217" y="672" type="curve" smooth="yes"/>
			<point x="-75" y="672" type="line"/>
			<point x="-58" y="792" type="line"/>
			<point x="-778" y="792" type="line" smooth="yes"/>
			<point x="-876" y="792"/>
			<point x="-948" y="731"/>
			<point x="-948" y="645" type="curve" smooth="yes"/>
			<point x="-948" y="560"/>
			<point x="-878" y="497"/>
			<point x="-878" y="444" type="curve" smooth="yes"/>
			<point x="-878" y="411"/>
			<point x="-902" y="382"/>
			<point x="-935" y="382" type="curve" smooth="yes"/>
			<point x="-1050" y="382" type="line"/>
			<point x="-1069" y="243" type="line"/>
			<point x="-972" y="243" type="line" smooth="yes"/>
			<point x="-933" y="243"/>
			<point x="-919" y="218"/>
			<point x="-919" y="195" type="curve" smooth="yes"/>
			<point x="-919" y="122"/>
			<point x="-1043" y="86"/>
			<point x="-1043" y="-33" type="curve" smooth="yes"/>
			<point x="-1043" y="-107"/>
			<point x="-987" y="-163"/>
			<point x="-885" y="-163" type="curve" smooth="yes"/>
		</contour>
		<contour>
			<point x="-116" y="276" type="line"/>
			<point x="-133" y="153" type="line"/>
			<point x="-29" y="153" type="line"/>
			<point x="-65" y="0" type="line"/>
			<point x="61" y="0" type="line"/>
			<point x="97" y="153" type="line"/>
			<point x="199" y="153" type="line"/>
			<point x="163" y="0" type="line"/>
			<point x="288" y="0" type="line"/>
			<point x="324" y="153" type="line"/>
			<point x="425" y="153" type="line"/>
			<point x="442" y="276" type="line"/>
			<point x="353" y="276" type="line"/>
			<point x="385" y="413" type="line"/>
			<point x="484" y="413" type="line"/>
			<point x="502" y="537" type="line"/>
			<point x="414" y="537" type="line"/>
			<point x="449" y="684" type="line"/>
			<point x="324" y="684" type="line"/>
			<point x="289" y="537" type="line"/>
			<point x="187" y="537" type="line"/>
			<point x="221" y="684" type="line"/>
			<point x="96" y="684" type="line"/>
			<point x="61" y="537" type="line"/>
			<point x="-79" y="537" type="line"/>
			<point x="-97" y="413" type="line"/>
			<point x="32" y="413" type="line"/>
			<point x="0" y="276" type="line"/>
		</contour>
		<contour>
			<point x="126" y="276" type="line"/>
			<point x="158" y="413" type="line"/>
			<point x="260" y="413" type="line"/>
			<point x="228" y="276" type="line"/>
		</contour>
	</outline>
</glyph>
<glyph name="braceleft_numbersign.cLig" format="2">
	<advance width="600"/>
	<outline>
		<contour>
			<point x="-515" y="244" type="line"/>
			<point x="-426" y="244" type="line" smooth="yes"/>
			<point x="-387" y="244"/>
			<point x="-373" y="219"/>
			<point x="-373" y="195" type="curve" smooth="yes"/>
			<point x="-373" y="122"/>
			<point x="-497" y="86"/>
			<point x="-497" y="-33" type="curve" smooth="yes"/>
			<point x="-497" y="-107"/>
			<point x="-442" y="-163"/>
			<point x="-339" y="-163" type="curve" smooth="yes"/>
			<point x="-149" y="-163" type="line"/>
			<point x="-132" y="-44" type="line"/>
			<point x="-255" y="-44" type="line" smooth="yes"/>
			<point x="-298" y="-44"/>
			<point x="-320" y="-29"/>
			<point x="-320" y="2" type="curve" smooth="yes"/>
			<point x="-320" y="71"/>
			<point x="-201" y="106"/>
			<point x="-201" y="208" type="curve" smooth="yes"/>
			<point x="-201" y="254"/>
			<point x="-240" y="297"/>
			<point x="-307" y="312" type="curve"/>
			<point x="-242" y="321"/>
			<point x="-166" y="358"/>
			<point x="-166" y="437" type="curve" smooth="yes"/>
			<point x="-166" y="508"/>
			<point x="-238" y="564"/>
			<point x="-238" y="619" type="curve" smooth="yes"/>
			<point x="-238" y="658"/>
			<point x="-211" y="673"/>
			<point x="-162" y="673" type="curve" smooth="yes"/>
			<point x="-31" y="673" type="line"/>
			<point x="-14" y="792" type="line"/>
			<point x="-232" y="792" type="line" smooth="yes"/>
			<point x="-331" y="792"/>
			<point x="-402" y="731"/>
			<point x="-402" y="645" type="curve" smooth="yes"/>
			<point x="-402" y="560"/>
			<point x="-332" y="497"/>
			<point x="-332" y="443" type="curve" smooth="yes"/>
			<point x="-332" y="410"/>
			<point x="-357" y="382"/>
			<point x="-389" y="382" type="curve" smooth="yes"/>
			<point x="-496" y="382" type="line"/>
		</contour>
		<contour>
			<point x="-83" y="276" type="line"/>
			<point x="-100" y="153" type="line"/>
			<point x="4" y="153" type="line"/>
			<point x="-32" y="0" type="line"/>
			<point x="94" y="0" type="line"/>
			<point x="130" y="153" type="line"/>
			<point x="232" y="153" type="line"/>
			<point x="196" y="0" type="line"/>
			<point x="321" y="0" type="line"/>
			<point x="357" y="153" type="line"/>
			<point x="458" y="153" type="line"/>
			<point x="475" y="276" type="line"/>
			<point x="386" y="276" type="line"/>
			<point x="418" y="413" type="line"/>
			<point x="517" y="413" type="line"/>
			<point x="535" y="537" type="line"/>
			<point x="447" y="537" type="line"/>
			<point x="482" y="684" type="line"/>
			<point x="357" y="684" type="line"/>
			<point x="322" y="537" type="line"/>
			<point x="220" y="537" type="line"/>
			<point x="254" y="684" type="line"/>
			<point x="129" y="684" type="line"/>
			<point x="94" y="537" type="line"/>
			<point x="-46" y="537" type="line"/>
			<point x="-64" y="413" type="line"/>
			<point x="65" y="413" type="line"/>
			<point x="33" y="276" type="line"/>
		</contour>
		<contour>
			<point x="159" y="276" type="line"/>
			<point x="191" y="413" type="line"/>
			<point x="293" y="413" type="line"/>
			<point x="261" y="276" type="line"/>
		</contour>
	</outline>
</glyph>
<glyph name="braceright_braceright.cLig" format="2">
	<advance width="600"/>
	<outline>
		<contour>
			<point x="91" y="792" type="line"/>
			<point x="75" y="672" type="line"/>
			<point x="197" y="672" type="line" smooth="yes"/>
			<point x="240" y="672"/>
			<point x="262" y="658"/>
			<point x="262" y="627" type="curve" smooth="yes"/>
			<point x="262" y="558"/>
			<point x="143" y="523"/>
			<point x="143" y="421" type="curve" smooth="yes"/>
			<point x="143" y="375"/>
			<point x="182" y="333"/>
			<point x="250" y="317" type="curve"/>
			<point x="184" y="308"/>
			<point x="108" y="271"/>
			<point x="108" y="192" type="curve" smooth="yes"/>
			<point x="108" y="121"/>
			<point x="180" y="65"/>
			<point x="180" y="11" type="curve" smooth="yes"/>
			<point x="180" y="-28"/>
			<point x="154" y="-43"/>
			<point x="105" y="-43" type="curve" smooth="yes"/>
			<point x="-230" y="-43" type="line"/>
			<point x="-168" y="-31"/>
			<point x="-134" y="-5"/>
			<point x="-134" y="44" type="curve" smooth="yes"/>
			<point x="-134" y="102"/>
			<point x="-206" y="146"/>
			<point x="-206" y="195" type="curve" smooth="yes"/>
			<point x="-206" y="227"/>
			<point x="-182" y="247"/>
			<point x="-133" y="247" type="curve" smooth="yes"/>
			<point x="-18" y="247" type="line"/>
			<point x="1" y="386" type="line"/>
			<point x="-96" y="386" type="line" smooth="yes"/>
			<point x="-149" y="386"/>
			<point x="-165" y="403"/>
			<point x="-165" y="428" type="curve"/>
			<point x="-165" y="505"/>
			<point x="-40" y="543"/>
			<point x="-40" y="662" type="curve" smooth="yes"/>
			<point x="-40" y="736"/>
			<point x="-95" y="792"/>
			<point x="-197" y="792" type="curve" smooth="yes"/>
			<point x="-410" y="792" type="line"/>
			<point x="-427" y="672" type="line"/>
			<point x="-283" y="672" type="line" smooth="yes"/>
			<point x="-240" y="672"/>
			<point x="-218" y="658"/>
			<point x="-218" y="627" type="curve" smooth="yes"/>
			<point x="-218" y="561"/>
			<point x="-339" y="518"/>
			<point x="-339" y="417" type="curve"/>
			<point x="-339" y="371"/>
			<point x="-300" y="332"/>
			<point x="-232" y="317" type="curve"/>
			<point x="-298" y="309"/>
			<point x="-374" y="280"/>
			<point x="-374" y="197" type="curve" smooth="yes"/>
			<point x="-374" y="127"/>
			<point x="-301" y="77"/>
			<point x="-301" y="17" type="curve" smooth="yes"/>
			<point x="-301" y="-19"/>
			<point x="-328" y="-43"/>
			<point x="-385" y="-43" type="curve" smooth="yes"/>
			<point x="-527" y="-43" type="line"/>
			<point x="-544" y="-163" type="line"/>
			<point x="176" y="-163" type="line" smooth="yes"/>
			<point x="274" y="-163"/>
			<point x="346" y="-102"/>
			<point x="346" y="-16" type="curve" smooth="yes"/>
			<point x="346" y="69"/>
			<point x="276" y="132"/>
			<point x="276" y="185" type="curve" smooth="yes"/>
			<point x="276" y="218"/>
			<point x="300" y="247"/>
			<point x="333" y="247" type="curve" smooth="yes"/>
			<point x="448" y="247" type="line"/>
			<point x="467" y="386" type="line"/>
			<point x="370" y="386" type="line" smooth="yes"/>
			<point x="331" y="386"/>
			<point x="317" y="411"/>
			<point x="317" y="434" type="curve" smooth="yes"/>
			<point x="317" y="507"/>
			<point x="441" y="543"/>
			<point x="441" y="662" type="curve" smooth="yes"/>
			<point x="441" y="736"/>
			<point x="385" y="792"/>
			<point x="283" y="792" type="curve" smooth="yes"/>
		</contour>
	</outline>
</glyph>
<glyph name="bracketleft_bracketleft.cLig" format="2">
	<advance width="600"/>
	<outline>
		<contour>
			<point x="404" y="-43" type="line"/>
			<point x="201" y="-43" type="line"/>
			<point x="302" y="672" type="line"/>
			<point x="505" y="672" type="line"/>
			<point x="522" y="792" type="line"/>
			<point x="163" y="792" type="line"/>
			<point x="28" y="-163" type="line"/>
			<point x="387" y="-163" type="line"/>
		</contour>
		<contour>
			<point x="-32" y="-43" type="line"/>
			<point x="-287" y="-43" type="line"/>
			<point x="-187" y="672" type="line"/>
			<point x="69" y="672" type="line"/>
			<point x="86" y="792" type="line"/>
			<point x="-326" y="792" type="line"/>
			<point x="-461" y="-163" type="line"/>
			<point x="-49" y="-163" type="line"/>
		</contour>
	</outline>
</glyph>
<glyph name="bracketleft_numbersign.cLig" format="2">
	<advance width="600"/>
	<outline>
		<contour>
			<point x="-90" y="276" type="line"/>
			<point x="-107" y="153" type="line"/>
			<point x="-3" y="153" type="line"/>
			<point x="-39" y="0" type="line"/>
			<point x="87" y="0" type="line"/>
			<point x="123" y="153" type="line"/>
			<point x="225" y="153" type="line"/>
			<point x="189" y="0" type="line"/>
			<point x="314" y="0" type="line"/>
			<point x="350" y="153" type="line"/>
			<point x="451" y="153" type="line"/>
			<point x="468" y="276" type="line"/>
			<point x="379" y="276" type="line"/>
			<point x="411" y="413" type="line"/>
			<point x="510" y="413" type="line"/>
			<point x="528" y="537" type="line"/>
			<point x="440" y="537" type="line"/>
			<point x="475" y="684" type="line"/>
			<point x="350" y="684" type="line"/>
			<point x="315" y="537" type="line"/>
			<point x="213" y="537" type="line"/>
			<point x="247" y="684" type="line"/>
			<point x="122" y="684" type="line"/>
			<point x="87" y="537" type="line"/>
			<point x="-53" y="537" type="line"/>
			<point x="-71" y="413" type="line"/>
			<point x="58" y="413" type="line"/>
			<point x="26" y="276" type="line"/>
		</contour>
		<contour>
			<point x="152" y="276" type="line"/>
			<point x="184" y="413" type="line"/>
			<point x="286" y="413" type="line"/>
			<point x="254" y="276" type="line"/>
		</contour>
		<contour>
			<point x="-135" y="-44" type="line"/>
			<point x="-331" y="-44" type="line"/>
			<point x="-231" y="673" type="line"/>
			<point x="-34" y="673" type="line"/>
			<point x="-17" y="792" type="line"/>
			<point x="-368" y="792" type="line"/>
			<point x="-503" y="-163" type="line"/>
			<point x="-152" y="-163" type="line"/>
		</contour>
	</outline>
</glyph>
<glyph name="caronSlovak" format="2">
	<advance width="600"/>
	<outline>
		<contour>
			<point x="277" y="563" type="line"/>
			<point x="362" y="563" type="line"/>
			<point x="467" y="750" type="line"/>
			<point x="310" y="750" type="line"/>
		</contour>
	</outline>
	<anchor name="_caron" x="310" y="750"/>
</glyph>
<glyph name="circumflex.cap" format="2">
	<advance width="600"/>
	<outline>
		<contour>
			<point x="161" y="743" type="line"/>
			<point x="307" y="743" type="line"/>
			<point x="383" y="825" type="line"/>
			<point x="435" y="743" type="line"/>
			<point x="572" y="743" type="line"/>
			<point x="476" y="884" type="line"/>
			<point x="298" y="884" type="line"/>
		</contour>
	</outline>
	<anchor name="_top" x="363" y="684"/>
</glyph>
<glyph name="colon_colon_colon.cLig" format="2">
	<advance width="600"/>
	<outline>
		<contour>
			<point x="-778" y="-12" type="curve" smooth="yes"/>
			<point x="-705" y="-12"/>
			<point x="-668" y="16"/>
			<point x="-658" y="83" type="curve" smooth="yes"/>
			<point x="-647" y="159"/>
			<point x="-684" y="191"/>
			<point x="-760" y="191" type="curve" smooth="yes"/>
			<point x="-834" y="191"/>
			<point x="-872" y="163"/>
			<point x="-881" y="96" type="curve" smooth="yes"/>
			<point x="-893" y="20"/>
			<point x="-856" y="-12"/>
		</contour>
		<contour>
			<point x="-730" y="328" type="curve" smooth="yes"/>
			<point x="-657" y="328"/>
			<point x="-620" y="356"/>
			<point x="-610" y="423" type="curve" smooth="yes"/>
			<point x="-599" y="499"/>
			<point x="-636" y="531"/>
			<point x="-712" y="531" type="curve" smooth="yes"/>
			<point x="-786" y="531"/>
			<point x="-824" y="503"/>
			<point x="-833" y="436" type="curve" smooth="yes"/>
			<point x="-845" y="360"/>
			<point x="-808" y="328"/>
		</contour>
		<contour>
			<point x="-332" y="-12" type="curve" smooth="yes"/>
			<point x="-259" y="-12"/>
			<point x="-222" y="16"/>
			<point x="-212" y="83" type="curve" smooth="yes"/>
			<point x="-201" y="159"/>
			<point x="-238" y="191"/>
			<point x="-314" y="191" type="curve" smooth="yes"/>
			<point x="-388" y="191"/>
			<point x="-426" y="163"/>
			<point x="-435" y="96" type="curve" smooth="yes"/>
			<point x="-447" y="20"/>
			<point x="-410" y="-12"/>
		</contour>
		<contour>
			<point x="-284" y="328" type="curve" smooth="yes"/>
			<point x="-211" y="328"/>
			<point x="-174" y="356"/>
			<point x="-164" y="423" type="curve" smooth="yes"/>
			<point x="-153" y="499"/>
			<point x="-190" y="531"/>
			<point x="-266" y="531" type="curve" smooth="yes"/>
			<point x="-340" y="531"/>
			<point x="-378" y="503"/>
			<point x="-387" y="436" type="curve" smooth="yes"/>
			<point x="-399" y="360"/>
			<point x="-362" y="328"/>
		</contour>
		<contour>
			<point x="114" y="-12" type="curve" smooth="yes"/>
			<point x="187" y="-12"/>
			<point x="224" y="16"/>
			<point x="234" y="83" type="curve" smooth="yes"/>
			<point x="245" y="159"/>
			<point x="208" y="191"/>
			<point x="132" y="191" type="curve" smooth="yes"/>
			<point x="58" y="191"/>
			<point x="20" y="163"/>
			<point x="11" y="96" type="curve" smooth="yes"/>
			<point x="-1" y="20"/>
			<point x="36" y="-12"/>
		</contour>
		<contour>
			<point x="162" y="328" type="curve" smooth="yes"/>
			<point x="235" y="328"/>
			<point x="272" y="356"/>
			<point x="282" y="423" type="curve" smooth="yes"/>
			<point x="293" y="499"/>
			<point x="256" y="531"/>
			<point x="180" y="531" type="curve" smooth="yes"/>
			<point x="106" y="531"/>
			<point x="68" y="503"/>
			<point x="59" y="436" type="curve" smooth="yes"/>
			<point x="47" y="360"/>
			<point x="84" y="328"/>
		</contour>
	</outline>
</glyph>
<glyph name="colon_colon_equal.cLig" format="2">
	<advance width="600"/>
	<outline>
		<contour>
			<point x="-824" y="326" type="curve" smooth="yes"/>
			<point x="-751" y="326"/>
			<point x="-714" y="354"/>
			<point x="-704" y="421" type="curve" smooth="yes"/>
			<point x="-693" y="497"/>
			<point x="-730" y="529"/>
			<point x="-806" y="529" type="curve" smooth="yes"/>
			<point x="-880" y="529"/>
			<point x="-918" y="501"/>
			<point x="-927" y="434" type="curve" smooth="yes"/>
			<point x="-939" y="358"/>
			<point x="-902" y="326"/>
		</contour>
		<contour>
			<point x="-421" y="326" type="curve" smooth="yes"/>
			<point x="-348" y="326"/>
			<point x="-311" y="354"/>
			<point x="-301" y="421" type="curve" smooth="yes"/>
			<point x="-290" y="497"/>
			<point x="-327" y="529"/>
			<point x="-403" y="529" type="curve" smooth="yes"/>
			<point x="-477" y="529"/>
			<point x="-515" y="501"/>
			<point x="-524" y="434" type="curve" smooth="yes"/>
			<point x="-536" y="358"/>
			<point x="-499" y="326"/>
		</contour>
		<contour>
			<point x="-106" y="329" type="line"/>
			<point x="390" y="329" type="line"/>
			<point x="410" y="468" type="line"/>
			<point x="-86" y="468" type="line"/>
		</contour>
		<contour>
			<point x="-137" y="101" type="line"/>
			<point x="359" y="101" type="line"/>
			<point x="379" y="241" type="line"/>
			<point x="-117" y="241" type="line"/>
		</contour>
		<contour>
			<point x="-865" y="30" type="curve" smooth="yes"/>
			<point x="-792" y="30"/>
			<point x="-755" y="58"/>
			<point x="-745" y="125" type="curve" smooth="yes"/>
			<point x="-734" y="201"/>
			<point x="-771" y="233"/>
			<point x="-847" y="233" type="curve" smooth="yes"/>
			<point x="-921" y="233"/>
			<point x="-959" y="205"/>
			<point x="-968" y="138" type="curve" smooth="yes"/>
			<point x="-980" y="62"/>
			<point x="-943" y="30"/>
		</contour>
		<contour>
			<point x="-462" y="30" type="curve" smooth="yes"/>
			<point x="-389" y="30"/>
			<point x="-352" y="58"/>
			<point x="-342" y="125" type="curve" smooth="yes"/>
			<point x="-331" y="201"/>
			<point x="-368" y="233"/>
			<point x="-444" y="233" type="curve" smooth="yes"/>
			<point x="-518" y="233"/>
			<point x="-556" y="205"/>
			<point x="-565" y="138" type="curve" smooth="yes"/>
			<point x="-577" y="62"/>
			<point x="-540" y="30"/>
		</contour>
	</outline>
</glyph>
<glyph name="colon_greater.cLig.x" format="2">
	<advance width="600"/>
	<outline>
		<contour>
			<point x="56" y="642" type="line"/>
			<point x="32" y="487" type="line"/>
			<point x="339" y="321" type="line"/>
			<point x="-13" y="158" type="line"/>
			<point x="-38" y="-12" type="line"/>
			<point x="447" y="223" type="line"/>
			<point x="473" y="408" type="line"/>
		</contour>
		<contour>
			<point x="-278" y="375" type="curve" smooth="yes"/>
			<point x="-205" y="375"/>
			<point x="-168" y="403"/>
			<point x="-158" y="470" type="curve" smooth="yes"/>
			<point x="-147" y="546"/>
			<point x="-184" y="578"/>
			<point x="-260" y="578" type="curve" smooth="yes"/>
			<point x="-334" y="578"/>
			<point x="-372" y="550"/>
			<point x="-381" y="483" type="curve" smooth="yes"/>
			<point x="-393" y="407"/>
			<point x="-356" y="375"/>
		</contour>
		<contour>
			<point x="-326" y="35" type="curve" smooth="yes"/>
			<point x="-253" y="35"/>
			<point x="-216" y="63"/>
			<point x="-206" y="130" type="curve" smooth="yes"/>
			<point x="-195" y="206"/>
			<point x="-232" y="238"/>
			<point x="-308" y="238" type="curve" smooth="yes"/>
			<point x="-382" y="238"/>
			<point x="-420" y="210"/>
			<point x="-429" y="143" type="curve" smooth="yes"/>
			<point x="-441" y="67"/>
			<point x="-404" y="35"/>
		</contour>
	</outline>
</glyph>
<glyph name="dollar_greater.cLig" format="2">
	<advance width="600"/>
	<outline>
		<contour>
			<point x="-466" y="-93" type="line"/>
			<point x="-359" y="-93" type="line"/>
			<point x="-333" y="-10" type="line"/>
			<point x="-321" y="-11"/>
			<point x="-309" y="-11"/>
			<point x="-297" y="-11" type="curve" smooth="yes"/>
			<point x="-132" y="-11"/>
			<point x="-29" y="78"/>
			<point x="-29" y="227" type="curve" smooth="yes"/>
			<point x="-29" y="340"/>
			<point x="-91" y="380"/>
			<point x="-210" y="412" type="curve"/>
			<point x="-165" y="556" type="line"/>
			<point x="-98" y="545"/>
			<point x="-34" y="519"/>
			<point x="62" y="476" type="curve" smooth="yes"/>
			<point x="408" y="320" type="line"/>
			<point x="76" y="183" type="line"/>
			<point x="53" y="21" type="line"/>
			<point x="519" y="222" type="line"/>
			<point x="545" y="407" type="line"/>
			<point x="119" y="603" type="line" smooth="yes"/>
			<point x="18" y="649"/>
			<point x="-46" y="673"/>
			<point x="-109" y="685" type="curve"/>
			<point x="-82" y="774" type="line"/>
			<point x="-190" y="774" type="line"/>
			<point x="-215" y="695" type="line"/>
			<point x="-246" y="695" type="line" smooth="yes"/>
			<point x="-419" y="695"/>
			<point x="-514" y="607"/>
			<point x="-514" y="465" type="curve" smooth="yes"/>
			<point x="-514" y="343"/>
			<point x="-440" y="303"/>
			<point x="-335" y="276" type="curve"/>
			<point x="-379" y="134" type="line"/>
			<point x="-433" y="146"/>
			<point x="-490" y="170"/>
			<point x="-540" y="207" type="curve"/>
			<point x="-560" y="63" type="line"/>
			<point x="-529" y="40"/>
			<point x="-485" y="21"/>
			<point x="-435" y="7" type="curve"/>
		</contour>
		<contour>
			<point x="-349" y="491" type="curve" smooth="yes"/>
			<point x="-349" y="540"/>
			<point x="-316" y="563"/>
			<point x="-250" y="563" type="curve" smooth="yes"/>
			<point x="-243" y="563" type="line"/>
			<point x="-285" y="431" type="line"/>
			<point x="-333" y="445"/>
			<point x="-349" y="458"/>
		</contour>
		<contour>
			<point x="-193" y="197" type="curve" smooth="yes"/>
			<point x="-193" y="146"/>
			<point x="-234" y="125"/>
			<point x="-299" y="125" type="curve" smooth="yes"/>
			<point x="-302" y="125" type="line"/>
			<point x="-260" y="259" type="line"/>
			<point x="-215" y="248"/>
			<point x="-193" y="234"/>
		</contour>
	</outline>
</glyph>
<glyph name="dotaccent.cap" format="2">
	<advance width="600"/>
	<outline>
		<contour>
			<point x="373" y="740" type="curve" smooth="yes"/>
			<point x="445" y="740"/>
			<point x="467" y="764"/>
			<point x="472" y="817" type="curve" smooth="yes"/>
			<point x="478" y="871"/>
			<point x="446" y="892"/>
			<point x="383" y="892" type="curve" smooth="yes"/>
			<point x="311" y="892"/>
			<point x="287" y="868"/>
			<point x="283" y="812" type="curve" smooth="yes"/>
			<point x="279" y="764"/>
			<point x="306" y="740"/>
		</contour>
	</outline>
	<anchor name="_top" x="360" y="684"/>
</glyph>
<glyph name="dotbelow" format="2">
	<advance width="600"/>
	<outline>
		<contour>
			<point x="237" y="-219" type="curve" smooth="yes"/>
			<point x="304" y="-219"/>
			<point x="331" y="-192"/>
			<point x="338" y="-135" type="curve" smooth="yes"/>
			<point x="345" y="-75"/>
			<point x="319" y="-45"/>
			<point x="250" y="-45" type="curve" smooth="yes"/>
			<point x="188" y="-45"/>
			<point x="156" y="-68"/>
			<point x="149" y="-128" type="curve" smooth="yes"/>
			<point x="142" y="-189"/>
			<point x="166" y="-219"/>
		</contour>
	</outline>
	<anchor name="bottom" x="263" y="0"/>
</glyph>
<glyph name="equal.den" format="2">
	<advance width="600"/>
	<outline>
		<contour>
			<point x="146" y="306" type="line"/>
			<point x="134" y="218" type="line"/>
			<point x="454" y="218" type="line"/>
			<point x="467" y="306" type="line"/>
		</contour>
		<contour>
			<point x="126" y="163" type="line"/>
			<point x="114" y="75" type="line"/>
			<point x="435" y="75" type="line"/>
			<point x="447" y="163" type="line"/>
		</contour>
	</outline>
</glyph>
<glyph name="equal.med" format="2">
	<advance width="600"/>
	<outline>
		<contour>
			<point x="13" y="359" type="line"/>
			<point x="613" y="359" type="line"/>
			<point x="633" y="498" type="line"/>
			<point x="33" y="498" type="line"/>
		</contour>
		<contour>
			<point x="-19" y="131" type="line"/>
			<point x="581" y="131" type="line"/>
			<point x="601" y="270" type="line"/>
			<point x="1" y="270" type="line"/>
		</contour>
	</outline>
</glyph>
<glyph name="equal_bar.rem" format="2">
	<advance width="600"/>
	<outline>
		<contour>
			<point x="344" y="-55" type="line"/>
			<point x="448" y="684" type="line"/>
			<point x="292" y="684" type="line"/>
			<point x="265" y="498" type="line"/>
			<point x="-411" y="498" type="line"/>
			<point x="-431" y="359" type="line"/>
			<point x="246" y="359" type="line"/>
			<point x="233" y="270" type="line"/>
			<point x="-444" y="270" type="line"/>
			<point x="-464" y="131" type="line"/>
			<point x="214" y="131" type="line"/>
			<point x="188" y="-55" type="line"/>
		</contour>
	</outline>
</glyph>
<glyph name="equal_bar_bar.rem" format="2">
	<advance width="600"/>
	<outline>
		<contour>
			<point x="344" y="-55" type="line"/>
			<point x="448" y="684" type="line"/>
			<point x="292" y="684" type="line"/>
			<point x="188" y="-55" type="line"/>
		</contour>
		<contour>
			<point x="-37" y="-55" type="line"/>
			<point x="67" y="684" type="line"/>
			<point x="-89" y="684" type="line"/>
			<point x="-115" y="498" type="line"/>
			<point x="-1011" y="498" type="line"/>
			<point x="-1031" y="359" type="line"/>
			<point x="-135" y="359" type="line"/>
			<point x="-147" y="270" type="line"/>
			<point x="-1044" y="270" type="line"/>
			<point x="-1064" y="131" type="line"/>
			<point x="-167" y="131" type="line"/>
			<point x="-193" y="-55" type="line"/>
		</contour>
	</outline>
</glyph>
<glyph name="equal_colon_equal.rem" format="2">
	<advance width="600"/>
	<outline>
		<contour>
			<point x="-285" y="326" type="curve" smooth="yes"/>
			<point x="-212" y="326"/>
			<point x="-175" y="354"/>
			<point x="-165" y="421" type="curve" smooth="yes"/>
			<point x="-154" y="497"/>
			<point x="-191" y="529"/>
			<point x="-267" y="529" type="curve" smooth="yes"/>
			<point x="-341" y="529"/>
			<point x="-379" y="501"/>
			<point x="-388" y="434" type="curve" smooth="yes"/>
			<point x="-400" y="358"/>
			<point x="-363" y="326"/>
		</contour>
		<contour>
			<point x="-31" y="329" type="line"/>
			<point x="453" y="329" type="line"/>
			<point x="473" y="468" type="line"/>
			<point x="-11" y="468" type="line"/>
		</contour>
		<contour>
			<point x="-1035" y="329" type="line"/>
			<point x="-551" y="329" type="line"/>
			<point x="-531" y="468" type="line"/>
			<point x="-1015" y="468" type="line"/>
		</contour>
		<contour>
			<point x="-1067" y="101" type="line"/>
			<point x="-583" y="101" type="line"/>
			<point x="-563" y="241" type="line"/>
			<point x="-1047" y="241" type="line"/>
		</contour>
		<contour>
			<point x="-63" y="101" type="line"/>
			<point x="421" y="101" type="line"/>
			<point x="441" y="241" type="line"/>
			<point x="-43" y="241" type="line"/>
		</contour>
		<contour>
			<point x="-327" y="30" type="curve" smooth="yes"/>
			<point x="-254" y="30"/>
			<point x="-217" y="58"/>
			<point x="-207" y="125" type="curve" smooth="yes"/>
			<point x="-196" y="201"/>
			<point x="-233" y="233"/>
			<point x="-309" y="233" type="curve" smooth="yes"/>
			<point x="-383" y="233"/>
			<point x="-421" y="205"/>
			<point x="-430" y="138" type="curve" smooth="yes"/>
			<point x="-442" y="62"/>
			<point x="-405" y="30"/>
		</contour>
	</outline>
</glyph>
<glyph name="equal_equal.cLig" format="2">
	<advance width="600"/>
	<outline>
		<contour>
			<point x="-434" y="336" type="line"/>
			<point x="454" y="336" type="line"/>
			<point x="473" y="474" type="line"/>
			<point x="-414" y="474" type="line"/>
		</contour>
		<contour>
			<point x="-466" y="109" type="line"/>
			<point x="422" y="109" type="line"/>
			<point x="441" y="247" type="line"/>
			<point x="-446" y="247" type="line"/>
		</contour>
	</outline>
</glyph>
<glyph name="equal_exclam_equal.rem" format="2">
	<advance width="600"/>
	<outline>
		<contour>
			<point x="-364" y="241" type="line"/>
			<point x="-244" y="241" type="line"/>
			<point x="-168" y="565" type="line"/>
			<point x="-150" y="684" type="line"/>
			<point x="-333" y="684" type="line"/>
			<point x="-350" y="565" type="line"/>
		</contour>
		<contour>
			<point x="-31" y="329" type="line"/>
			<point x="453" y="329" type="line"/>
			<point x="473" y="468" type="line"/>
			<point x="-11" y="468" type="line"/>
		</contour>
		<contour>
			<point x="-1035" y="329" type="line"/>
			<point x="-551" y="329" type="line"/>
			<point x="-531" y="468" type="line"/>
			<point x="-1015" y="468" type="line"/>
		</contour>
		<contour>
			<point x="-1067" y="101" type="line"/>
			<point x="-583" y="101" type="line"/>
			<point x="-563" y="241" type="line"/>
			<point x="-1047" y="241" type="line"/>
		</contour>
		<contour>
			<point x="-63" y="101" type="line"/>
			<point x="421" y="101" type="line"/>
			<point x="441" y="241" type="line"/>
			<point x="-43" y="241" type="line"/>
		</contour>
		<contour>
			<point x="-333" y="-12" type="curve" smooth="yes"/>
			<point x="-266" y="-12"/>
			<point x="-233" y="13"/>
			<point x="-224" y="72" type="curve" smooth="yes"/>
			<point x="-213" y="144"/>
			<point x="-250" y="173"/>
			<point x="-320" y="173" type="curve" smooth="yes"/>
			<point x="-386" y="173"/>
			<point x="-420" y="148"/>
			<point x="-428" y="90" type="curve" smooth="yes"/>
			<point x="-439" y="17"/>
			<point x="-402" y="-12"/>
		</contour>
	</outline>
</glyph>
<glyph name="equal_greater_greater.rem" format="2">
	<advance width="600"/>
	<outline>
		<contour>
			<point x="3" y="0" type="line"/>
			<point x="202" y="0" type="line"/>
			<point x="486" y="312" type="line"/>
			<point x="259" y="629" type="line"/>
			<point x="76" y="629" type="line"/>
			<point x="299" y="319" type="line"/>
		</contour>
		<contour>
			<point x="-1064" y="131" type="line"/>
			<point x="-272" y="131" type="line"/>
			<point x="-398" y="0" type="line"/>
			<point x="-200" y="0" type="line"/>
			<point x="94" y="311" type="line"/>
			<point x="-127" y="629" type="line"/>
			<point x="-309" y="629" type="line"/>
			<point x="-218" y="498" type="line"/>
			<point x="-1011" y="498" type="line"/>
			<point x="-1031" y="359" type="line"/>
			<point x="-121" y="359" type="line"/>
			<point x="-92" y="317" type="line"/>
			<point x="-137" y="270" type="line"/>
			<point x="-1044" y="270" type="line"/>
		</contour>
	</outline>
</glyph>
<glyph name="equal_slash_equal.rem" format="2">
	<advance width="600"/>
	<outline>
		<contour>
			<point x="-1065" y="109" type="line"/>
			<point x="-508" y="109" type="line"/>
			<point x="-653" y="-80" type="line"/>
			<point x="-501" y="-80" type="line"/>
			<point x="-356" y="109" type="line"/>
			<point x="422" y="109" type="line"/>
			<point x="441" y="247" type="line"/>
			<point x="-250" y="247" type="line"/>
			<point x="-182" y="336" type="line"/>
			<point x="454" y="336" type="line"/>
			<point x="473" y="474" type="line"/>
			<point x="-76" y="474" type="line"/>
			<point x="54" y="644" type="line"/>
			<point x="-99" y="644" type="line"/>
			<point x="-229" y="474" type="line"/>
			<point x="-1013" y="474" type="line"/>
			<point x="-1033" y="336" type="line"/>
			<point x="-334" y="336" type="line"/>
			<point x="-403" y="247" type="line"/>
			<point x="-1045" y="247" type="line"/>
		</contour>
	</outline>
</glyph>
<glyph name="exclam_asciitilde.cLig" format="2">
	<advance width="600"/>
	<outline>
		<contour>
			<point x="-350" y="-65" type="line"/>
			<point x="-199" y="-65" type="line"/>
			<point x="-69" y="101" type="line"/>
			<point x="297" y="101" type="line"/>
			<point x="317" y="241" type="line"/>
			<point x="40" y="241" type="line"/>
			<point x="92" y="308" type="line"/>
			<point x="115" y="303"/>
			<point x="139" y="299"/>
			<point x="167" y="299" type="curve" smooth="yes"/>
			<point x="240" y="299"/>
			<point x="299" y="328"/>
			<point x="335" y="372" type="curve"/>
			<point x="356" y="522" type="line"/>
			<point x="300" y="461"/>
			<point x="255" y="442"/>
			<point x="196" y="440" type="curve"/>
			<point x="355" y="644" type="line"/>
			<point x="204" y="644" type="line"/>
			<point x="68" y="470" type="line"/>
			<point x="13" y="494"/>
			<point x="-45" y="524"/>
			<point x="-120" y="524" type="curve" smooth="yes"/>
			<point x="-188" y="524"/>
			<point x="-258" y="495"/>
			<point x="-294" y="452" type="curve"/>
			<point x="-315" y="301" type="line"/>
			<point x="-267" y="357"/>
			<point x="-202" y="383"/>
			<point x="-138" y="383" type="curve" smooth="yes"/>
			<point x="-95" y="383"/>
			<point x="-60" y="369"/>
			<point x="-24" y="352" type="curve"/>
			<point x="-111" y="241" type="line"/>
			<point x="-323" y="241" type="line"/>
			<point x="-343" y="101" type="line"/>
			<point x="-221" y="101" type="line"/>
		</contour>
	</outline>
</glyph>
<glyph name="exclam_equal.med" format="2">
	<advance width="600"/>
	<outline>
		<contour>
			<point x="237" y="241" type="line"/>
			<point x="357" y="241" type="line"/>
			<point x="433" y="565" type="line"/>
			<point x="451" y="684" type="line"/>
			<point x="268" y="684" type="line"/>
			<point x="251" y="565" type="line"/>
		</contour>
		<contour>
			<point x="519" y="361" type="line"/>
			<point x="613" y="361" type="line"/>
			<point x="633" y="501" type="line"/>
			<point x="539" y="501" type="line"/>
		</contour>
		<contour>
			<point x="14" y="361" type="line"/>
			<point x="107" y="361" type="line"/>
			<point x="127" y="501" type="line"/>
			<point x="33" y="501" type="line"/>
		</contour>
		<contour>
			<point x="488" y="134" type="line"/>
			<point x="582" y="134" type="line"/>
			<point x="602" y="274" type="line"/>
			<point x="508" y="274" type="line"/>
		</contour>
		<contour>
			<point x="-18" y="134" type="line"/>
			<point x="75" y="134" type="line"/>
			<point x="95" y="274" type="line"/>
			<point x="2" y="274" type="line"/>
		</contour>
		<contour>
			<point x="268" y="-12" type="curve" smooth="yes"/>
			<point x="335" y="-12"/>
			<point x="368" y="13"/>
			<point x="377" y="72" type="curve" smooth="yes"/>
			<point x="388" y="144"/>
			<point x="351" y="173"/>
			<point x="281" y="173" type="curve" smooth="yes"/>
			<point x="215" y="173"/>
			<point x="181" y="148"/>
			<point x="173" y="90" type="curve" smooth="yes"/>
			<point x="162" y="17"/>
			<point x="199" y="-12"/>
		</contour>
	</outline>
</glyph>
<glyph name="exclam_exclam.cLig" format="2">
	<advance width="600"/>
	<outline>
		<contour>
			<point x="-290" y="241" type="line"/>
			<point x="-170" y="241" type="line"/>
			<point x="-94" y="565" type="line"/>
			<point x="-76" y="684" type="line"/>
			<point x="-259" y="684" type="line"/>
			<point x="-276" y="565" type="line"/>
		</contour>
		<contour>
			<point x="-259" y="-12" type="curve" smooth="yes"/>
			<point x="-192" y="-12"/>
			<point x="-159" y="13"/>
			<point x="-150" y="72" type="curve" smooth="yes"/>
			<point x="-139" y="144"/>
			<point x="-176" y="173"/>
			<point x="-246" y="173" type="curve" smooth="yes"/>
			<point x="-312" y="173"/>
			<point x="-346" y="148"/>
			<point x="-354" y="90" type="curve" smooth="yes"/>
			<point x="-365" y="17"/>
			<point x="-328" y="-12"/>
		</contour>
		<contour>
			<point x="164" y="241" type="line"/>
			<point x="284" y="241" type="line"/>
			<point x="360" y="565" type="line"/>
			<point x="378" y="684" type="line"/>
			<point x="195" y="684" type="line"/>
			<point x="178" y="565" type="line"/>
		</contour>
		<contour>
			<point x="195" y="-12" type="curve" smooth="yes"/>
			<point x="262" y="-12"/>
			<point x="295" y="13"/>
			<point x="304" y="72" type="curve" smooth="yes"/>
			<point x="315" y="144"/>
			<point x="278" y="173"/>
			<point x="208" y="173" type="curve" smooth="yes"/>
			<point x="142" y="173"/>
			<point x="108" y="148"/>
			<point x="100" y="90" type="curve" smooth="yes"/>
			<point x="89" y="17"/>
			<point x="126" y="-12"/>
		</contour>
	</outline>
</glyph>
<glyph name="five.den" format="2">
	<advance width="600"/>
	<outline>
		<contour>
			<point x="259" y="-8" type="curve" smooth="yes"/>
			<point x="370" y="-8"/>
			<point x="439" y="53"/>
			<point x="438" y="151" type="curve" smooth="yes"/>
			<point x="438" y="222"/>
			<point x="395" y="257"/>
			<point x="308" y="257" type="curve" smooth="yes"/>
			<point x="292" y="257"/>
			<point x="278" y="256"/>
			<point x="264" y="254" type="curve"/>
			<point x="274" y="324" type="line"/>
			<point x="451" y="324" type="line"/>
			<point x="463" y="410" type="line"/>
			<point x="184" y="410" type="line"/>
			<point x="151" y="168" type="line"/>
			<point x="179" y="175"/>
			<point x="211" y="181"/>
			<point x="248" y="181" type="curve" smooth="yes"/>
			<point x="305" y="181"/>
			<point x="327" y="168"/>
			<point x="327" y="138" type="curve" smooth="yes"/>
			<point x="327" y="102"/>
			<point x="303" y="81"/>
			<point x="255" y="81" type="curve" smooth="yes"/>
			<point x="217" y="81"/>
			<point x="171" y="92"/>
			<point x="128" y="118" type="curve"/>
			<point x="116" y="31" type="line"/>
			<point x="141" y="12"/>
			<point x="193" y="-8"/>
		</contour>
	</outline>
</glyph>
<glyph name="five.numr" format="2">
	<advance width="600"/>
	<outline>
		<contour>
			<point x="312" y="366" type="curve" smooth="yes"/>
			<point x="406" y="366"/>
			<point x="465" y="421"/>
			<point x="465" y="502" type="curve" smooth="yes"/>
			<point x="465" y="561"/>
			<point x="430" y="589"/>
			<point x="356" y="589" type="curve" smooth="yes"/>
			<point x="343" y="589"/>
			<point x="331" y="588"/>
			<point x="320" y="587" type="curve"/>
			<point x="328" y="641" type="line"/>
			<point x="475" y="641" type="line"/>
			<point x="485" y="718" type="line"/>
			<point x="249" y="718" type="line"/>
			<point x="220" y="512" type="line"/>
			<point x="255" y="519"/>
			<point x="279" y="522"/>
			<point x="302" y="522" type="curve" smooth="yes"/>
			<point x="348" y="522"/>
			<point x="365" y="512"/>
			<point x="365" y="488" type="curve" smooth="yes"/>
			<point x="366" y="460"/>
			<point x="346" y="444"/>
			<point x="308" y="444" type="curve" smooth="yes"/>
			<point x="276" y="444"/>
			<point x="237" y="453"/>
			<point x="202" y="474" type="curve"/>
			<point x="191" y="396" type="line"/>
			<point x="213" y="381"/>
			<point x="258" y="366"/>
		</contour>
	</outline>
</glyph>
<glyph name="greater_equal.cLig" format="2">
	<advance width="600"/>
	<outline>
		<contour>
			<point x="-306" y="158" type="line"/>
			<point x="309" y="360" type="line"/>
			<point x="335" y="545" type="line"/>
			<point x="-224" y="748" type="line"/>
			<point x="-244" y="602" type="line"/>
			<point x="190" y="461" type="line"/>
			<point x="-284" y="310" type="line"/>
		</contour>
		<contour>
			<point x="-339" y="-77" type="line"/>
			<point x="275" y="122" type="line"/>
			<point x="296" y="264" type="line"/>
			<point x="-319" y="65" type="line"/>
		</contour>
	</outline>
</glyph>
<glyph name="greater_equal.init" format="2">
	<advance width="600"/>
	<outline>
		<contour>
			<point x="281" y="359" type="line"/>
			<point x="612" y="359" type="line"/>
			<point x="632" y="498" type="line"/>
			<point x="366" y="498" type="line"/>
			<point x="278" y="629" type="line"/>
			<point x="98" y="629" type="line"/>
		</contour>
		<contour>
			<point x="13" y="0" type="line"/>
			<point x="208" y="0" type="line"/>
			<point x="332" y="131" type="line"/>
			<point x="581" y="131" type="line"/>
			<point x="601" y="270" type="line"/>
			<point x="268" y="270" type="line"/>
		</contour>
	</outline>
</glyph>
<glyph name="greater_equal.med" format="2">
	<advance width="600"/>
	<outline>
		<contour>
			<point x="44" y="0" type="line"/>
			<point x="243" y="0" type="line"/>
			<point x="367" y="131" type="line"/>
			<point x="581" y="131" type="line"/>
			<point x="601" y="270" type="line"/>
			<point x="499" y="270" type="line"/>
			<point x="537" y="311" type="line"/>
			<point x="504" y="359" type="line"/>
			<point x="613" y="359" type="line"/>
			<point x="633" y="498" type="line"/>
			<point x="407" y="498" type="line"/>
			<point x="316" y="629" type="line"/>
			<point x="131" y="629" type="line"/>
			<point x="222" y="498" type="line"/>
			<point x="33" y="498" type="line"/>
			<point x="13" y="359" type="line"/>
			<point x="320" y="359" type="line"/>
			<point x="349" y="317" type="line"/>
			<point x="304" y="270" type="line"/>
			<point x="1" y="270" type="line"/>
			<point x="-19" y="131" type="line"/>
			<point x="169" y="131" type="line"/>
		</contour>
	</outline>
</glyph>
<glyph name="greater_equal.rem" format="2">
	<advance width="600"/>
	<outline>
		<contour>
			<point x="-278" y="359" type="line"/>
			<point x="464" y="359" type="line"/>
			<point x="484" y="498" type="line"/>
			<point x="-193" y="498" type="line"/>
			<point x="-281" y="629" type="line"/>
			<point x="-461" y="629" type="line"/>
		</contour>
		<contour>
			<point x="-546" y="0" type="line"/>
			<point x="-351" y="0" type="line"/>
			<point x="-227" y="131" type="line"/>
			<point x="431" y="131" type="line"/>
			<point x="451" y="270" type="line"/>
			<point x="-291" y="270" type="line"/>
		</contour>
	</outline>
</glyph>
<glyph name="greater_greater_equal.init" format="2">
	<advance width="600"/>
	<outline>
		<contour>
			<point x="-571" y="0" type="line"/>
			<point x="-373" y="0" type="line"/>
			<point x="-70" y="313" type="line"/>
			<point x="-297" y="629" type="line"/>
			<point x="-483" y="629" type="line"/>
			<point x="-260" y="322" type="line"/>
		</contour>
		<contour>
			<point x="90" y="359" type="line"/>
			<point x="613" y="359" type="line"/>
			<point x="633" y="498" type="line"/>
			<point x="175" y="498" type="line"/>
			<point x="87" y="629" type="line"/>
			<point x="-92" y="629" type="line"/>
		</contour>
		<contour>
			<point x="-177" y="0" type="line"/>
			<point x="17" y="0" type="line"/>
			<point x="141" y="131" type="line"/>
			<point x="581" y="131" type="line"/>
			<point x="601" y="270" type="line"/>
			<point x="77" y="270" type="line"/>
		</contour>
	</outline>
</glyph>
<glyph name="greater_greater_equal.med" format="2">
	<advance width="600"/>
	<outline>
		<contour>
			<point x="-618" y="131" type="line"/>
			<point x="-398" y="131" type="line"/>
			<point x="-524" y="0" type="line"/>
			<point x="-326" y="0" type="line"/>
			<point x="-33" y="311" type="line"/>
			<point x="-253" y="629" type="line"/>
			<point x="-435" y="629" type="line"/>
			<point x="-344" y="498" type="line"/>
			<point x="-567" y="498" type="line"/>
			<point x="-587" y="359" type="line"/>
			<point x="-247" y="359" type="line"/>
			<point x="-218" y="317" type="line"/>
			<point x="-263" y="270" type="line"/>
			<point x="-599" y="270" type="line"/>
		</contour>
		<contour>
			<point x="134" y="359" type="line"/>
			<point x="614" y="359" type="line"/>
			<point x="634" y="498" type="line"/>
			<point x="219" y="498" type="line"/>
			<point x="131" y="629" type="line"/>
			<point x="-49" y="629" type="line"/>
		</contour>
		<contour>
			<point x="-134" y="0" type="line"/>
			<point x="61" y="0" type="line"/>
			<point x="185" y="131" type="line"/>
			<point x="582" y="131" type="line"/>
			<point x="602" y="270" type="line"/>
			<point x="121" y="270" type="line"/>
		</contour>
	</outline>
</glyph>
<glyph name="greater_greater_equal.rem" format="2">
	<advance width="600"/>
	<outline>
		<contour>
			<point x="-1151" y="0" type="line"/>
			<point x="-953" y="0" type="line"/>
			<point x="-650" y="313" type="line"/>
			<point x="-877" y="629" type="line"/>
			<point x="-1063" y="629" type="line"/>
			<point x="-840" y="322" type="line"/>
		</contour>
		<contour>
			<point x="-490" y="359" type="line"/>
			<point x="459" y="359" type="line"/>
			<point x="479" y="498" type="line"/>
			<point x="-405" y="498" type="line"/>
			<point x="-493" y="629" type="line"/>
			<point x="-672" y="629" type="line"/>
		</contour>
		<contour>
			<point x="-757" y="0" type="line"/>
			<point x="-563" y="0" type="line"/>
			<point x="-439" y="131" type="line"/>
			<point x="426" y="131" type="line"/>
			<point x="446" y="270" type="line"/>
			<point x="-503" y="270" type="line"/>
		</contour>
	</outline>
</glyph>
<glyph name="greater_greater_greater.cLig" format="2">
	<advance width="600"/>
	<outline>
		<contour>
			<point x="-1153" y="9" type="line"/>
			<point x="-651" y="201" type="line"/>
			<point x="-625" y="385" type="line"/>
			<point x="-1073" y="578" type="line"/>
			<point x="-1094" y="424" type="line"/>
			<point x="-774" y="296" type="line"/>
			<point x="-1130" y="172" type="line"/>
		</contour>
		<contour>
			<point x="-572" y="9" type="line"/>
			<point x="-70" y="201" type="line"/>
			<point x="-44" y="385" type="line"/>
			<point x="-492" y="578" type="line"/>
			<point x="-513" y="424" type="line"/>
			<point x="-193" y="296" type="line"/>
			<point x="-549" y="172" type="line"/>
		</contour>
		<contour>
			<point x="9" y="9" type="line"/>
			<point x="511" y="201" type="line"/>
			<point x="537" y="385" type="line"/>
			<point x="89" y="578" type="line"/>
			<point x="68" y="424" type="line"/>
			<point x="388" y="296" type="line"/>
			<point x="32" y="172" type="line"/>
		</contour>
	</outline>
</glyph>
<glyph name="greater_greater_hyphen.fina" format="2">
	<advance width="600"/>
	<outline>
		<contour>
			<point x="11" y="0" type="line"/>
			<point x="210" y="0" type="line"/>
			<point x="502" y="314" type="line"/>
			<point x="278" y="629" type="line"/>
			<point x="97" y="629" type="line"/>
			<point x="311" y="322" type="line"/>
		</contour>
		<contour>
			<point x="121" y="314" type="line"/>
			<point x="-106" y="629" type="line"/>
			<point x="-287" y="629" type="line"/>
			<point x="-111" y="389" type="line"/>
			<point x="-582" y="389" type="line"/>
			<point x="-603" y="239" type="line"/>
			<point x="-140" y="239" type="line"/>
			<point x="-380" y="0" type="line"/>
			<point x="-188" y="0" type="line"/>
		</contour>
	</outline>
</glyph>
<glyph name="greater_greater_hyphen.med" format="2">
	<advance width="600"/>
	<outline>
		<contour>
			<point x="-97" y="0" type="line"/>
			<point x="101" y="0" type="line"/>
			<point x="324" y="239" type="line"/>
			<point x="597" y="239" type="line"/>
			<point x="618" y="389" type="line"/>
			<point x="340" y="389" type="line"/>
			<point x="170" y="629" type="line"/>
			<point x="-11" y="629" type="line"/>
			<point x="203" y="322" type="line"/>
		</contour>
		<contour>
			<point x="-394" y="629" type="line"/>
			<point x="-219" y="389" type="line"/>
			<point x="-582" y="389" type="line"/>
			<point x="-603" y="239" type="line"/>
			<point x="-247" y="239" type="line"/>
			<point x="-487" y="0" type="line"/>
			<point x="-295" y="0" type="line"/>
			<point x="14" y="314" type="line"/>
			<point x="-213" y="629" type="line"/>
		</contour>
	</outline>
</glyph>
<glyph name="greater_greater_hyphen.rem" format="2">
	<advance width="600"/>
	<outline>
		<contour>
			<point x="-1126" y="0" type="line"/>
			<point x="-928" y="0" type="line"/>
			<point x="-636" y="314" type="line"/>
			<point x="-859" y="629" type="line"/>
			<point x="-1040" y="629" type="line"/>
			<point x="-825" y="320" type="line"/>
		</contour>
		<contour>
			<point x="-739" y="0" type="line"/>
			<point x="-540" y="0" type="line"/>
			<point x="-318" y="239" type="line"/>
			<point x="460" y="239" type="line"/>
			<point x="481" y="389" type="line"/>
			<point x="-301" y="389" type="line"/>
			<point x="-472" y="629" type="line"/>
			<point x="-653" y="629" type="line"/>
			<point x="-441" y="323" type="line"/>
		</contour>
	</outline>
</glyph>
<glyph name="greater_hyphen.med" format="2">
	<advance width="600"/>
	<outline>
		<contour>
			<point x="133" y="629" type="line"/>
			<point x="308" y="389" type="line"/>
			<point x="18" y="389" type="line"/>
			<point x="-3" y="239" type="line"/>
			<point x="279" y="239" type="line"/>
			<point x="40" y="0" type="line"/>
			<point x="231" y="0" type="line"/>
			<point x="467" y="239" type="line"/>
			<point x="597" y="239" type="line"/>
			<point x="618" y="389" type="line"/>
			<point x="487" y="389" type="line"/>
			<point x="314" y="629" type="line"/>
		</contour>
	</outline>
</glyph>
<glyph name="hyphen_asciitilde.cLig" format="2">
	<advance width="600"/>
	<outline>
		<contour>
			<point x="-439" y="231" type="line"/>
			<point x="12" y="231" type="line"/>
			<point x="22" y="270"/>
			<point x="40" y="298"/>
			<point x="76" y="298" type="curve" smooth="yes"/>
			<point x="137" y="298"/>
			<point x="161" y="181"/>
			<point x="267" y="181" type="curve" smooth="yes"/>
			<point x="363" y="181"/>
			<point x="429" y="248"/>
			<point x="451" y="432" type="curve"/>
			<point x="325" y="432" type="line"/>
			<point x="319" y="366"/>
			<point x="301" y="333"/>
			<point x="266" y="333" type="curve" smooth="yes"/>
			<point x="211" y="333"/>
			<point x="178" y="446"/>
			<point x="69" y="446" type="curve" smooth="yes"/>
			<point x="22" y="446"/>
			<point x="-20" y="428"/>
			<point x="-50" y="380" type="curve"/>
			<point x="-418" y="380" type="line"/>
		</contour>
	</outline>
</glyph>
<glyph name="hyphen_bar_bar.rem" format="2">
	<advance width="600"/>
	<outline>
		<contour>
			<point x="67" y="683" type="line"/>
			<point x="-89" y="683" type="line"/>
			<point x="-131" y="389" type="line"/>
			<point x="-1027" y="389" type="line"/>
			<point x="-1048" y="239" type="line"/>
			<point x="-152" y="239" type="line"/>
			<point x="-193" y="-56" type="line"/>
			<point x="-37" y="-56" type="line"/>
		</contour>
		<contour>
			<point x="448" y="683" type="line"/>
			<point x="292" y="683" type="line"/>
			<point x="188" y="-56" type="line"/>
			<point x="344" y="-56" type="line"/>
		</contour>
	</outline>
</glyph>
<glyph name="hyphen_greater_greater.rem" format="2">
	<advance width="600"/>
	<outline>
		<contour>
			<point x="1" y="0" type="line"/>
			<point x="200" y="0" type="line"/>
			<point x="489" y="314" type="line"/>
			<point x="267" y="629" type="line"/>
			<point x="86" y="629" type="line"/>
			<point x="300" y="323" type="line"/>
		</contour>
		<contour>
			<point x="99" y="314" type="line"/>
			<point x="-128" y="629" type="line"/>
			<point x="-309" y="629" type="line"/>
			<point x="-133" y="389" type="line"/>
			<point x="-1031" y="389" type="line"/>
			<point x="-1051" y="239" type="line"/>
			<point x="-162" y="239" type="line"/>
			<point x="-402" y="0" type="line"/>
			<point x="-210" y="0" type="line"/>
		</contour>
	</outline>
</glyph>
<glyph name="hyphen_hyphen.cLig" format="2">
	<advance width="600"/>
	<outline>
		<contour>
			<point x="-66" y="367" type="line"/>
			<point x="-431" y="367" type="line"/>
			<point x="-451" y="219" type="line"/>
			<point x="-87" y="219" type="line"/>
		</contour>
		<contour>
			<point x="459" y="367" type="line"/>
			<point x="94" y="367" type="line"/>
			<point x="74" y="219" type="line"/>
			<point x="438" y="219" type="line"/>
		</contour>
	</outline>
</glyph>
<glyph name="hyphen_less_less.rem" format="2">
	<advance width="600"/>
	<outline>
		<contour>
			<point x="508" y="629" type="line"/>
			<point x="310" y="629" type="line"/>
			<point x="18" y="315" type="line"/>
			<point x="241" y="0" type="line"/>
			<point x="422" y="0" type="line"/>
			<point x="207" y="309" type="line"/>
		</contour>
		<contour>
			<point x="121" y="629" type="line"/>
			<point x="-78" y="629" type="line"/>
			<point x="-300" y="390" type="line"/>
			<point x="-1078" y="390" type="line"/>
			<point x="-1099" y="240" type="line"/>
			<point x="-317" y="240" type="line"/>
			<point x="-146" y="0" type="line"/>
			<point x="35" y="0" type="line"/>
			<point x="-177" y="306" type="line"/>
		</contour>
	</outline>
</glyph>
<glyph name="less_asterisk.cLig" format="2">
	<advance width="600"/>
	<outline>
		<contour>
			<point x="-88" y="-12" type="line"/>
			<point x="-65" y="143" type="line"/>
			<point x="-375" y="311" type="line"/>
			<point x="-19" y="473" type="line"/>
			<point x="5" y="642" type="line"/>
			<point x="-479" y="407" type="line"/>
			<point x="-505" y="222" type="line"/>
		</contour>
		<contour>
			<point x="407" y="128" type="line"/>
			<point x="505" y="264" type="line"/>
			<point x="332" y="320" type="line"/>
			<point x="522" y="376" type="line"/>
			<point x="462" y="513" type="line"/>
			<point x="305" y="384" type="line"/>
			<point x="372" y="569" type="line"/>
			<point x="215" y="569" type="line"/>
			<point x="232" y="382" type="line"/>
			<point x="109" y="513" type="line"/>
			<point x="11" y="377" type="line"/>
			<point x="186" y="320" type="line"/>
			<point x="-5" y="265" type="line"/>
			<point x="55" y="128" type="line"/>
			<point x="215" y="259" type="line"/>
			<point x="145" y="71" type="line"/>
			<point x="302" y="71" type="line"/>
			<point x="287" y="257" type="line"/>
		</contour>
	</outline>
</glyph>
<glyph name="less_asterisk_greater.cLig" format="2">
	<advance width="600"/>
	<outline>
		<contour>
			<point x="-1" y="-12" type="line"/>
			<point x="483" y="223" type="line"/>
			<point x="509" y="408" type="line"/>
			<point x="92" y="643" type="line"/>
			<point x="69" y="488" type="line"/>
			<point x="378" y="319" type="line"/>
			<point x="23" y="158" type="line"/>
		</contour>
		<contour>
			<point x="-676" y="-12" type="line"/>
			<point x="-653" y="143" type="line"/>
			<point x="-963" y="311" type="line"/>
			<point x="-608" y="473" type="line"/>
			<point x="-583" y="642" type="line"/>
			<point x="-1067" y="407" type="line"/>
			<point x="-1093" y="222" type="line"/>
		</contour>
		<contour>
			<point x="-143" y="129" type="line"/>
			<point x="-45" y="265" type="line"/>
			<point x="-219" y="321" type="line"/>
			<point x="-28" y="377" type="line"/>
			<point x="-88" y="514" type="line"/>
			<point x="-246" y="385" type="line"/>
			<point x="-178" y="570" type="line"/>
			<point x="-335" y="570" type="line"/>
			<point x="-319" y="383" type="line"/>
			<point x="-441" y="514" type="line"/>
			<point x="-539" y="378" type="line"/>
			<point x="-365" y="321" type="line"/>
			<point x="-555" y="266" type="line"/>
			<point x="-495" y="129" type="line"/>
			<point x="-336" y="260" type="line"/>
			<point x="-405" y="72" type="line"/>
			<point x="-248" y="72" type="line"/>
			<point x="-264" y="258" type="line"/>
		</contour>
	</outline>
</glyph>
<glyph name="less_bar_bar.cLig" format="2">
	<advance width="600"/>
	<outline>
		<contour>
			<point x="235" y="-79" type="line"/>
			<point x="345" y="708" type="line"/>
			<point x="188" y="708" type="line"/>
			<point x="78" y="-79" type="line"/>
		</contour>
		<contour>
			<point x="-215" y="708" type="line"/>
			<point x="-372" y="708" type="line"/>
			<point x="-928" y="407" type="line"/>
			<point x="-953" y="222" type="line"/>
			<point x="-482" y="-79" type="line"/>
			<point x="-325" y="-79" type="line"/>
		</contour>
		<contour>
			<point x="-455" y="87" type="line"/>
			<point x="-808" y="306" type="line"/>
			<point x="-394" y="525" type="line"/>
		</contour>
	</outline>
</glyph>
<glyph name="less_colon.cLig.x" format="2">
	<advance width="600"/>
	<outline>
		<contour>
			<point x="-46" y="-12" type="line"/>
			<point x="-23" y="144" type="line"/>
			<point x="-329" y="311" type="line"/>
			<point x="23" y="473" type="line"/>
			<point x="47" y="642" type="line"/>
			<point x="-437" y="407" type="line"/>
			<point x="-463" y="222" type="line"/>
		</contour>
		<contour>
			<point x="324" y="375" type="curve" smooth="yes"/>
			<point x="397" y="375"/>
			<point x="434" y="403"/>
			<point x="444" y="470" type="curve" smooth="yes"/>
			<point x="455" y="546"/>
			<point x="418" y="578"/>
			<point x="342" y="578" type="curve" smooth="yes"/>
			<point x="268" y="578"/>
			<point x="230" y="550"/>
			<point x="221" y="483" type="curve" smooth="yes"/>
			<point x="209" y="407"/>
			<point x="246" y="375"/>
		</contour>
		<contour>
			<point x="276" y="35" type="curve" smooth="yes"/>
			<point x="349" y="35"/>
			<point x="386" y="63"/>
			<point x="396" y="130" type="curve" smooth="yes"/>
			<point x="407" y="206"/>
			<point x="370" y="238"/>
			<point x="294" y="238" type="curve" smooth="yes"/>
			<point x="220" y="238"/>
			<point x="182" y="210"/>
			<point x="173" y="143" type="curve" smooth="yes"/>
			<point x="161" y="67"/>
			<point x="198" y="35"/>
		</contour>
	</outline>
</glyph>
<glyph name="less_equal_bar.rem" format="2">
	<advance width="600"/>
	<outline>
		<contour>
			<point x="408" y="0" type="line"/>
			<point x="496" y="629" type="line"/>
			<point x="340" y="629" type="line"/>
			<point x="322" y="498" type="line"/>
			<point x="-707" y="498" type="line"/>
			<point x="-581" y="629" type="line"/>
			<point x="-778" y="629" type="line"/>
			<point x="-1072" y="318" type="line"/>
			<point x="-852" y="0" type="line"/>
			<point x="-670" y="0" type="line"/>
			<point x="-761" y="131" type="line"/>
			<point x="270" y="131" type="line"/>
			<point x="252" y="0" type="line"/>
		</contour>
		<contour>
			<point x="-887" y="312" type="line"/>
			<point x="-842" y="359" type="line"/>
			<point x="302" y="359" type="line"/>
			<point x="290" y="270" type="line"/>
			<point x="-858" y="270" type="line"/>
		</contour>
	</outline>
</glyph>
<glyph name="less_equal_equal.rem" format="2">
	<advance width="600"/>
	<outline>
		<contour>
			<point x="478" y="498" type="line"/>
			<point x="-707" y="498" type="line"/>
			<point x="-581" y="629" type="line"/>
			<point x="-778" y="629" type="line"/>
			<point x="-1072" y="318" type="line"/>
			<point x="-852" y="0" type="line"/>
			<point x="-670" y="0" type="line"/>
			<point x="-761" y="131" type="line"/>
			<point x="425" y="131" type="line"/>
			<point x="445" y="270" type="line"/>
			<point x="-858" y="270" type="line"/>
			<point x="-887" y="312" type="line"/>
			<point x="-842" y="359" type="line"/>
			<point x="457" y="359" type="line"/>
		</contour>
	</outline>
</glyph>
<glyph name="less_equal_equal_greater.rem" format="2">
	<advance width="600"/>
	<outline>
		<contour>
			<point x="-2" y="0" type="line"/>
			<point x="195" y="0" type="line"/>
			<point x="489" y="311" type="line"/>
			<point x="269" y="629" type="line"/>
			<point x="87" y="629" type="line"/>
			<point x="178" y="498" type="line"/>
			<point x="-1309" y="498" type="line"/>
			<point x="-1183" y="629" type="line"/>
			<point x="-1380" y="629" type="line"/>
			<point x="-1674" y="318" type="line"/>
			<point x="-1454" y="0" type="line"/>
			<point x="-1272" y="0" type="line"/>
			<point x="-1363" y="131" type="line"/>
			<point x="124" y="131" type="line"/>
		</contour>
		<contour>
			<point x="304" y="317" type="line"/>
			<point x="259" y="270" type="line"/>
			<point x="-1460" y="270" type="line"/>
			<point x="-1489" y="312" type="line"/>
			<point x="-1444" y="359" type="line"/>
			<point x="275" y="359" type="line"/>
		</contour>
	</outline>
</glyph>
<glyph name="less_equal_less.rem" format="2">
	<advance width="600"/>
	<outline>
		<contour>
			<point x="288" y="270" type="line"/>
			<point x="-863" y="270" type="line"/>
			<point x="-892" y="312" type="line"/>
			<point x="-847" y="359" type="line"/>
			<point x="301" y="359" type="line"/>
			<point x="556" y="629" type="line"/>
			<point x="361" y="629" type="line"/>
			<point x="237" y="498" type="line"/>
			<point x="-712" y="498" type="line"/>
			<point x="-586" y="629" type="line"/>
			<point x="-784" y="629" type="line"/>
			<point x="-1077" y="318" type="line"/>
			<point x="-857" y="0" type="line"/>
			<point x="-675" y="0" type="line"/>
			<point x="-766" y="131" type="line"/>
			<point x="203" y="131" type="line"/>
			<point x="291" y="0" type="line"/>
			<point x="471" y="0" type="line"/>
		</contour>
	</outline>
</glyph>
<glyph name="less_exclam_hyphen_hyphen.cLig" format="2">
	<advance width="600"/>
	<outline>
		<contour>
			<point x="-1006" y="241" type="line"/>
			<point x="-886" y="241" type="line"/>
			<point x="-810" y="565" type="line"/>
			<point x="-792" y="684" type="line"/>
			<point x="-975" y="684" type="line"/>
			<point x="-992" y="565" type="line"/>
		</contour>
		<contour>
			<point x="-1264" y="0" type="line"/>
			<point x="-1439" y="240" type="line"/>
			<point x="-1149" y="240" type="line"/>
			<point x="-1128" y="390" type="line"/>
			<point x="-1410" y="390" type="line"/>
			<point x="-1171" y="629" type="line"/>
			<point x="-1362" y="629" type="line"/>
			<point x="-1672" y="315" type="line"/>
			<point x="-1445" y="0" type="line"/>
		</contour>
		<contour>
			<point x="462" y="389" type="line"/>
			<point x="-722" y="389" type="line"/>
			<point x="-743" y="239" type="line"/>
			<point x="441" y="239" type="line"/>
		</contour>
		<contour>
			<point x="-975" y="-12" type="curve" smooth="yes"/>
			<point x="-908" y="-12"/>
			<point x="-875" y="13"/>
			<point x="-866" y="72" type="curve" smooth="yes"/>
			<point x="-855" y="144"/>
			<point x="-892" y="173"/>
			<point x="-962" y="173" type="curve" smooth="yes"/>
			<point x="-1028" y="173"/>
			<point x="-1062" y="148"/>
			<point x="-1070" y="90" type="curve" smooth="yes"/>
			<point x="-1081" y="17"/>
			<point x="-1044" y="-12"/>
		</contour>
	</outline>
</glyph>
<glyph name="less_greater.cLig" format="2">
	<advance width="600"/>
	<outline>
		<contour>
			<point x="-50" y="-87" type="line"/>
			<point x="447" y="221" type="line"/>
			<point x="473" y="406" type="line"/>
			<point x="62" y="707" type="line"/>
			<point x="-433" y="407" type="line"/>
			<point x="-459" y="222" type="line"/>
		</contour>
		<contour>
			<point x="-335" y="310" type="line"/>
			<point x="46" y="532" type="line"/>
			<point x="347" y="319" type="line"/>
			<point x="-35" y="87" type="line"/>
		</contour>
	</outline>
</glyph>
<glyph name="less_hyphen_less.rem" format="2">
	<advance width="600"/>
	<outline>
		<contour>
			<point x="-665" y="-1" type="line"/>
			<point x="-840" y="239" type="line"/>
			<point x="94" y="239" type="line"/>
			<point x="264" y="-1" type="line"/>
			<point x="445" y="-1" type="line"/>
			<point x="233" y="305" type="line"/>
			<point x="531" y="628" type="line"/>
			<point x="333" y="628" type="line"/>
			<point x="110" y="389" type="line"/>
			<point x="-811" y="389" type="line"/>
			<point x="-572" y="628" type="line"/>
			<point x="-763" y="628" type="line"/>
			<point x="-1073" y="314" type="line"/>
			<point x="-846" y="-1" type="line"/>
		</contour>
	</outline>
</glyph>
<glyph name="less_less_equal.fina" format="2">
	<advance width="600"/>
	<outline>
		<contour>
			<point x="586" y="629" type="line"/>
			<point x="388" y="629" type="line"/>
			<point x="85" y="316" type="line"/>
			<point x="312" y="0" type="line"/>
			<point x="498" y="0" type="line"/>
			<point x="275" y="307" type="line"/>
		</contour>
		<contour>
			<point x="-75" y="270" type="line"/>
			<point x="-598" y="270" type="line"/>
			<point x="-618" y="131" type="line"/>
			<point x="-160" y="131" type="line"/>
			<point x="-72" y="0" type="line"/>
			<point x="107" y="0" type="line"/>
		</contour>
		<contour>
			<point x="192" y="629" type="line"/>
			<point x="-2" y="629" type="line"/>
			<point x="-126" y="498" type="line"/>
			<point x="-566" y="498" type="line"/>
			<point x="-586" y="359" type="line"/>
			<point x="-62" y="359" type="line"/>
		</contour>
	</outline>
</glyph>
<glyph name="less_less_equal.med" format="2">
	<advance width="600"/>
	<outline>
		<contour>
			<point x="633" y="498" type="line"/>
			<point x="413" y="498" type="line"/>
			<point x="539" y="629" type="line"/>
			<point x="341" y="629" type="line"/>
			<point x="48" y="318" type="line"/>
			<point x="268" y="0" type="line"/>
			<point x="450" y="0" type="line"/>
			<point x="359" y="131" type="line"/>
			<point x="582" y="131" type="line"/>
			<point x="602" y="270" type="line"/>
			<point x="262" y="270" type="line"/>
			<point x="233" y="312" type="line"/>
			<point x="278" y="359" type="line"/>
			<point x="614" y="359" type="line"/>
		</contour>
		<contour>
			<point x="-119" y="270" type="line"/>
			<point x="-599" y="270" type="line"/>
			<point x="-619" y="131" type="line"/>
			<point x="-204" y="131" type="line"/>
			<point x="-116" y="0" type="line"/>
			<point x="64" y="0" type="line"/>
		</contour>
		<contour>
			<point x="149" y="629" type="line"/>
			<point x="-46" y="629" type="line"/>
			<point x="-170" y="498" type="line"/>
			<point x="-567" y="498" type="line"/>
			<point x="-587" y="359" type="line"/>
			<point x="-106" y="359" type="line"/>
		</contour>
	</outline>
</glyph>
<glyph name="less_less_hyphen.med" format="2">
	<advance width="600"/>
	<outline>
		<contour>
			<point x="112" y="629" type="line"/>
			<point x="-86" y="629" type="line"/>
			<point x="-309" y="390" type="line"/>
			<point x="-582" y="390" type="line"/>
			<point x="-603" y="240" type="line"/>
			<point x="-325" y="240" type="line"/>
			<point x="-155" y="0" type="line"/>
			<point x="26" y="0" type="line"/>
			<point x="-188" y="307" type="line"/>
		</contour>
		<contour>
			<point x="409" y="0" type="line"/>
			<point x="234" y="240" type="line"/>
			<point x="597" y="240" type="line"/>
			<point x="618" y="390" type="line"/>
			<point x="262" y="390" type="line"/>
			<point x="502" y="629" type="line"/>
			<point x="310" y="629" type="line"/>
			<point x="1" y="315" type="line"/>
			<point x="228" y="0" type="line"/>
		</contour>
	</outline>
</glyph>
<glyph name="less_less_less.cLig" format="2">
	<advance width="600"/>
	<outline>
		<contour>
			<point x="-680" y="9" type="line"/>
			<point x="-659" y="163" type="line"/>
			<point x="-980" y="290" type="line"/>
			<point x="-623" y="416" type="line"/>
			<point x="-600" y="578" type="line"/>
			<point x="-1102" y="384" type="line"/>
			<point x="-1128" y="201" type="line"/>
		</contour>
		<contour>
			<point x="-99" y="9" type="line"/>
			<point x="-78" y="163" type="line"/>
			<point x="-399" y="290" type="line"/>
			<point x="-42" y="416" type="line"/>
			<point x="-19" y="578" type="line"/>
			<point x="-521" y="384" type="line"/>
			<point x="-547" y="201" type="line"/>
		</contour>
		<contour>
			<point x="482" y="9" type="line"/>
			<point x="503" y="163" type="line"/>
			<point x="182" y="290" type="line"/>
			<point x="539" y="416" type="line"/>
			<point x="562" y="578" type="line"/>
			<point x="60" y="384" type="line"/>
			<point x="34" y="201" type="line"/>
		</contour>
	</outline>
</glyph>
<glyph name="less_plus.cLig" format="2">
	<advance width="600"/>
	<outline>
		<contour>
			<point x="-84" y="-12" type="line"/>
			<point x="-61" y="144" type="line"/>
			<point x="-367" y="312" type="line"/>
			<point x="-16" y="473" type="line"/>
			<point x="9" y="642" type="line"/>
			<point x="-475" y="407" type="line"/>
			<point x="-501" y="222" type="line"/>
		</contour>
		<contour>
			<point x="239" y="532" type="line"/>
			<point x="215" y="364" type="line"/>
			<point x="51" y="364" type="line"/>
			<point x="31" y="225" type="line"/>
			<point x="195" y="225" type="line"/>
			<point x="172" y="57" type="line"/>
			<point x="316" y="57" type="line"/>
			<point x="339" y="225" type="line"/>
			<point x="505" y="225" type="line"/>
			<point x="525" y="364" type="line"/>
			<point x="359" y="364" type="line"/>
			<point x="383" y="532" type="line"/>
		</contour>
	</outline>
</glyph>
<glyph name="less_plus_greater.cLig" format="2">
	<advance width="600"/>
	<outline>
		<contour>
			<point x="-9" y="-12" type="line"/>
			<point x="475" y="223" type="line"/>
			<point x="501" y="408" type="line"/>
			<point x="84" y="642" type="line"/>
			<point x="60" y="487" type="line"/>
			<point x="367" y="319" type="line"/>
			<point x="15" y="158" type="line"/>
		</contour>
		<contour>
			<point x="-668" y="-12" type="line"/>
			<point x="-644" y="144" type="line"/>
			<point x="-951" y="312" type="line"/>
			<point x="-599" y="473" type="line"/>
			<point x="-575" y="642" type="line"/>
			<point x="-1059" y="407" type="line"/>
			<point x="-1085" y="222" type="line"/>
		</contour>
		<contour>
			<point x="-342" y="531" type="line"/>
			<point x="-365" y="363" type="line"/>
			<point x="-530" y="363" type="line"/>
			<point x="-550" y="224" type="line"/>
			<point x="-385" y="224" type="line"/>
			<point x="-409" y="56" type="line"/>
			<point x="-265" y="56" type="line"/>
			<point x="-241" y="224" type="line"/>
			<point x="-76" y="224" type="line"/>
			<point x="-56" y="363" type="line"/>
			<point x="-221" y="363" type="line"/>
			<point x="-198" y="531" type="line"/>
		</contour>
	</outline>
</glyph>
<glyph name="less_slash.cLig" format="2">
	<advance width="600"/>
	<outline>
		<contour>
			<point x="16" y="607" type="line"/>
			<point x="-463" y="407" type="line"/>
			<point x="-488" y="223" type="line"/>
			<point x="17" y="-28" type="line"/>
			<point x="-49" y="-164" type="line"/>
			<point x="119" y="-164" type="line"/>
			<point x="586" y="791" type="line"/>
			<point x="417" y="791" type="line"/>
			<point x="80" y="101" type="line"/>
			<point x="-343" y="309" type="line"/>
			<point x="-7" y="445" type="line"/>
		</contour>
	</outline>
</glyph>
<glyph name="lslashcomb" format="2">
	<advance width="600"/>
	<outline>
		<contour>
			<point x="19" y="327" type="line"/>
			<point x="490" y="494" type="line"/>
			<point x="505" y="610" type="line"/>
			<point x="35" y="443" type="line"/>
		</contour>
	</outline>
	<anchor name="_center" x="262" y="463"/>
</glyph>
<glyph name="nine.numr" format="2">
	<advance width="600"/>
	<outline>
		<contour>
			<point x="305" y="366" type="curve" smooth="yes"/>
			<point x="423" y="366"/>
			<point x="468" y="426"/>
			<point x="484" y="555" type="curve" smooth="yes"/>
			<point x="498" y="659"/>
			<point x="465" y="724"/>
			<point x="352" y="724" type="curve" smooth="yes"/>
			<point x="262" y="724"/>
			<point x="205" y="672"/>
			<point x="205" y="581" type="curve" smooth="yes"/>
			<point x="205" y="522"/>
			<point x="237" y="486"/>
			<point x="294" y="486" type="curve" smooth="yes"/>
			<point x="329" y="486"/>
			<point x="356" y="503"/>
			<point x="381" y="541" type="curve"/>
			<point x="370" y="469"/>
			<point x="348" y="442"/>
			<point x="293" y="442" type="curve" smooth="yes"/>
			<point x="257" y="442"/>
			<point x="222" y="456"/>
			<point x="199" y="471" type="curve"/>
			<point x="189" y="394" type="line"/>
			<point x="214" y="377"/>
			<point x="260" y="366"/>
		</contour>
		<contour>
			<point x="342" y="549" type="curve" smooth="yes"/>
			<point x="318" y="549"/>
			<point x="302" y="563"/>
			<point x="302" y="592" type="curve" smooth="yes"/>
			<point x="302" y="629"/>
			<point x="317" y="652"/>
			<point x="350" y="652" type="curve" smooth="yes"/>
			<point x="377" y="652"/>
			<point x="392" y="637"/>
			<point x="392" y="610" type="curve" smooth="yes"/>
			<point x="392" y="570"/>
			<point x="373" y="549"/>
		</contour>
	</outline>
</glyph>
